<svg width="742" height="633" viewBox="0 0 742 633" fill="none" xmlns="http://www.w3.org/2000/svg">
<path d="M242.14 177.995C239.957 175.735 236.19 173.66 229.656 173.506C214.972 173.152 218.893 183.531 214.972 186.037C211.052 188.543 209.96 184.607 206.024 187.113C202.088 189.619 203.871 194.647 200.643 195.354C197.414 196.061 193.124 192.125 189.188 194.647C185.252 197.168 185.237 199.259 183.453 199.259C181.67 199.259 178.072 197.829 175.935 199.259C173.797 200.689 171.322 202.488 171.322 202.488H209.76" stroke="#263238" stroke-width="0.697613" stroke-linecap="round" stroke-linejoin="round"/>
<path d="M246.184 184.407L245.062 183.9C244.891 182.56 244.441 181.271 243.739 180.117" stroke="#263238" stroke-width="0.697613" stroke-linecap="round" stroke-linejoin="round"/>
<path d="M214.665 202.519H261.898C261.898 202.519 262.974 199.291 259.038 197.153C255.102 195.016 253.303 196.784 251.873 195.001C250.443 193.217 254.717 189.543 248.045 185.422" stroke="#263238" stroke-width="0.697613" stroke-linecap="round" stroke-linejoin="round"/>
<path d="M555.195 18.6163C551.29 14.5572 544.432 10.8211 532.716 10.5289C506.24 9.88317 513.282 28.6871 506.24 33.1305C499.198 37.5739 497.2 30.5475 490.096 35.0678C482.993 39.5881 486.222 48.6287 480.425 49.9202C474.629 51.2117 466.864 44.0623 459.761 48.6748C452.658 53.2874 452.658 57.0697 449.429 57.0697C446.2 57.0697 439.743 54.4867 435.868 57.0697C431.993 59.6527 427.473 62.8815 427.473 62.8815H496.8" stroke="#263238" stroke-width="0.697613" stroke-linecap="round" stroke-linejoin="round"/>
<path d="M562.482 30.2242C561.852 29.9167 561.191 29.6092 560.483 29.3017C560.171 26.8905 559.359 24.5708 558.1 22.4905" stroke="#263238" stroke-width="0.697613" stroke-linecap="round" stroke-linejoin="round"/>
<path d="M505.671 62.8353H590.819C590.819 62.8353 592.757 57.0235 585.653 53.149C578.55 49.2744 575.336 52.5032 572.753 49.2744C570.447 46.3993 577.873 39.4343 565.85 32.0081" stroke="#263238" stroke-width="0.697613" stroke-linecap="round" stroke-linejoin="round"/>
<path d="M41.4631 87.2051H135.129C135.129 87.2051 138.327 77.6264 126.611 71.2457C114.895 64.865 109.591 70.1848 105.332 64.865C101.073 59.5451 117.048 45.7074 85.1287 31.8851C85.1287 31.8851 82.9915 2.08797 39.3721 1.02708C20.5528 0.565826 12.0349 6.05478 7.48389 13.0351" stroke="#263238" stroke-width="0.697613" stroke-linecap="round" stroke-linejoin="round"/>
<path d="M12.8809 87.2053H28.4713" stroke="#263238" stroke-width="0.697613" stroke-linecap="round" stroke-linejoin="round"/>
<path d="M1.81019 27.7336C0.472548 32.2693 -0.972726 36.19 -4.24765 38.2657C-15.9482 45.7073 -19.1308 34.0067 -30.8467 41.4637C-42.5627 48.9207 -37.1506 63.8039 -46.7908 65.9257C-56.4311 68.0474 -69.1464 56.3623 -80.8469 63.8039C-92.5475 71.2455 -92.5475 77.6416 -97.8673 77.6416C-103.187 77.6416 -113.827 73.398 -120.207 77.6416C-126.588 81.8851 -134.045 87.2203 -134.045 87.2203H-14.4107" stroke="#263238" stroke-width="0.697613" stroke-linecap="round" stroke-linejoin="round"/>
<path d="M626.074 353.088L680.918 242.325L697.384 250.474L693.464 189.266L642.418 223.26L658.885 231.409L604.026 342.172" stroke="#263238" stroke-width="0.697613" stroke-linecap="round" stroke-linejoin="round"/>
<path d="M599.322 184.884L633.885 115.08L644.264 120.216L641.804 81.6394L609.623 103.057L620.001 108.192L585.438 178.011" stroke="#263238" stroke-width="0.697613" stroke-linecap="round" stroke-linejoin="round"/>
<path d="M245.492 64.8188C252.908 47.7934 266.736 34.3767 283.977 27.4763C301.218 20.576 320.484 20.748 337.599 27.9551C354.715 35.1621 368.3 48.8236 375.412 65.9787C382.524 83.1338 382.588 102.4 375.592 119.603C368.596 136.805 355.102 150.558 338.036 157.88C320.969 165.202 301.705 165.503 284.418 158.719C267.131 151.934 253.214 138.611 245.683 121.636C238.151 104.661 237.613 85.4014 244.185 68.0322" stroke="#263238" stroke-width="0.697613" stroke-miterlimit="10"/>
<path d="M244.692 64.5268C252.192 47.2974 266.18 33.718 283.624 26.7321C301.068 19.7462 320.563 19.9168 337.882 27.2069C355.201 34.4969 368.949 48.319 376.147 65.677C383.344 83.035 383.41 102.53 376.331 119.937C369.252 137.343 355.598 151.258 338.328 158.666C321.059 166.073 301.566 166.376 284.075 159.509C266.584 152.642 252.504 139.157 244.887 121.979C237.27 104.801 236.731 85.3135 243.385 67.7403" stroke="#263238" stroke-width="0.348807" stroke-miterlimit="10"/>
<path d="M263.358 71.5684C269.041 59.0108 279.432 49.1897 292.29 44.2228C305.147 39.2559 319.442 39.5411 332.092 45.0168C344.741 50.4926 354.732 60.7202 359.91 73.4945C365.088 86.2688 365.038 100.566 359.772 113.304C354.505 126.042 344.443 136.2 331.756 141.588C319.069 146.976 304.772 147.161 291.949 142.105C279.126 137.049 268.804 127.156 263.208 114.559C257.612 101.962 257.191 87.671 262.035 74.7665" stroke="#263238" stroke-width="0.697613" stroke-miterlimit="10"/>
<path d="M262.558 71.2609C267.956 59.3807 277.555 49.9159 289.511 44.6873C301.467 39.4588 314.933 38.8357 327.321 42.938C339.708 47.0404 350.141 55.5783 356.612 66.9094C363.084 78.2405 365.137 91.5644 362.376 104.318C359.616 117.072 352.237 128.354 341.659 135.995C331.081 143.636 318.052 147.095 305.077 145.708C292.102 144.321 280.098 138.185 271.374 128.481C262.651 118.776 257.824 106.189 257.822 93.1398C257.81 86.7567 258.967 80.4253 261.236 74.4589" stroke="#263238" stroke-width="0.348807" stroke-miterlimit="10"/>
<path d="M285.037 80.5168L285.36 79.8711C288.607 73.6828 294.008 68.8978 300.543 66.4198C307.077 63.9418 314.293 63.9424 320.827 66.4215C327.361 68.9005 332.761 73.6864 336.008 79.8752C339.254 86.064 340.122 93.2274 338.447 100.012C336.773 106.797 332.672 112.734 326.918 116.702C321.165 120.67 314.158 122.393 307.221 121.547C300.284 120.701 293.897 117.345 289.265 112.111C284.634 106.877 282.08 100.128 282.085 93.1399C282.079 89.6884 282.704 86.2649 283.93 83.0383" stroke="#263238" stroke-width="0.348807" stroke-miterlimit="10"/>
<path d="M286.605 80.3323H286.374L286.174 80.2554L285.375 79.9479L263.373 71.6453L262.573 71.3378L245.507 64.8956L244.708 64.6035L217.217 54.2252L218.57 44.0776C218.595 43.8917 218.56 43.7025 218.468 43.5388C218.377 43.375 218.234 43.2457 218.062 43.1704L196.306 33.2995C196.151 33.2317 195.98 33.2102 195.813 33.2377C195.646 33.2651 195.491 33.3402 195.366 33.454C195.24 33.5678 195.151 33.7154 195.108 33.8789C195.065 34.0425 195.07 34.2151 195.122 34.3758L199.535 47.4447L196.291 46.2147C196.075 46.1189 195.842 46.0682 195.606 46.0656C195.369 46.063 195.135 46.1085 194.917 46.1995C194.699 46.2905 194.502 46.425 194.338 46.5948C194.174 46.7646 194.046 46.966 193.962 47.1869C193.878 47.4078 193.84 47.6434 193.851 47.8794C193.861 48.1154 193.92 48.3468 194.022 48.5594C194.125 48.7721 194.27 48.9615 194.449 49.1162C194.628 49.2708 194.836 49.3874 195.061 49.4589L198.444 50.735L188.296 58.5303C188.161 58.634 188.059 58.7756 188.004 58.9371C187.95 59.0986 187.944 59.2727 187.988 59.4374C188.03 59.6011 188.119 59.7486 188.245 59.8609C188.371 59.9733 188.528 60.0453 188.696 60.0678L213.065 63.8193H213.188C213.364 63.8193 213.536 63.7666 213.681 63.6679C213.826 63.5692 213.938 63.4291 214.003 63.2658L216.294 57.454L243.385 67.6785L244.185 67.9706L261.236 74.3975L262.035 74.705L283.945 82.9768L284.745 83.269L285.39 83.515" stroke="#263238" stroke-width="0.697613" stroke-miterlimit="10"/>
<path d="M286.144 80.2401H286.374H286.605L302.272 86.1595L303.994 80.9935C304.107 80.65 304.325 80.3508 304.618 80.1383C304.91 79.9259 305.262 79.8108 305.624 79.8096V79.8096C305.991 79.8163 306.346 79.9389 306.639 80.1599C306.931 80.3808 307.147 80.6888 307.254 81.0396L310.329 91.218C310.446 91.6097 310.422 92.03 310.262 92.4063C310.102 92.7825 309.816 93.091 309.452 93.2783L301.611 97.1836C301.373 97.3044 301.109 97.3676 300.842 97.3681C300.425 97.3706 300.022 97.2233 299.704 96.9529C299.449 96.7252 299.265 96.4282 299.175 96.098C299.085 95.7677 299.093 95.4185 299.197 95.0925L301.104 89.5421L285.39 83.5765C285.168 83.4949 284.969 83.3634 284.806 83.1921" stroke="#263238" stroke-width="0.697613" stroke-miterlimit="10"/>
<path d="M687.222 406.302L696.586 408.439L698.754 398.937L689.759 396.877C689.759 396.616 689.759 396.339 689.759 396.078C689.766 393.189 689.19 390.329 688.068 387.667L695.356 381.856L689.206 374.168L682.41 379.795C679.965 377.673 677.067 376.137 673.938 375.306V366.219H664.113V374.937C660.901 375.571 657.876 376.933 655.273 378.919L648.215 373.292L642.065 380.979L648.953 386.468C647.501 389.33 646.718 392.484 646.663 395.693L637.822 397.692L639.99 407.194L648.846 405.18C650.188 408.03 652.134 410.553 654.55 412.575L650.429 421.124L659.209 425.352L663.268 416.926C664.917 417.34 666.61 417.552 668.311 417.557C669.683 417.549 671.053 417.416 672.401 417.157L676.598 425.875L685.393 421.647L681.303 413.175C683.736 411.324 685.752 408.982 687.222 406.302V406.302ZM658.686 396.155C658.686 394.263 659.247 392.414 660.298 390.841C661.349 389.269 662.842 388.043 664.59 387.319C666.337 386.595 668.26 386.406 670.115 386.775C671.97 387.144 673.674 388.055 675.012 389.392C676.349 390.73 677.26 392.434 677.629 394.289C677.998 396.144 677.809 398.067 677.085 399.814C676.361 401.562 675.135 403.055 673.562 404.106C671.99 405.157 670.141 405.718 668.249 405.718C665.713 405.718 663.28 404.71 661.487 402.917C659.693 401.123 658.686 398.691 658.686 396.155V396.155Z" stroke="#263238" stroke-width="0.697613" stroke-linecap="round" stroke-linejoin="round"/>
<path d="M489.835 587.653C489.835 587.653 480.287 593.803 478.381 595.34C476.474 596.878 467.695 598.784 468.848 601.49C470.001 604.196 481.056 605.688 484.116 605.688C487.175 605.688 498.983 599.538 502.043 598.831C505.103 598.123 505.118 594.633 503.949 591.958C502.689 589.611 501.139 587.431 499.337 585.469L491.326 587.76L489.835 587.653Z" fill="white" stroke="#263238" stroke-width="0.697613" stroke-linecap="round" stroke-linejoin="round"/>
<path d="M598.199 586.607C598.199 586.607 590.942 595.386 589.804 597.293C588.667 599.199 582.117 602.244 582.117 605.303C582.117 608.363 593.187 606.841 596.616 606.441C598.679 606.12 600.643 605.337 602.36 604.149C604.078 602.962 605.504 601.401 606.533 599.584C608.454 595.755 609.977 587.745 607.686 584.701C605.395 581.656 598.199 586.607 598.199 586.607Z" fill="white" stroke="#263238" stroke-width="0.697613" stroke-linecap="round" stroke-linejoin="round"/>
<path d="M506.624 417.572L506.317 419.879L503.949 438.175C503.949 438.175 482.731 468.141 474.967 483.747C471 491.712 465.465 501.167 466.234 503.827L489.835 587.653C491.624 588.531 493.566 589.053 495.554 589.19C497.386 589.127 499.192 588.742 500.89 588.053L499.813 510.469L532.562 474.445L536.76 479.78C536.76 479.78 547.63 518.341 552.212 524.445C556.794 530.549 596.308 587.745 596.308 587.745C598.343 588.696 600.551 589.219 602.796 589.283C606.24 589.283 607.763 584.67 607.763 584.67C607.763 584.67 579.334 514.482 578.55 512.191C577.766 509.9 578.35 453.766 578.35 453.766L573.737 426.674L568.402 409.5C568.402 409.5 558.485 412.176 541.695 411.407C524.906 410.638 508.885 409.5 508.885 409.5L506.624 417.572Z" fill="#263238" stroke="#263238" stroke-width="0.697613" stroke-linecap="round" stroke-linejoin="round"/>
<path d="M461.591 233.669C461.591 233.669 456.255 241.68 455.441 246.646C455.123 249.95 456.08 253.25 458.116 255.871L455.041 262.36C455.041 262.36 465.342 283.347 471.446 292.879C477.55 302.412 487.467 318.448 493.571 321.508C499.675 324.568 511.499 337.145 511.499 337.145L518.371 322.261C518.371 322.261 498.23 297 485.607 279.457C477.975 268.807 470.968 257.723 464.619 246.262C464.607 242.941 464.864 239.624 465.388 236.345C465.888 233.445 466.14 230.508 466.142 227.565L461.591 233.669Z" fill="#263238" stroke="#263238" stroke-width="0.697613" stroke-linecap="round" stroke-linejoin="round"/>
<path d="M523.414 316.465C523.414 316.465 507.762 335.161 504.718 347.369C501.674 359.577 505.471 397.354 505.471 402.72C505.471 408.086 502.396 413.79 506.625 417.603C510.853 421.416 523.414 419.509 527.981 419.14C532.547 418.771 554.319 419.14 560.807 417.218C567.295 415.297 570.339 412.606 570.339 408.07C570.339 403.534 562.329 367.249 561.114 361.145C559.9 355.041 564.189 334.054 558.454 324.122C552.72 314.189 534.469 312.652 523.414 316.465Z" fill="white" stroke="#263238" stroke-width="0.697613" stroke-linecap="round" stroke-linejoin="round"/>
<path d="M520.739 319.14C520.739 319.14 501.658 338.59 498.983 348.891C496.308 359.193 486.775 379.042 483.731 387.821C481.079 394.746 477.997 401.498 474.506 408.04L477.934 421.77L486.713 412.237C486.713 412.237 495.493 382.086 500.075 369.494C504.656 356.902 505.41 345.078 506.225 341.649C507.039 338.221 520.739 319.14 520.739 319.14Z" fill="#263238" stroke="#263238" stroke-width="0.697613" stroke-linecap="round" stroke-linejoin="round"/>
<path d="M523.414 317.987C523.414 317.987 511.96 349.276 512.344 351.566C512.728 353.857 518.063 438.559 518.063 438.559C518.063 438.559 523.414 451.536 547.445 449.63C571.477 447.723 590.158 444.279 590.158 444.279C590.158 444.279 582.916 415.666 576.428 402.689C569.939 389.712 566.511 382.086 566.511 375.982C566.511 369.878 563.836 329.057 562.313 322.569C561.65 319.237 560.489 316.023 558.869 313.036L556.594 311.13L523.414 317.987Z" fill="#FB8500" stroke="#263238" stroke-width="0.697613" stroke-linecap="round" stroke-linejoin="round"/>
<path d="M514.25 382.855L532.946 428.642C532.946 428.642 525.259 431.718 522.645 434.362C521.179 435.838 519.64 437.239 518.033 438.559L514.25 382.855Z" fill="#FB8500" stroke="#263238" stroke-width="0.697613" stroke-linecap="round" stroke-linejoin="round"/>
<path d="M539.051 256.563C539.051 256.563 527.227 266.096 527.227 268.771C527.227 271.446 524.152 275.259 524.152 275.259C524.152 275.259 518.002 276.028 517.664 278.335C517.326 280.641 519.571 285.207 519.571 285.207C519.571 285.207 515.757 298.184 517.295 301.228C518.833 304.272 529.872 304.672 529.872 304.672L530.256 313.067L556.594 308.87L556.21 302.381C556.21 302.381 570.324 287.114 577.197 280.625C584.07 274.137 575.29 262.698 566.895 253.919C558.501 245.139 538.651 245.139 537.129 249.721C536.658 250.915 536.591 252.23 536.938 253.466C537.285 254.701 538.027 255.789 539.051 256.563Z" fill="white" stroke="#263238" stroke-width="0.697613" stroke-linecap="round" stroke-linejoin="round"/>
<path d="M529.134 270.293C529.976 269.874 530.916 269.688 531.854 269.756C532.792 269.824 533.695 270.142 534.469 270.677" stroke="#263238" stroke-width="0.697613" stroke-linecap="round" stroke-linejoin="round"/>
<path d="M529.534 275.797C529.242 277.027 529.426 278.134 529.934 278.242C530.441 278.35 531.102 277.473 531.394 276.243C531.686 275.013 531.502 273.922 530.995 273.799C530.487 273.676 529.826 274.567 529.534 275.797Z" fill="#263238"/>
<path d="M566.911 253.888C558.516 245.108 538.666 245.108 537.144 249.69C536.664 250.886 536.59 252.207 536.935 253.449C537.279 254.691 538.023 255.785 539.051 256.563C539.051 256.563 552.028 258.1 550.121 261.529C548.215 264.958 541.726 264.958 543.248 267.249C544.77 269.54 550.121 274.49 548.214 275.644C546.308 276.797 545.139 279.072 546.308 279.841C547.476 280.61 549.383 278.688 553.996 279.457C558.608 280.225 557.424 290.896 553.227 292.433C549.029 293.971 547.077 292.049 554.764 298.922C555.667 299.713 556.71 300.328 557.839 300.736C561.652 296.631 571.815 285.807 577.32 280.594C584.008 274.106 575.306 262.667 566.911 253.888Z" fill="#263238" stroke="#263238" stroke-width="0.697613" stroke-linecap="round" stroke-linejoin="round"/>
<path d="M550.121 293.571L543.249 292.049L538.667 295.478" stroke="#263238" stroke-width="0.697613" stroke-linecap="round" stroke-linejoin="round"/>
<path d="M558.131 304.257L523.03 313.79L520.739 321.047L562.329 313.421L558.131 304.257Z" fill="#FB8500" stroke="#263238" stroke-width="0.697613" stroke-linecap="round" stroke-linejoin="round"/>
<path d="M469.616 245.109L468.463 237.098C468.463 237.098 471.892 226.043 471.892 223.368C471.892 220.693 469.232 214.589 469.232 213.067C469.232 211.544 466.941 209.254 466.157 212.298C465.373 215.342 463.866 226.797 463.866 226.797C463.866 226.797 458.915 235.192 459.253 239.389C459.592 243.586 463.435 252.366 463.435 252.366L470.308 248.168L469.616 245.109Z" fill="white" stroke="#263238" stroke-width="0.697613" stroke-linecap="round" stroke-linejoin="round"/>
<path d="M474.568 251.228L469.617 245.109L460.453 252.366L465.788 261.529L474.568 251.228Z" fill="white" stroke="#263238" stroke-width="0.697613" stroke-linecap="round" stroke-linejoin="round"/>
<path d="M557.747 329.826C555.215 323.427 550.475 318.147 544.386 314.942C537.898 311.76 531.13 309.187 524.167 307.255L472.276 248.122L461.975 258.423C461.975 258.423 483.731 303.826 487.928 311.452C492.125 319.078 540.573 371.416 540.573 371.416" fill="#FB8500"/>
<path d="M557.747 329.826C555.215 323.427 550.475 318.147 544.386 314.942C537.898 311.76 531.13 309.187 524.167 307.255L472.276 248.122L461.975 258.423C461.975 258.423 483.731 303.826 487.928 311.452C492.125 319.078 540.573 371.416 540.573 371.416" stroke="#263238" stroke-width="0.697613" stroke-linecap="round" stroke-linejoin="round"/>
<path d="M105.362 579.796C105.362 579.796 98.0591 590.175 96.5216 595.94C94.9841 601.706 95.3685 609.394 99.2123 608.625C103.056 607.856 111.897 598.247 112.666 595.556C113.434 592.865 116.125 580.565 116.125 580.565L106.9 579.796H105.362Z" fill="white" stroke="#263238" stroke-width="0.697613" stroke-linecap="round" stroke-linejoin="round"/>
<path d="M237.205 586.331C237.205 586.331 237.205 597.093 239.511 598.631C241.817 600.168 257.577 606.703 262.189 607.087C266.802 607.472 268.339 606.703 265.649 601.322C262.958 595.94 247.583 585.562 247.583 585.562L237.205 586.331Z" fill="white" stroke="#263238" stroke-width="0.697613" stroke-linecap="round" stroke-linejoin="round"/>
<path d="M142.647 404.519L133.807 441.804L129.194 511.761C129.194 511.761 112.281 540.974 110.744 551.737C109.206 562.499 104.209 584.409 104.209 584.409C104.209 584.409 111.128 587.484 112.281 587.484C113.435 587.484 127.272 567.496 134.96 559.809C142.647 552.121 159.945 519.064 160.713 517.527C161.482 515.989 173.782 467.173 174.551 465.635C175.32 464.098 179.932 462.176 179.932 462.176C179.932 462.176 203.087 495.463 205.886 498.262C210.36 502.736 217.602 514.067 217.602 514.067C217.602 514.067 233.361 576.721 234.514 579.796C235.349 582.678 235.864 585.643 236.052 588.637L250.274 591.712C250.274 591.712 251.427 549.815 250.658 539.821C249.89 529.827 246.815 508.302 246.815 508.302C246.815 508.302 223.367 444.11 222.214 442.573C221.061 441.035 214.142 425.66 214.142 425.66L211.836 411.053C198.315 414.842 184.087 415.369 170.323 412.591C147.26 407.978 142.647 404.519 142.647 404.519Z" fill="#263238" stroke="#263238" stroke-width="0.697613" stroke-linecap="round" stroke-linejoin="round"/>
<path d="M164.372 300.29C156.023 305.811 147.357 310.837 138.419 315.343C126.626 320.985 123.813 326.628 123.813 329.442C123.813 332.255 113.557 378.904 114.326 381.456C115.095 384.008 122.014 387.867 126.38 388.898C130.747 389.928 136.882 388.636 138.158 387.606C139.434 386.576 143.539 369.156 143.539 369.156C143.539 369.156 141.233 400.675 140.218 404.78C139.203 408.885 148.674 419.387 157.899 421.186C167.125 422.984 191.971 422.969 198.382 420.924C204.794 418.879 209.145 418.357 211.19 414.513C213.235 410.669 214.526 383.255 214.788 381.456C215.049 379.657 217.094 363.267 217.094 363.267L223.751 385.823L226.319 390.435C226.319 390.435 227.595 387.606 235.544 382.994C243.493 378.381 246.046 377.874 246.046 377.874C246.046 377.874 241.433 362.76 238.619 354.042C235.806 345.324 232.977 329.442 229.394 323.03C225.812 316.619 219.4 313.805 210.683 308.424C201.965 303.042 189.157 299.967 187.62 299.199C186.082 298.43 172.383 297.292 164.372 300.29Z" fill="white" stroke="#263238" stroke-width="0.697613" stroke-linecap="round" stroke-linejoin="round"/>
<path d="M143.539 369.156L148.951 350.413" stroke="#263238" stroke-width="0.697613" stroke-linecap="round" stroke-linejoin="round"/>
<path d="M220.845 345.77L221.768 341.526" stroke="#263238" stroke-width="0.697613" stroke-linecap="round" stroke-linejoin="round"/>
<path d="M217.094 363.267L220.03 349.614" stroke="#263238" stroke-width="0.697613" stroke-linecap="round" stroke-linejoin="round"/>
<path d="M171.091 329.949L176.472 337.637L179.547 344.555L171.86 408.363L182.622 418.356L191.079 407.209L183.391 345.324L188.004 336.483L194.138 326.443L183.007 319.955L171.091 329.949Z" fill="#FB8500" stroke="#263238" stroke-width="0.697613" stroke-linecap="round" stroke-linejoin="round"/>
<path d="M167.34 297.538C167.34 297.538 162.005 298.937 160.836 302.151C159.667 305.364 161.297 324.921 162.927 329.103C164.254 332.245 165.795 335.291 167.54 338.221C167.54 338.221 181.808 329.103 184.36 328.642C186.912 328.181 201.565 335.853 201.565 335.853C201.565 335.853 202.026 326.782 196.952 314.005C191.879 301.228 180.04 294.017 174.874 293.541C173.367 293.415 171.855 293.725 170.52 294.433C169.184 295.142 168.08 296.22 167.34 297.538Z" fill="white" stroke="#263238" stroke-width="0.697613" stroke-linecap="round" stroke-linejoin="round"/>
<path d="M165.218 295.924C165.218 295.924 165.926 304.057 166.617 309.623C167.309 315.189 175.919 333.578 178.918 336.13C181.916 338.682 188.143 330.318 190.311 326.597C191.224 324.905 192.251 323.276 193.386 321.723C193.386 321.723 178.518 314.512 173.875 306.148C169.231 297.784 169.677 293.848 167.586 293.587C165.495 293.325 165.218 295.924 165.218 295.924Z" fill="white" stroke="#263238" stroke-width="0.697613" stroke-linecap="round" stroke-linejoin="round"/>
<path d="M172.721 315.912L184.145 334.362C184.145 334.362 189.403 329.503 190.295 326.674C191.187 323.845 172.721 315.912 172.721 315.912Z" fill="#263238" stroke="#263238" stroke-width="0.697613" stroke-linecap="round" stroke-linejoin="round"/>
<path d="M160.744 282.87C159.752 285.535 159.379 288.389 159.652 291.219C160.006 296.308 162.912 299.937 164.372 300.29C165.69 300.54 167.029 300.663 168.37 300.659C168.37 300.659 168.724 309.731 172.721 315.912C176.719 322.093 190.157 330.795 194.139 326.444C198.121 322.093 203.226 304.657 205.04 296.308C206.181 290.91 207.028 285.454 207.577 279.964L180.716 273.814L168.001 270.924L160.744 282.87Z" fill="white" stroke="#263238" stroke-width="0.697613" stroke-linecap="round" stroke-linejoin="round"/>
<path d="M176.35 279.303C176.35 279.303 177.81 284.023 174.904 286.991C171.999 289.958 170.907 289.897 170.907 289.897C170.907 289.897 171.629 294.617 170.538 294.617C170.058 294.625 169.581 294.537 169.136 294.356C168.691 294.176 168.287 293.908 167.948 293.567C167.609 293.227 167.342 292.822 167.164 292.376C166.985 291.93 166.899 291.453 166.909 290.973C166.816 289.026 166.188 287.143 165.095 285.53L160.744 282.993C159.689 277.707 159.81 272.253 161.097 267.018C163.281 258.67 178.887 255.395 191.971 255.764C205.055 256.133 208.299 272.83 208.299 272.83C211.067 274.084 213.739 275.538 216.294 277.181C217.386 278.273 218.478 280.81 212.297 284.085C206.116 287.36 195.23 288.436 188.696 285.899C184.367 284.125 180.23 281.915 176.35 279.303Z" fill="#263238" stroke="#263238" stroke-width="0.697613" stroke-linecap="round" stroke-linejoin="round"/>
<path d="M185.159 298.615C184.729 299.968 183.853 300.89 183.176 300.69C182.5 300.49 182.3 299.153 182.715 297.861C183.13 296.57 184.022 295.586 184.683 295.801C185.344 296.016 185.575 297.277 185.159 298.615Z" fill="#263238"/>
<path d="M200.258 299.783C199.843 301.136 198.951 302.059 198.29 301.843C197.629 301.628 197.399 300.306 197.814 299.03C198.229 297.754 199.121 296.754 199.797 296.954C200.474 297.154 200.673 298.43 200.258 299.783Z" fill="#263238"/>
<path d="M179.64 294.064C179.64 294.064 181.977 290.573 187.327 291.973" stroke="#263238" stroke-width="0.697613" stroke-linecap="round" stroke-linejoin="round"/>
<path d="M196.137 293.587C196.613 293.135 197.178 292.786 197.795 292.563C198.413 292.341 199.07 292.249 199.725 292.294C200.38 292.338 201.018 292.519 201.6 292.824C202.181 293.128 202.693 293.551 203.102 294.064" stroke="#263238" stroke-width="0.697613" stroke-linecap="round" stroke-linejoin="round"/>
<path d="M188.865 310.33C186.653 310.4 184.463 310.789 182.362 311.483C178.871 312.652 173.767 311.253 176.088 314.282C178.41 317.31 182.823 318.233 187.466 318.233C192.109 318.233 196.307 318.002 197.706 315.911C199.105 313.82 201.181 311.729 199.566 311.483C197.952 311.237 191.664 310.791 190.956 310.791C190.244 310.715 189.543 310.56 188.865 310.33Z" fill="#263238" stroke="#263238" stroke-width="0.697613" stroke-linecap="round" stroke-linejoin="round"/>
<path d="M195.015 296.846C195.015 296.846 194.554 309.623 194.093 311.96C194.018 312.58 193.757 313.162 193.344 313.629C192.931 314.097 192.385 314.428 191.779 314.578C191.174 314.728 190.537 314.69 189.953 314.47C189.369 314.25 188.867 313.857 188.511 313.344C187.035 311.402 185.786 309.297 184.791 307.071" fill="white"/>
<path d="M195.015 296.846C195.015 296.846 194.554 309.623 194.093 311.96C194.018 312.58 193.757 313.162 193.344 313.629C192.931 314.097 192.385 314.428 191.779 314.578C191.174 314.728 190.537 314.69 189.953 314.47C189.369 314.25 188.867 313.857 188.511 313.344C187.035 311.402 185.786 309.297 184.791 307.071" stroke="#263238" stroke-width="0.697613" stroke-linecap="round" stroke-linejoin="round"/>
<path d="M244.508 372.231C244.508 372.231 233.437 374.045 228.825 377.12C224.212 380.195 222.598 382.871 223.751 385.823C224.738 388.722 226.026 391.51 227.595 394.141C229.517 397.216 232.976 394.909 232.976 394.909C232.654 394.565 232.407 394.158 232.251 393.713C232.095 393.269 232.032 392.796 232.069 392.326C232.105 391.856 232.238 391.399 232.461 390.983C232.683 390.568 232.99 390.203 233.361 389.912C236.051 387.222 246.045 383.378 246.045 383.378H249.505C251.042 383.378 249.505 379.15 248.351 377.228C247.198 375.306 247.198 371.462 244.508 372.231Z" fill="white" stroke="#263238" stroke-width="0.697613" stroke-linecap="round" stroke-linejoin="round"/>
<path d="M114.203 390.681C114.203 390.681 114.203 401.828 114.972 412.975C115.74 424.122 124.966 455.257 124.966 455.257L134.191 452.951C134.191 452.951 133.806 423.738 133.806 414.513C133.806 405.288 133.422 394.141 133.422 394.141L114.203 390.681Z" fill="white" stroke="#263238" stroke-width="0.697613" stroke-linecap="round" stroke-linejoin="round"/>
<path d="M112.527 382.917C112.585 382.435 112.767 381.977 113.056 381.588C113.345 381.199 113.731 380.892 114.176 380.698C114.62 380.503 115.107 380.429 115.589 380.481C116.072 380.533 116.532 380.71 116.924 380.995C119.455 382.675 122.337 383.753 125.35 384.147C129.029 384.801 132.784 384.92 136.497 384.5C136.869 384.451 137.248 384.496 137.598 384.63C137.949 384.765 138.26 384.985 138.503 385.272C138.746 385.558 138.914 385.9 138.99 386.268C139.067 386.635 139.05 387.016 138.942 387.376C137.973 390.558 136.512 394.894 135.344 396.063C133.422 397.984 124.197 397.984 119.584 396.447C114.972 394.909 113.818 393.756 112.665 389.913C112.208 387.607 112.161 385.239 112.527 382.917Z" fill="white" stroke="#263238" stroke-width="0.697613" stroke-linecap="round" stroke-linejoin="round"/>
<path d="M291.787 420.663C292.662 417.868 294.252 415.351 296.399 413.36C299.859 410.284 301.396 409.516 297.937 409.131C294.477 408.747 290.249 414.128 290.249 414.128L291.787 420.663Z" fill="white" stroke="#263238" stroke-width="0.697613" stroke-linecap="round" stroke-linejoin="round"/>
<path d="M232.976 394.909C235.324 397.271 238.053 399.22 241.048 400.675C246.814 403.75 275.643 419.51 275.643 419.51L286.021 413.36C286.021 413.36 269.877 406.056 262.574 398.369C255.27 390.681 249.505 383.378 249.505 383.378C249.505 383.378 230.286 384.531 232.976 394.909Z" fill="white" stroke="#263238" stroke-width="0.697613" stroke-linecap="round" stroke-linejoin="round"/>
<path d="M270.646 415.282C270.646 415.282 272.183 423.354 274.874 423.738C277.565 424.122 290.634 422.969 291.787 420.663C292.94 418.357 293.709 410.285 291.787 409.9C289.865 409.516 270.646 415.282 270.646 415.282Z" fill="white" stroke="#263238" stroke-width="0.697613" stroke-linecap="round" stroke-linejoin="round"/>
<path d="M126.134 464.605C124.324 462.299 121.945 460.503 119.231 459.393C114.911 457.748 113.204 457.563 116.31 455.98C119.415 454.396 125.258 457.948 125.258 457.948L126.134 464.605Z" fill="white" stroke="#263238" stroke-width="0.697613" stroke-linecap="round" stroke-linejoin="round"/>
<path d="M144 452.105C144 452.105 145.415 460.192 143.032 461.499C140.648 462.806 128.025 466.342 126.119 464.574C124.212 462.806 120.645 455.534 122.321 454.504C123.997 453.473 144 452.105 144 452.105Z" fill="white" stroke="#263238" stroke-width="0.697613" stroke-linecap="round" stroke-linejoin="round"/>
<path d="M689.051 512.852C689.051 512.852 690.374 508.009 690.42 507.702C690.927 504.027 689.758 496.647 686.022 494.833C685.392 494.551 684.71 494.405 684.02 494.403C683.33 494.402 682.648 494.546 682.017 494.826C681.386 495.106 680.821 495.515 680.359 496.028C679.897 496.54 679.548 497.144 679.334 497.8C678.335 500.552 679.611 503.95 681.118 506.241C682.87 508.978 689.036 512.852 689.051 512.852Z" fill="#263238"/>
<path d="M615.388 511.253C618.371 512.56 625.644 512.391 625.659 512.391C625.675 512.391 624.122 507.625 623.952 507.333C622.415 503.996 617.31 498.476 613.19 499.03C612.51 499.141 611.861 499.394 611.286 499.772C610.71 500.151 610.221 500.646 609.849 501.227C609.478 501.807 609.233 502.459 609.13 503.14C609.028 503.821 609.07 504.516 609.254 505.18C609.93 508.024 612.852 510.146 615.388 511.253Z" fill="#263238"/>
<path d="M617.91 532.348C620.985 532.794 627.489 530.918 628.012 530.811C629.082 534.527 630.397 538.169 631.948 541.712C632.839 543.787 633.808 545.832 634.807 547.862L633.593 546.109C631.164 543.311 624.829 539.329 621.016 540.943C620.391 541.232 619.833 541.649 619.378 542.167C618.924 542.685 618.583 543.292 618.377 543.949C618.172 544.607 618.106 545.3 618.184 545.984C618.263 546.669 618.484 547.329 618.833 547.923C620.247 550.491 623.63 551.752 626.366 552.151C629.103 552.551 634.715 551.06 636.191 550.614L637.344 552.966C639.22 556.718 641.127 560.454 642.864 564.159C643.479 565.466 644.048 566.789 644.601 568.096C644.079 567.327 643.633 566.681 643.556 566.558C641.127 563.76 634.792 559.762 630.979 561.392C630.352 561.679 629.793 562.095 629.337 562.613C628.881 563.13 628.539 563.738 628.333 564.396C628.127 565.054 628.062 565.748 628.142 566.433C628.222 567.118 628.444 567.779 628.796 568.372C630.21 570.925 633.593 572.201 636.33 572.6C639.066 573 644.14 571.647 645.878 571.171C646.416 572.524 646.954 573.892 647.415 575.23C647.707 576.152 648.061 577.029 648.292 577.966C648.522 578.904 648.814 579.811 649.06 580.719C649.491 582.502 649.937 584.316 650.306 586.069C650.582 587.268 650.813 588.422 651.044 589.59C650.459 588.283 649.229 585.746 649.106 585.546C647.138 582.471 641.419 577.505 637.452 578.52C636.789 578.709 636.174 579.035 635.646 579.478C635.118 579.92 634.689 580.469 634.388 581.089C634.086 581.708 633.918 582.384 633.895 583.073C633.872 583.761 633.994 584.447 634.254 585.085C635.253 587.837 638.405 589.605 641.05 590.42C643.956 591.312 650.413 590.497 651.213 590.42C651.597 592.342 651.966 594.218 652.274 596.002C652.92 599.707 653.427 603.059 653.811 605.919H656.517C656.056 602.951 655.456 599.446 654.688 595.54C654.303 593.588 653.857 591.497 653.365 589.39C655.308 588.612 657.202 587.718 659.039 586.715C661.161 589.021 666.603 591.712 667.311 592.05C666.573 593.864 665.773 595.633 665.112 597.293C663.698 600.537 662.36 603.443 661.145 605.934H664.082C665.097 603.658 666.219 601.075 667.372 598.246C668.141 596.401 668.91 594.402 669.678 592.358C670.463 592.527 676.843 593.818 679.826 593.142C682.532 592.542 685.792 591.02 687.006 588.345C687.312 587.727 687.483 587.051 687.51 586.362C687.536 585.673 687.417 584.986 687.16 584.347C686.903 583.707 686.515 583.128 686.019 582.649C685.524 582.169 684.933 581.8 684.285 581.564C680.364 580.242 674.353 584.639 672.154 587.714C672.031 587.899 670.832 589.959 670.094 591.266C670.416 590.436 670.724 589.621 671.031 588.76C671.662 587.038 672.246 585.316 672.861 583.471L673.691 580.719C673.984 579.811 674.183 578.812 674.429 577.843C674.968 575.599 675.398 573.231 675.782 570.971C677.32 571.509 682.64 573.385 685.407 573.185C688.175 572.985 691.557 571.97 693.218 569.525C693.615 568.962 693.888 568.32 694.02 567.644C694.153 566.967 694.141 566.27 693.986 565.599C693.83 564.927 693.535 564.295 693.119 563.745C692.704 563.195 692.177 562.739 691.573 562.407C687.883 560.5 681.271 563.944 678.658 566.62C678.488 566.789 676.813 568.864 675.921 570.033C676.136 568.634 676.367 567.235 676.536 565.805C677.059 561.699 677.443 557.517 677.843 553.351C677.966 552.075 678.104 550.798 678.242 549.538C678.781 549.738 685.084 552.075 688.19 551.859C690.958 551.675 694.34 550.66 696.016 548.2C696.411 547.635 696.682 546.994 696.813 546.318C696.944 545.642 696.931 544.946 696.776 544.275C696.621 543.604 696.327 542.973 695.913 542.423C695.498 541.873 694.973 541.416 694.371 541.081C690.681 539.175 684.07 542.619 681.44 545.294C681.241 545.494 678.842 548.508 678.273 549.292C678.565 546.493 678.888 543.71 679.319 540.974C679.878 537.272 680.674 533.611 681.702 530.011C681.948 530.103 688.528 532.594 691.711 532.364C694.479 532.179 697.938 531.164 699.537 528.704C699.931 528.139 700.201 527.497 700.331 526.82C700.461 526.143 700.447 525.447 700.291 524.775C700.134 524.104 699.838 523.474 699.422 522.924C699.007 522.375 698.48 521.918 697.877 521.586C694.202 519.679 687.591 523.123 684.961 525.798C684.792 525.983 682.947 528.258 682.102 529.365L681.902 529.258C683.035 525.669 684.491 522.19 686.253 518.864C687.191 517.019 688.19 515.297 689.205 513.652C690.389 514.252 695.801 516.881 698.692 516.988C701.582 517.096 705.011 516.481 706.856 514.205C707.313 513.689 707.655 513.082 707.862 512.424C708.068 511.767 708.134 511.073 708.054 510.388C707.974 509.703 707.751 509.043 707.399 508.45C707.046 507.858 706.573 507.346 706.01 506.948C702.551 504.657 695.601 507.425 692.695 509.731C692.541 509.854 691.081 511.269 690.035 512.376C690.497 511.638 690.973 510.838 691.434 510.177C693.172 507.563 694.925 505.288 696.493 503.274C697.385 502.136 698.23 501.121 699.014 500.199C700.552 500.199 706.348 499.999 708.916 498.799C711.484 497.6 714.282 495.417 714.882 492.557C715.048 491.888 715.071 491.192 714.95 490.513C714.829 489.835 714.566 489.189 714.178 488.619C713.791 488.049 713.288 487.567 712.702 487.204C712.116 486.842 711.46 486.607 710.776 486.515C706.656 486.069 701.751 491.727 700.244 495.109C700.121 495.402 698.599 500.214 698.707 500.214H698.799C698.015 501.106 697.262 502.059 696.308 503.135C694.771 505.119 692.895 507.363 691.096 509.962C689.122 512.721 687.315 515.597 685.684 518.572C683.845 521.9 682.301 525.383 681.072 528.981C681.072 528.981 681.072 528.981 681.072 529.104C681.072 527.889 681.072 524.491 681.072 524.23C680.595 520.555 677.504 513.744 673.384 512.991C672.703 512.882 672.007 512.918 671.341 513.097C670.676 513.276 670.055 513.593 669.521 514.029C668.987 514.464 668.551 515.008 668.241 515.624C667.932 516.24 667.756 516.915 667.726 517.603C667.48 520.525 669.602 523.446 671.662 525.291C673.984 527.367 680.457 529.381 680.887 529.535C679.724 533.225 678.815 536.99 678.166 540.805C677.766 543.019 677.428 545.279 677.135 547.524C677.135 546.478 677.135 545.54 677.135 545.402C676.659 541.742 673.584 534.916 669.448 534.162C668.767 534.056 668.071 534.094 667.405 534.274C666.74 534.453 666.119 534.771 665.584 535.206C665.05 535.641 664.612 536.183 664.3 536.798C663.988 537.413 663.809 538.087 663.774 538.775C663.544 541.696 665.65 544.618 667.726 546.463C669.801 548.308 675.29 550.153 676.736 550.629L676.413 553.228C675.921 557.394 675.444 561.546 674.875 565.605C674.66 567.035 674.414 568.434 674.153 569.848C674.153 568.91 674.153 568.126 674.153 568.003C673.676 564.329 670.601 557.517 666.465 556.764C665.784 556.655 665.088 556.691 664.423 556.87C663.757 557.049 663.137 557.367 662.602 557.802C662.068 558.238 661.632 558.781 661.322 559.397C661.013 560.013 660.837 560.688 660.807 561.377C660.576 564.298 662.683 567.219 664.743 569.064C666.803 570.909 671.785 572.57 673.507 573.139C673.199 574.568 672.907 575.998 672.554 577.367C672.277 578.305 672.092 579.212 671.77 580.134L670.893 582.871C670.263 584.578 669.632 586.346 668.987 588.006C668.541 589.16 668.095 590.251 667.664 591.358C667.88 589.928 668.264 587.13 668.264 586.899C668.214 583.657 667.335 580.481 665.712 577.674C665.742 577.311 665.742 576.946 665.712 576.583C665.625 575.898 665.394 575.24 665.036 574.651C664.679 574.061 664.201 573.553 663.634 573.16C663.067 572.768 662.424 572.498 661.746 572.37C661.068 572.242 660.371 572.257 659.7 572.416C655.687 573.492 653.15 580.534 652.966 584.224C652.966 584.439 653.089 586.823 653.212 588.329C653.012 587.453 652.812 586.607 652.597 585.716C652.181 583.932 651.705 582.179 651.213 580.288L650.383 577.551C650.121 576.629 649.737 575.675 649.414 574.738C648.614 572.57 647.707 570.417 646.739 568.265C648.276 567.896 653.78 566.496 655.964 564.79C658.147 563.083 660.484 560.362 660.469 557.425C660.486 556.736 660.358 556.052 660.094 555.415C659.83 554.779 659.435 554.205 658.935 553.731C658.435 553.257 657.841 552.894 657.191 552.664C656.542 552.434 655.851 552.343 655.164 552.397C651.044 552.843 647.477 559.424 646.708 563.052C646.708 563.268 646.416 565.943 646.308 567.404C645.724 566.112 645.14 564.821 644.509 563.544C642.664 559.824 640.681 556.118 638.713 552.428C638.113 551.29 637.529 550.153 636.945 549.015C637.498 548.892 644.063 547.37 646.523 545.479C648.722 543.787 651.044 541.035 651.028 538.114C651.048 537.424 650.922 536.739 650.659 536.101C650.395 535.464 650 534.889 649.5 534.415C648.999 533.94 648.404 533.577 647.753 533.348C647.103 533.119 646.411 533.03 645.724 533.086C641.603 533.532 638.036 540.097 637.268 543.726C637.268 544.003 636.868 547.831 636.837 548.815C635.53 546.309 634.269 543.803 633.116 541.297C631.535 537.899 630.179 534.402 629.057 530.826C629.319 530.826 636.176 529.288 638.697 527.274C640.896 525.583 643.31 522.831 643.202 519.91C643.222 519.22 643.096 518.534 642.833 517.897C642.569 517.26 642.174 516.685 641.674 516.21C641.173 515.736 640.578 515.372 639.928 515.143C639.277 514.915 638.585 514.825 637.898 514.882C633.777 515.328 630.21 521.893 629.457 525.522C629.457 525.768 629.134 528.689 629.042 530.134H628.811C627.774 526.51 627.064 522.8 626.689 519.049C626.459 516.988 626.367 515.005 626.305 513.083C627.612 512.914 633.578 512.13 636.038 510.638C638.498 509.147 641.019 506.718 641.327 503.796C641.42 503.114 641.368 502.42 641.175 501.76C640.983 501.099 640.653 500.486 640.208 499.961C639.762 499.436 639.212 499.011 638.591 498.712C637.971 498.414 637.295 498.25 636.606 498.231C632.455 498.231 628.181 504.381 627.043 507.871C627.043 508.071 626.566 510.085 626.274 511.561C626.274 510.684 626.274 509.793 626.274 508.947C626.274 505.872 626.474 502.951 626.674 500.398C626.797 498.953 626.935 497.646 627.074 496.432C628.273 495.617 633.07 492.219 634.546 489.805C636.022 487.391 637.175 484.024 636.084 481.302C635.852 480.653 635.487 480.059 635.011 479.56C634.534 479.061 633.958 478.668 633.32 478.407C632.681 478.145 631.995 478.022 631.305 478.044C630.616 478.066 629.939 478.233 629.319 478.535C625.628 480.441 624.706 487.852 625.275 491.512C625.275 491.819 626.72 496.662 626.812 496.632C626.643 497.8 626.49 499.061 626.336 500.445C626.09 502.981 625.828 505.857 625.752 509.009C625.639 512.398 625.721 515.791 625.998 519.172C626.295 522.965 626.923 526.726 627.873 530.411V530.534C627.228 529.504 625.306 526.705 625.121 526.506C622.707 523.707 616.373 519.71 612.56 521.34C611.933 521.625 611.374 522.04 610.918 522.556C610.462 523.072 610.12 523.678 609.914 524.335C609.708 524.992 609.643 525.685 609.723 526.369C609.802 527.053 610.025 527.712 610.376 528.305C611.791 530.672 615.173 531.948 617.91 532.348Z" fill="#263238"/>
<path opacity="0.3" d="M615.388 511.253C618.371 512.56 625.644 512.391 625.659 512.391C625.675 512.391 624.122 507.625 623.952 507.333C622.415 503.996 617.31 498.476 613.19 499.03C612.51 499.141 611.861 499.394 611.286 499.772C610.71 500.151 610.221 500.646 609.849 501.227C609.478 501.807 609.233 502.459 609.13 503.14C609.028 503.821 609.07 504.516 609.254 505.18C609.93 508.024 612.852 510.146 615.388 511.253Z" fill="#263238"/>
<path opacity="0.3" d="M689.051 512.852C689.051 512.852 690.374 508.009 690.42 507.702C690.927 504.027 689.758 496.647 686.022 494.833C685.392 494.551 684.71 494.405 684.02 494.403C683.33 494.402 682.648 494.546 682.017 494.826C681.386 495.106 680.821 495.515 680.359 496.028C679.897 496.54 679.548 497.144 679.334 497.8C678.335 500.552 679.611 503.95 681.118 506.241C682.87 508.978 689.036 512.852 689.051 512.852Z" fill="#263238"/>
<path opacity="0.3" d="M617.91 532.348C620.985 532.794 627.489 530.918 628.012 530.811C629.082 534.527 630.397 538.169 631.948 541.712C632.839 543.787 633.808 545.832 634.807 547.862L633.593 546.109C631.164 543.311 624.829 539.329 621.016 540.943C620.391 541.232 619.833 541.649 619.378 542.167C618.924 542.685 618.583 543.292 618.377 543.949C618.172 544.607 618.106 545.3 618.184 545.984C618.263 546.669 618.484 547.329 618.833 547.923C620.247 550.491 623.63 551.752 626.366 552.151C629.103 552.551 634.715 551.06 636.191 550.614L637.344 552.966C639.22 556.718 641.127 560.454 642.864 564.159C643.479 565.466 644.048 566.789 644.601 568.096C644.079 567.327 643.633 566.681 643.556 566.558C641.127 563.76 634.792 559.762 630.979 561.392C630.352 561.679 629.793 562.095 629.337 562.613C628.881 563.13 628.539 563.738 628.333 564.396C628.127 565.054 628.062 565.748 628.142 566.433C628.222 567.118 628.444 567.779 628.796 568.372C630.21 570.925 633.593 572.201 636.33 572.6C639.066 573 644.14 571.647 645.878 571.171C646.416 572.524 646.954 573.892 647.415 575.23C647.707 576.152 648.061 577.029 648.292 577.966C648.522 578.904 648.814 579.811 649.06 580.719C649.491 582.502 649.937 584.316 650.306 586.069C650.582 587.268 650.813 588.422 651.044 589.59C650.459 588.283 649.229 585.746 649.106 585.546C647.138 582.471 641.419 577.505 637.452 578.52C636.789 578.709 636.174 579.035 635.646 579.478C635.118 579.92 634.689 580.469 634.388 581.089C634.086 581.708 633.918 582.384 633.895 583.073C633.872 583.761 633.994 584.447 634.254 585.085C635.253 587.837 638.405 589.605 641.05 590.42C643.956 591.312 650.413 590.497 651.213 590.42C651.597 592.342 651.966 594.218 652.274 596.002C652.92 599.707 653.427 603.059 653.811 605.919H656.517C656.056 602.951 655.456 599.446 654.688 595.54C654.303 593.588 653.857 591.497 653.365 589.39C655.308 588.612 657.202 587.718 659.039 586.715C661.161 589.021 666.603 591.712 667.311 592.05C666.573 593.864 665.773 595.633 665.112 597.293C663.698 600.537 662.36 603.443 661.145 605.934H664.082C665.097 603.658 666.219 601.075 667.372 598.246C668.141 596.401 668.91 594.402 669.678 592.358C670.463 592.527 676.843 593.818 679.826 593.142C682.532 592.542 685.792 591.02 687.006 588.345C687.312 587.727 687.483 587.051 687.51 586.362C687.536 585.673 687.417 584.986 687.16 584.347C686.903 583.707 686.515 583.128 686.019 582.649C685.524 582.169 684.933 581.8 684.285 581.564C680.364 580.242 674.353 584.639 672.154 587.714C672.031 587.899 670.832 589.959 670.094 591.266C670.416 590.436 670.724 589.621 671.031 588.76C671.662 587.038 672.246 585.316 672.861 583.471L673.691 580.719C673.984 579.811 674.183 578.812 674.429 577.843C674.968 575.599 675.398 573.231 675.782 570.971C677.32 571.509 682.64 573.385 685.407 573.185C688.175 572.985 691.557 571.97 693.218 569.525C693.615 568.962 693.888 568.32 694.02 567.644C694.153 566.967 694.141 566.27 693.986 565.599C693.83 564.927 693.535 564.295 693.119 563.745C692.704 563.195 692.177 562.739 691.573 562.407C687.883 560.5 681.271 563.944 678.658 566.62C678.488 566.789 676.813 568.864 675.921 570.033C676.136 568.634 676.367 567.235 676.536 565.805C677.059 561.699 677.443 557.517 677.843 553.351C677.966 552.075 678.104 550.798 678.242 549.538C678.781 549.738 685.084 552.075 688.19 551.859C690.958 551.675 694.34 550.66 696.016 548.2C696.411 547.635 696.682 546.994 696.813 546.318C696.944 545.642 696.931 544.946 696.776 544.275C696.621 543.604 696.327 542.973 695.913 542.423C695.498 541.873 694.973 541.416 694.371 541.081C690.681 539.175 684.07 542.619 681.44 545.294C681.241 545.494 678.842 548.508 678.273 549.292C678.565 546.493 678.888 543.71 679.319 540.974C679.878 537.272 680.674 533.611 681.702 530.011C681.948 530.103 688.528 532.594 691.711 532.364C694.479 532.179 697.938 531.164 699.537 528.704C699.931 528.139 700.201 527.497 700.331 526.82C700.461 526.143 700.447 525.447 700.291 524.775C700.134 524.104 699.838 523.474 699.422 522.924C699.007 522.375 698.48 521.918 697.877 521.586C694.202 519.679 687.591 523.123 684.961 525.798C684.792 525.983 682.947 528.258 682.102 529.365L681.902 529.258C683.035 525.669 684.491 522.19 686.253 518.864C687.191 517.019 688.19 515.297 689.205 513.652C690.389 514.252 695.801 516.881 698.692 516.988C701.582 517.096 705.011 516.481 706.856 514.205C707.313 513.689 707.655 513.082 707.862 512.424C708.068 511.767 708.134 511.073 708.054 510.388C707.974 509.703 707.751 509.043 707.399 508.45C707.046 507.858 706.573 507.346 706.01 506.948C702.551 504.657 695.601 507.425 692.695 509.731C692.541 509.854 691.081 511.269 690.035 512.376C690.497 511.638 690.973 510.838 691.434 510.177C693.172 507.563 694.925 505.288 696.493 503.274C697.385 502.136 698.23 501.121 699.014 500.199C700.552 500.199 706.348 499.999 708.916 498.799C711.484 497.6 714.282 495.417 714.882 492.557C715.048 491.888 715.071 491.192 714.95 490.513C714.829 489.835 714.566 489.189 714.178 488.619C713.791 488.049 713.288 487.567 712.702 487.204C712.116 486.842 711.46 486.607 710.776 486.515C706.656 486.069 701.751 491.727 700.244 495.109C700.121 495.402 698.599 500.214 698.707 500.214H698.799C698.015 501.106 697.262 502.059 696.308 503.135C694.771 505.119 692.895 507.363 691.096 509.962C689.122 512.721 687.315 515.597 685.684 518.572C683.845 521.9 682.301 525.383 681.072 528.981C681.072 528.981 681.072 528.981 681.072 529.104C681.072 527.889 681.072 524.491 681.072 524.23C680.595 520.555 677.504 513.744 673.384 512.991C672.703 512.882 672.007 512.918 671.341 513.097C670.676 513.276 670.055 513.593 669.521 514.029C668.987 514.464 668.551 515.008 668.241 515.624C667.932 516.24 667.756 516.915 667.726 517.603C667.48 520.525 669.602 523.446 671.662 525.291C673.984 527.367 680.457 529.381 680.887 529.535C679.724 533.225 678.815 536.99 678.166 540.805C677.766 543.019 677.428 545.279 677.135 547.524C677.135 546.478 677.135 545.54 677.135 545.402C676.659 541.742 673.584 534.916 669.448 534.162C668.767 534.056 668.071 534.094 667.405 534.274C666.74 534.453 666.119 534.771 665.584 535.206C665.05 535.641 664.612 536.183 664.3 536.798C663.988 537.413 663.809 538.087 663.774 538.775C663.544 541.696 665.65 544.618 667.726 546.463C669.801 548.308 675.29 550.153 676.736 550.629L676.413 553.228C675.921 557.394 675.444 561.546 674.875 565.605C674.66 567.035 674.414 568.434 674.153 569.848C674.153 568.91 674.153 568.126 674.153 568.003C673.676 564.329 670.601 557.517 666.465 556.764C665.784 556.655 665.088 556.691 664.423 556.87C663.757 557.049 663.137 557.367 662.602 557.802C662.068 558.238 661.632 558.781 661.322 559.397C661.013 560.013 660.837 560.688 660.807 561.377C660.576 564.298 662.683 567.219 664.743 569.064C666.803 570.909 671.785 572.57 673.507 573.139C673.199 574.568 672.907 575.998 672.554 577.367C672.277 578.305 672.092 579.212 671.77 580.134L670.893 582.871C670.263 584.578 669.632 586.346 668.987 588.006C668.541 589.16 668.095 590.251 667.664 591.358C667.88 589.928 668.264 587.13 668.264 586.899C668.214 583.657 667.335 580.481 665.712 577.674C665.742 577.311 665.742 576.946 665.712 576.583C665.625 575.898 665.394 575.24 665.036 574.651C664.679 574.061 664.201 573.553 663.634 573.16C663.067 572.768 662.424 572.498 661.746 572.37C661.068 572.242 660.371 572.257 659.7 572.416C655.687 573.492 653.15 580.534 652.966 584.224C652.966 584.439 653.089 586.823 653.212 588.329C653.012 587.453 652.812 586.607 652.597 585.716C652.181 583.932 651.705 582.179 651.213 580.288L650.383 577.551C650.121 576.629 649.737 575.675 649.414 574.738C648.614 572.57 647.707 570.417 646.739 568.265C648.276 567.896 653.78 566.496 655.964 564.79C658.147 563.083 660.484 560.362 660.469 557.425C660.486 556.736 660.358 556.052 660.094 555.415C659.83 554.779 659.435 554.205 658.935 553.731C658.435 553.257 657.841 552.894 657.191 552.664C656.542 552.434 655.851 552.343 655.164 552.397C651.044 552.843 647.477 559.424 646.708 563.052C646.708 563.268 646.416 565.943 646.308 567.404C645.724 566.112 645.14 564.821 644.509 563.544C642.664 559.824 640.681 556.118 638.713 552.428C638.113 551.29 637.529 550.153 636.945 549.015C637.498 548.892 644.063 547.37 646.523 545.479C648.722 543.787 651.044 541.035 651.028 538.114C651.048 537.424 650.922 536.739 650.659 536.101C650.395 535.464 650 534.889 649.5 534.415C648.999 533.94 648.404 533.577 647.753 533.348C647.103 533.119 646.411 533.03 645.724 533.086C641.603 533.532 638.036 540.097 637.268 543.726C637.268 544.003 636.868 547.831 636.837 548.815C635.53 546.309 634.269 543.803 633.116 541.297C631.535 537.899 630.179 534.402 629.057 530.826C629.319 530.826 636.176 529.288 638.697 527.274C640.896 525.583 643.31 522.831 643.202 519.91C643.222 519.22 643.096 518.534 642.833 517.897C642.569 517.26 642.174 516.685 641.674 516.21C641.173 515.736 640.578 515.372 639.928 515.143C639.277 514.915 638.585 514.825 637.898 514.882C633.777 515.328 630.21 521.893 629.457 525.522C629.457 525.768 629.134 528.689 629.042 530.134H628.811C627.774 526.51 627.064 522.8 626.689 519.049C626.459 516.988 626.367 515.005 626.305 513.083C627.612 512.914 633.578 512.13 636.038 510.638C638.498 509.147 641.019 506.718 641.327 503.796C641.42 503.114 641.368 502.42 641.175 501.76C640.983 501.099 640.653 500.486 640.208 499.961C639.762 499.436 639.212 499.011 638.591 498.712C637.971 498.414 637.295 498.25 636.606 498.231C632.455 498.231 628.181 504.381 627.043 507.871C627.043 508.071 626.566 510.085 626.274 511.561C626.274 510.684 626.274 509.793 626.274 508.947C626.274 505.872 626.474 502.951 626.674 500.398C626.797 498.953 626.935 497.646 627.074 496.432C628.273 495.617 633.07 492.219 634.546 489.805C636.022 487.391 637.175 484.024 636.084 481.302C635.852 480.653 635.487 480.059 635.011 479.56C634.534 479.061 633.958 478.668 633.32 478.407C632.681 478.145 631.995 478.022 631.305 478.044C630.616 478.066 629.939 478.233 629.319 478.535C625.628 480.441 624.706 487.852 625.275 491.512C625.275 491.819 626.72 496.662 626.812 496.632C626.643 497.8 626.49 499.061 626.336 500.445C626.09 502.981 625.828 505.857 625.752 509.009C625.639 512.398 625.721 515.791 625.998 519.172C626.295 522.965 626.923 526.726 627.873 530.411V530.534C627.228 529.504 625.306 526.705 625.121 526.506C622.707 523.707 616.373 519.71 612.56 521.34C611.933 521.625 611.374 522.04 610.918 522.556C610.462 523.072 610.12 523.678 609.914 524.335C609.708 524.992 609.643 525.685 609.723 526.369C609.802 527.053 610.025 527.712 610.376 528.305C611.791 530.672 615.173 531.948 617.91 532.348Z" fill="#263238"/>
<path d="M536.129 153.226L532.024 73.9209L463.851 110.96L465.388 117.11L491.172 130.271L369.847 368.049L-15.2102 472.754L-281.401 291.08C-283.76 289.47 -286.662 288.862 -289.469 289.391C-292.276 289.92 -294.758 291.543 -296.369 293.902C-297.98 296.261 -298.587 299.163 -298.058 301.97C-297.529 304.777 -295.907 307.259 -293.548 308.869L-23.3129 493.326C-21.5019 494.563 -19.3561 495.218 -17.1628 495.202C-16.2117 495.203 -15.2649 495.074 -14.3492 494.817L380.102 387.575C381.55 387.182 382.9 386.491 384.065 385.546C385.23 384.601 386.184 383.422 386.867 382.086L510.361 140.111L536.129 153.226Z" fill="#263238" stroke="#263238" stroke-width="0.697613" stroke-linecap="round" stroke-linejoin="round"/>
<path d="M534.592 147.076L530.487 67.771L463.85 110.96L489.635 124.121L368.309 361.899L-16.7478 466.604L-282.939 284.93C-285.298 283.32 -288.2 282.712 -291.007 283.241C-293.814 283.77 -296.296 285.393 -297.907 287.752C-299.517 290.111 -300.125 293.013 -299.596 295.82C-299.067 298.627 -297.444 301.109 -295.085 302.72L-24.8505 487.176C-23.0395 488.413 -20.8937 489.068 -18.7004 489.052C-17.7493 489.053 -16.8025 488.924 -15.8868 488.667L378.564 381.425C380.012 381.032 381.362 380.341 382.527 379.396C383.692 378.451 384.647 377.272 385.329 375.936L508.823 133.961L534.592 147.076Z" fill="#FB8500" stroke="#263238" stroke-width="0.697613" stroke-linecap="round" stroke-linejoin="round"/>
<path d="M523.506 81.5007L479.211 110.175L499.982 120.769L373.614 368.479L-18.1622 474.952L-287.228 291.28C-287.562 291.053 -287.938 290.893 -288.334 290.811C-288.729 290.729 -289.137 290.726 -289.534 290.802C-289.931 290.877 -290.31 291.03 -290.647 291.252C-290.985 291.474 -291.276 291.761 -291.503 292.095C-291.963 292.768 -292.138 293.596 -291.988 294.398C-291.838 295.199 -291.376 295.908 -290.703 296.369L-20.407 480.872C-19.8954 481.222 -19.2897 481.41 -18.6696 481.41C-18.3999 481.404 -18.1317 481.368 -17.8701 481.302L376.581 374.045C376.993 373.937 377.378 373.744 377.711 373.479C378.044 373.215 378.319 372.884 378.518 372.507L505.502 123.69L526.274 134.284L523.506 81.5007Z" fill="white"/>
<path d="M433.623 605.934H711.914" stroke="#263238" stroke-width="0.697613" stroke-linecap="round" stroke-linejoin="round"/>
<path d="M399.797 605.934H419.785" stroke="#263238" stroke-width="0.697613" stroke-linecap="round" stroke-linejoin="round"/>
<path d="M-102.972 605.934H382.885" stroke="#263238" stroke-width="0.697613" stroke-linecap="round" stroke-linejoin="round"/>
</svg>
