<svg width="546" height="616" viewBox="0 0 546 616" fill="none" xmlns="http://www.w3.org/2000/svg">
<path d="M1 575.791H545.64" stroke="#263238" stroke-width="0.424143" stroke-linecap="round" stroke-linejoin="round"/>
<path d="M331.647 294.187V89.7H344.308" stroke="#263238" stroke-width="0.424143" stroke-linecap="round" stroke-linejoin="round"/>
<path d="M331.648 318.521V313.101" stroke="#263238" stroke-width="0.424143" stroke-linecap="round" stroke-linejoin="round"/>
<path d="M376.87 89.7H507.519V337.588H331.647" stroke="#263238" stroke-width="0.424143" stroke-linecap="round" stroke-linejoin="round"/>
<path d="M360.86 89.7H372.339" stroke="#263238" stroke-width="0.424143" stroke-linecap="round" stroke-linejoin="round"/>
<path d="M500.904 96.3013H338.263V330.987H500.904V96.3013Z" stroke="#263238" stroke-width="0.424143" stroke-linecap="round" stroke-linejoin="round"/>
<path d="M493.344 108.865V206.327H345.823V199.962" stroke="#263238" stroke-width="0.424143" stroke-linecap="round" stroke-linejoin="round"/>
<path d="M345.823 185.064V103.222H493.344" stroke="#263238" stroke-width="0.424143" stroke-linecap="round" stroke-linejoin="round"/>
<path d="M345.823 195.084V188.9" stroke="#263238" stroke-width="0.424143" stroke-linecap="round" stroke-linejoin="round"/>
<path d="M468.426 213.637H500.904" stroke="#263238" stroke-width="0.424143" stroke-linecap="round" stroke-linejoin="round"/>
<path d="M456.877 213.637H461.477" stroke="#263238" stroke-width="0.424143" stroke-linecap="round" stroke-linejoin="round"/>
<path d="M338.263 213.637H451.402" stroke="#263238" stroke-width="0.424143" stroke-linecap="round" stroke-linejoin="round"/>
<path d="M411.405 206.327V202.964H425.01V204.868H419.59V206.327" stroke="#263238" stroke-width="0.424143" stroke-linecap="round" stroke-linejoin="round"/>
<path d="M338.541 301.413C338.541 301.413 340.806 303.123 342.39 313.463C342.39 313.463 345.17 296.952 348.422 296.702C351.674 296.452 351.062 307.431 351.062 307.431C351.062 307.431 351.618 302.025 354.203 302.275C356.788 302.525 354.203 313.393 354.203 313.393C354.203 313.393 357.316 304.86 360.262 305.055C363.208 305.249 358.317 320.508 358.317 320.508C358.317 320.508 365.877 315.033 368.934 317.729C371.992 320.425 367.239 327.151 367.239 327.151C367.239 327.151 378.079 324.803 379.746 331.168" stroke="#263238" stroke-width="0.424143" stroke-linecap="round" stroke-linejoin="round"/>
<path d="M379.76 325.039C379.76 325.039 384.486 321.94 388.21 323.385C388.21 323.385 385.848 319.786 388.21 317.59C390.573 315.394 393.602 323.385 393.602 323.385C393.602 323.385 393.95 309.974 398.675 310.655C403.4 311.336 398.675 323.385 398.675 323.385C398.675 323.385 407.111 315.908 409.14 318.507C411.169 321.106 407.75 325.039 407.75 325.039C409.275 324.606 410.887 324.577 412.426 324.954C413.966 325.332 415.381 326.103 416.533 327.193C416.533 327.193 422.189 321.426 428.471 320.592C428.471 320.592 424.302 308.459 426.317 306.013C428.332 303.567 432.029 316.603 432.029 316.603C432.029 316.603 433.641 308.126 438.977 307.459C438.977 307.459 434.572 305.068 435.878 301.441C437.185 297.814 443.258 302.303 443.258 302.303C443.258 302.303 440.756 295.924 444.717 294.173C448.678 292.422 450.276 299.509 450.276 299.509C450.276 299.509 451.388 292.088 456.03 292.561C460.671 293.033 459.17 301.511 459.17 301.511C459.17 301.511 463.548 294.729 465.897 295.41C470.58 296.799 469.163 307.528 469.163 307.528C469.163 307.528 475.694 302.984 477.39 305.082C479.085 307.181 470.58 313.157 470.58 313.157C470.58 313.157 477.07 313.865 481.114 317.659" stroke="#263238" stroke-width="0.424143" stroke-linecap="round" stroke-linejoin="round"/>
<path d="M500.904 303.915C500.904 303.915 500.154 297.105 493.344 296.744C486.534 296.383 495.22 311.684 495.22 311.684C495.22 311.684 489.592 307.028 487.577 308.459C485.562 309.891 493.344 317.785 493.344 317.785C493.344 317.785 489.606 314.324 485.673 315.394C481.74 316.464 487.91 327.429 487.91 327.429C482.092 326.264 476.053 326.974 470.664 329.458" stroke="#263238" stroke-width="0.424143" stroke-linecap="round" stroke-linejoin="round"/>
<path d="M268.72 514.948V575.429" stroke="#263238" stroke-width="0.424143" stroke-linecap="round" stroke-linejoin="round"/>
<path d="M268.72 495.158V508.11" stroke="#263238" stroke-width="0.424143" stroke-linecap="round" stroke-linejoin="round"/>
<path d="M14.1191 575.79V463.082H268.72V487.82" stroke="#263238" stroke-width="0.424143" stroke-linecap="round" stroke-linejoin="round"/>
<path d="M51.2114 475.409H29.1145V565.451" stroke="#263238" stroke-width="0.424143" stroke-linecap="round" stroke-linejoin="round"/>
<path d="M253.725 575.429V475.409H64.0387" stroke="#263238" stroke-width="0.424143" stroke-linecap="round" stroke-linejoin="round"/>
<path d="M243.135 451.408H236.117" stroke="#263238" stroke-width="0.424143" stroke-linecap="round" stroke-linejoin="round"/>
<path d="M226.041 451.408H7.79578V462.999H275.043V451.408H247.61" stroke="#263238" stroke-width="0.424143" stroke-linecap="round" stroke-linejoin="round"/>
<path d="M22.8468 377.141C22.8468 377.141 43.693 378.794 44.638 394.221C44.638 394.221 23.4444 403.977 22.8468 377.141Z" stroke="#263238" stroke-width="0.424143" stroke-linecap="round" stroke-linejoin="round"/>
<path d="M64.2194 380.976C64.2194 380.976 75.9071 365.175 94.7937 373.277C94.7937 373.277 83.2588 392.372 64.2194 380.976Z" stroke="#263238" stroke-width="0.424143" stroke-linecap="round" stroke-linejoin="round"/>
<path d="M93.1955 331.084C93.1955 331.084 96.5587 361.478 68.8889 353.112C68.8889 353.112 77.6721 330.765 93.1955 331.084Z" stroke="#263238" stroke-width="0.424143" stroke-linecap="round" stroke-linejoin="round"/>
<path d="M59.2162 314.157C59.2162 314.157 81.1047 325.97 65.0115 343.87C65.0115 343.87 49.6687 331.085 59.2162 314.157Z" stroke="#263238" stroke-width="0.424143" stroke-linecap="round" stroke-linejoin="round"/>
<path d="M32.297 341.327C32.297 341.327 56.0894 338.936 56.0894 360.95C56.0894 360.95 32.297 361.895 32.297 341.327Z" stroke="#263238" stroke-width="0.424143" stroke-linecap="round" stroke-linejoin="round"/>
<path d="M50.1273 406.659C49.7799 399.265 49.7799 389.759 54.2965 379.712C64.7057 356.531 68.194 337.005 62.7879 323.246" stroke="#263238" stroke-width="0.424143" stroke-linecap="round" stroke-linejoin="round"/>
<path d="M40.1073 347.275C40.1073 347.275 54.3661 352.945 59.2163 367.635" stroke="#263238" stroke-width="0.424143" stroke-linecap="round" stroke-linejoin="round"/>
<path d="M85.7049 343.245C85.7049 343.245 77.4637 354.474 63.469 353.265" stroke="#263238" stroke-width="0.424143" stroke-linecap="round" stroke-linejoin="round"/>
<path d="M85.7048 376.46C85.7048 376.46 62.8713 383.033 53.7407 380.879" stroke="#263238" stroke-width="0.424143" stroke-linecap="round" stroke-linejoin="round"/>
<path d="M29.6565 384.089C29.6565 384.089 39.8711 395.291 50.1274 395.11" stroke="#263238" stroke-width="0.424143" stroke-linecap="round" stroke-linejoin="round"/>
<path d="M77.2691 406.659H27.6692C27.3485 406.659 27.041 406.786 26.8142 407.013C26.5875 407.24 26.4601 407.547 26.4601 407.868V411.634C26.4601 411.792 26.4914 411.949 26.5524 412.095C26.6133 412.241 26.7026 412.373 26.815 412.484C26.9275 412.595 27.0609 412.683 27.2075 412.742C27.3541 412.801 27.511 412.831 27.6692 412.829H29.0589L33.4783 451.408H71.3905L75.8099 412.829H77.2691C77.4266 412.831 77.5828 412.801 77.7287 412.742C77.8745 412.683 78.007 412.595 78.1184 412.483C78.2297 412.372 78.3177 412.239 78.3771 412.094C78.4365 411.948 78.4661 411.791 78.4643 411.634V407.868C78.4661 407.71 78.4366 407.553 78.3773 407.406C78.3181 407.259 78.2303 407.126 78.1192 407.014C78.008 406.901 77.8756 406.812 77.7297 406.751C77.5838 406.69 77.4272 406.659 77.2691 406.659V406.659Z" stroke="#263238" stroke-width="0.424143" stroke-miterlimit="10"/>
<path d="M32.297 412.829H61.1481" stroke="#263238" stroke-width="0.424143" stroke-linecap="round" stroke-linejoin="round"/>
<path d="M66.5819 412.829H70.9179" stroke="#263238" stroke-width="0.424143" stroke-linecap="round" stroke-linejoin="round"/>
<path d="M382.707 252.898L377.148 283.111L331.814 310.655L338.082 322.162C338.082 322.162 390.489 306.18 391.768 302.442C393.047 298.704 405.123 259.11 405.123 259.11L382.707 252.898Z" fill="#263238"/>
<path d="M402.566 201.811L399.537 238.444L397.938 257.665C389.197 261.917 380.65 255.524 380.122 255.107C382.498 248.131 385.264 208.76 402.566 201.811Z" fill="#999999" stroke="#263238" stroke-width="0.424143" stroke-linecap="round" stroke-linejoin="round"/>
<path d="M399.481 238.444L397.883 257.665C389.141 261.917 380.594 255.524 380.066 255.107C380.441 255.274 385.041 257.22 388.029 255.107C386.984 253.979 386.053 252.75 385.25 251.439C385.069 250.716 388.029 250.521 388.029 250.521C388.029 250.521 386.084 234.942 391.267 228.285C393.297 225.756 396.465 231.037 399.481 238.444Z" fill="#263238"/>
<path d="M433.961 541.061L435.35 545.147C433.244 548.623 430.884 551.94 428.29 555.07C428.29 555.07 426.901 554.625 424.621 556.64C423.217 558.04 422.351 559.89 422.176 561.865C422.176 561.865 411.558 574.595 398.091 574.776C384.625 574.957 388.683 568.175 388.683 568.175L433.961 541.061Z" fill="#FB8500" stroke="#263238" stroke-width="0.424143" stroke-linecap="round" stroke-linejoin="round"/>
<path d="M421.3 508.666C421.3 508.666 403.233 502.009 399.703 515.323C399.703 515.323 402.928 529.985 400.996 538.003C399.064 546.022 389.336 561.337 388.738 564.242C387.557 569.94 388.446 570.329 388.446 570.329C388.446 570.329 395.52 574.415 405.026 570.037C414.532 565.659 430.986 546.814 433.558 542.937C436.129 539.06 425.497 523.772 425.497 523.772L421.3 508.666Z" fill="white"/>
<path opacity="0.4" d="M421.3 508.666C421.3 508.666 403.233 502.009 399.703 515.323C399.703 515.323 402.928 529.985 400.996 538.003C399.064 546.022 389.336 561.337 388.738 564.242C387.557 569.94 388.446 570.329 388.446 570.329C388.446 570.329 395.52 574.415 405.026 570.037C414.532 565.659 430.986 546.814 433.558 542.937C436.129 539.06 425.497 523.772 425.497 523.772L421.3 508.666Z" fill="#FB8500"/>
<path d="M421.3 508.666C421.3 508.666 403.233 502.009 399.703 515.323C399.703 515.323 402.928 529.985 400.996 538.003C399.064 546.022 389.336 561.337 388.738 564.242C387.557 569.94 388.446 570.329 388.446 570.329C388.446 570.329 395.52 574.415 405.026 570.037C414.532 565.659 430.986 546.814 433.558 542.937C436.129 539.06 425.497 523.772 425.497 523.772L421.3 508.666Z" stroke="#263238" stroke-width="0.424143" stroke-linecap="round" stroke-linejoin="round"/>
<path d="M412.058 527.497C413.631 536.466 412.034 545.703 407.542 553.624" stroke="#263238" stroke-width="0.424143" stroke-linecap="round" stroke-linejoin="round"/>
<path d="M407.542 557.126C406.869 558.819 405.826 560.339 404.489 561.575C403.152 562.811 401.555 563.732 399.815 564.27C396.173 565.245 392.339 565.245 388.697 564.27L393.033 555.487C397.636 557.32 402.646 557.887 407.542 557.126Z" fill="#FB8500" stroke="#263238" stroke-width="0.424143" stroke-linecap="round" stroke-linejoin="round"/>
<path d="M410.099 551.804C410.099 551.804 400.648 552.373 395.715 550.414" stroke="#263238" stroke-width="0.424143" stroke-linecap="round" stroke-linejoin="round"/>
<path d="M411.85 546.592C411.85 546.592 403.011 547.982 398.077 545.202" stroke="#263238" stroke-width="0.424143" stroke-linecap="round" stroke-linejoin="round"/>
<path d="M413.351 540.797C413.351 540.797 405.61 541.923 400.551 539.532" stroke="#263238" stroke-width="0.424143" stroke-linecap="round" stroke-linejoin="round"/>
<path d="M414.212 534.237C414.212 534.237 405.596 536.933 401.524 534.237" stroke="#263238" stroke-width="0.424143" stroke-linecap="round" stroke-linejoin="round"/>
<path d="M415.505 518.033L417.006 527.497C417.006 527.497 405.61 535.002 398.077 525.621V515.74C398.077 515.74 400.912 522.383 415.505 518.033Z" fill="#FB8500" stroke="#263238" stroke-width="0.424143" stroke-linecap="round" stroke-linejoin="round"/>
<path d="M405.61 305.583C394.061 342.175 358.22 400.864 361.847 415.887C363.834 424.086 375.661 470.545 384.917 490.933C388.433 498.729 396.035 503.941 396.035 503.941L401.524 515.712C414.907 521.535 419.702 509.694 419.702 509.694L417.006 496.353C424.177 483.317 421.175 483.317 411.85 415.748C410.752 407.784 429.222 383.172 429.222 383.172L438.7 445.099L440.242 495.825L445.162 511.501C445.162 511.501 446.385 526.218 446.274 527.108H468.273L470.664 510.931C470.664 510.931 480.878 501.3 480.878 490.182C480.878 479.064 478.683 422.432 480.878 405.936C483.074 389.44 475.736 312.531 475.736 312.531L405.61 305.583Z" fill="#263238"/>
<path d="M256.054 272.978L286.628 275.73C287.321 275.792 287.961 276.127 288.407 276.662C288.853 277.196 289.068 277.885 289.006 278.578L287.042 300.397L251.243 297.175L253.206 275.356C253.269 274.663 253.604 274.023 254.138 273.577C254.672 273.131 255.361 272.916 256.054 272.978Z" fill="#FB8500"/>
<path opacity="0.3" d="M256.054 272.978L286.628 275.73C287.321 275.792 287.961 276.127 288.407 276.662C288.853 277.196 289.068 277.885 289.006 278.578L287.042 300.397L251.242 297.175L253.206 275.356C253.268 274.663 253.603 274.023 254.138 273.577C254.672 273.131 255.361 272.916 256.054 272.978Z" fill="black" fill-opacity="0.7"/>
<path opacity="0.3" d="M287.109 275.351L278.344 274.598L276.838 292.128L285.603 292.881L287.109 275.351Z" fill="white" fill-opacity="0.7"/>
<path d="M256.054 272.978L286.628 275.73C287.321 275.792 287.961 276.127 288.407 276.662C288.853 277.196 289.068 277.885 289.006 278.578L287.042 300.397L251.243 297.175L253.206 275.356C253.269 274.663 253.604 274.023 254.138 273.577C254.672 273.131 255.361 272.916 256.054 272.978V272.978Z" stroke="#263238" stroke-width="0.425857" stroke-linecap="round" stroke-linejoin="round"/>
<path d="M308.827 274.91L339.289 277.527C339.979 277.586 340.618 277.917 341.064 278.447C341.51 278.977 341.728 279.663 341.668 280.354L339.801 302.092L304.133 299.028L306 277.289C306.059 276.599 306.39 275.96 306.921 275.514C307.451 275.068 308.136 274.851 308.827 274.91Z" fill="#FB8500"/>
<path opacity="0.3" d="M308.827 274.91L339.289 277.527C339.979 277.586 340.618 277.917 341.064 278.448C341.51 278.978 341.727 279.663 341.668 280.354L339.801 302.093L304.132 299.029L306 277.29C306.059 276.599 306.39 275.961 306.92 275.514C307.45 275.068 308.136 274.851 308.827 274.91Z" fill="black" fill-opacity="0.7"/>
<path opacity="0.3" d="M339.123 279.829L333.834 279.375L332.328 296.904L337.617 297.358L339.123 279.829Z" fill="white" fill-opacity="0.7"/>
<path d="M308.827 274.91L339.289 277.527C339.979 277.586 340.618 277.917 341.064 278.447C341.51 278.977 341.728 279.663 341.668 280.354L339.801 302.092L304.133 299.028L306 277.289C306.059 276.599 306.39 275.96 306.921 275.514C307.451 275.068 308.136 274.851 308.827 274.91Z" stroke="#263238" stroke-width="0.424143" stroke-linecap="round" stroke-linejoin="round"/>
<path d="M297.762 273.952L328.224 276.569C328.915 276.628 329.553 276.959 329.999 277.489C330.446 278.019 330.663 278.705 330.604 279.395L328.736 301.134L293.068 298.07L294.935 276.331C294.995 275.641 295.326 275.002 295.856 274.556C296.386 274.11 297.072 273.892 297.762 273.952Z" fill="#FB8500" stroke="#263238" stroke-width="0.424143" stroke-linecap="round" stroke-linejoin="round"/>
<path d="M350.367 278.48L380.829 281.097C381.519 281.156 382.158 281.487 382.604 282.017C383.05 282.548 383.268 283.233 383.208 283.924L381.342 305.649L345.674 302.585L347.541 280.846C347.604 280.158 347.936 279.523 348.466 279.08C348.995 278.637 349.679 278.421 350.367 278.48Z" fill="#FB8500" stroke="#263238" stroke-width="0.424143" stroke-linecap="round" stroke-linejoin="round"/>
<path opacity="0.3" d="M328.649 278.922L319.884 278.169L318.378 295.698L327.143 296.451L328.649 278.922Z" fill="white" fill-opacity="0.7"/>
<path opacity="0.3" d="M380.677 283.386L371.912 282.634L370.406 300.163L379.171 300.916L380.677 283.386Z" fill="white" fill-opacity="0.7"/>
<path d="M397.271 301.956L388.669 401.92L227.612 388.022L236.214 288.072C236.284 287.245 236.517 286.44 236.898 285.702C237.28 284.965 237.804 284.311 238.439 283.776C239.074 283.242 239.808 282.838 240.6 282.588C241.391 282.338 242.225 282.246 243.052 282.318L391.504 295.076C392.336 295.144 393.147 295.377 393.888 295.761C394.63 296.144 395.288 296.671 395.825 297.311C396.361 297.951 396.765 298.691 397.014 299.488C397.262 300.286 397.35 301.124 397.271 301.956Z" fill="#FB8500"/>
<path opacity="0.3" d="M397.271 301.956L388.669 401.92L227.612 388.022L236.214 288.072C236.284 287.245 236.517 286.44 236.898 285.702C237.28 284.965 237.804 284.311 238.439 283.776C239.074 283.242 239.808 282.838 240.6 282.588C241.391 282.338 242.225 282.246 243.052 282.318L391.504 295.076C392.336 295.144 393.147 295.377 393.888 295.761C394.63 296.144 395.288 296.671 395.825 297.311C396.361 297.951 396.765 298.691 397.014 299.488C397.262 300.286 397.35 301.124 397.271 301.956Z" fill="black" fill-opacity="0.7"/>
<path d="M397.271 301.956L388.669 401.92L227.612 388.022L236.214 288.072C236.284 287.245 236.517 286.44 236.898 285.702C237.28 284.965 237.804 284.311 238.439 283.776C239.074 283.242 239.808 282.838 240.6 282.588C241.391 282.338 242.225 282.246 243.052 282.318L391.504 295.076C392.336 295.144 393.147 295.377 393.888 295.761C394.63 296.144 395.288 296.671 395.825 297.311C396.361 297.951 396.765 298.691 397.014 299.488C397.262 300.286 397.35 301.124 397.271 301.956V301.956Z" stroke="#263238" stroke-width="0.424143" stroke-linecap="round" stroke-linejoin="round"/>
<path d="M397.272 301.956L388.669 401.92L269.151 391.636L277.768 291.685C277.838 290.858 278.07 290.053 278.452 289.316C278.834 288.579 279.357 287.924 279.992 287.389C280.627 286.855 281.362 286.451 282.153 286.201C282.945 285.951 283.778 285.859 284.605 285.932L391.518 295.118C392.345 295.188 393.15 295.42 393.888 295.802C394.625 296.184 395.279 296.707 395.814 297.343C396.348 297.978 396.752 298.712 397.002 299.504C397.253 300.295 397.344 301.129 397.272 301.956Z" fill="#FB8500" stroke="#263238" stroke-width="0.424143" stroke-linecap="round" stroke-linejoin="round"/>
<path opacity="0.3" d="M388.877 304.818L286.717 296.035C286.036 295.975 285.406 295.65 284.962 295.131C284.518 294.611 284.295 293.938 284.341 293.256C284.401 292.575 284.726 291.944 285.246 291.5C285.765 291.056 286.438 290.833 287.12 290.879L389.28 299.662C389.962 299.723 390.592 300.048 391.036 300.567C391.48 301.087 391.703 301.76 391.657 302.442C391.597 303.123 391.272 303.753 390.752 304.198C390.233 304.642 389.56 304.865 388.877 304.818Z" fill="white" fill-opacity="0.7"/>
<path d="M468.996 527.678C468.996 527.678 461.297 522.188 445.37 523.286C445.37 523.286 444.203 542.395 442.035 547.954C439.867 553.513 428.443 563.144 426.317 564.798C424.191 566.452 424.191 572.219 424.191 572.219H472.582C471.961 563.948 470.673 555.74 468.732 547.676L468.996 527.678Z" fill="white"/>
<path opacity="0.4" d="M468.996 527.678C468.996 527.678 461.297 522.188 445.37 523.286C445.37 523.286 444.203 542.395 442.035 547.954C439.867 553.513 428.443 563.144 426.317 564.798C424.191 566.452 424.191 572.219 424.191 572.219H472.582C471.961 563.948 470.673 555.74 468.732 547.676L468.996 527.678Z" fill="#FB8500"/>
<path d="M468.996 527.678C468.996 527.678 461.297 522.188 445.37 523.286C445.37 523.286 444.203 542.395 442.035 547.954C439.867 553.513 428.443 563.144 426.317 564.798C424.191 566.452 424.191 572.219 424.191 572.219H472.582C471.961 563.948 470.673 555.74 468.732 547.676L468.996 527.678Z" stroke="#263238" stroke-width="0.424143" stroke-linecap="round" stroke-linejoin="round"/>
<path d="M459.004 530.151C459.004 530.151 457.864 547.746 455.126 552.387C453.664 554.938 451.859 557.276 449.762 559.336" stroke="#263238" stroke-width="0.424143" stroke-linecap="round" stroke-linejoin="round"/>
<path d="M448.428 561.768C448.428 561.768 445.996 564.798 443.3 565.201C440.604 565.604 426.359 564.798 426.359 564.798L432.168 559.767C432.168 559.767 443.981 557.779 448.428 561.768Z" fill="#FB8500" stroke="#263238" stroke-width="0.424143" stroke-linecap="round" stroke-linejoin="round"/>
<path d="M453.459 557.641C453.459 557.641 443.147 551.72 435.795 556.251" stroke="#263238" stroke-width="0.424143" stroke-linecap="round" stroke-linejoin="round"/>
<path d="M455.946 553.624C455.946 553.624 448.747 547.996 440.256 551.081" stroke="#263238" stroke-width="0.424143" stroke-linecap="round" stroke-linejoin="round"/>
<path d="M459.004 547.495C459.004 547.495 451.249 541.464 443.077 545.3" stroke="#263238" stroke-width="0.424143" stroke-linecap="round" stroke-linejoin="round"/>
<path d="M460.06 539.838C460.06 539.838 450.652 534.779 443.814 538.615" stroke="#263238" stroke-width="0.424143" stroke-linecap="round" stroke-linejoin="round"/>
<path d="M472.568 572.219V575.791H467.009C467.009 575.791 462.242 573.011 457.711 575.791H431.612C428.854 575.781 426.131 575.17 423.635 573.998L424.177 572.219H472.568Z" fill="#FB8500" stroke="#263238" stroke-width="0.424143" stroke-linecap="round" stroke-linejoin="round"/>
<path d="M465.633 526.552L464.396 534.349C464.396 534.349 449.873 529.637 441.854 532.695V523.105C441.854 523.105 456.766 517.88 465.633 526.552Z" fill="#FB8500" stroke="#263238" stroke-width="0.424143" stroke-linecap="round" stroke-linejoin="round"/>
<path d="M481.337 332.308C481.337 332.308 450.471 338.353 420.188 328.541C413.293 326.344 406.697 323.301 400.551 319.48C400.551 319.48 400.635 317.535 400.69 314.352C400.94 301.928 400.871 270.673 394.325 262.932C390.156 258.054 386.89 227.896 394.937 212.651L419.549 192.861C453.626 199.518 460.824 208.537 466.453 227.994C467.495 231.551 468.468 235.456 469.552 239.765C470.733 244.462 471.845 250.202 472.901 256.442C478.016 287.516 481.337 332.308 481.337 332.308Z" fill="#999999"/>
<path opacity="0.2" d="M472.901 256.441L459.004 318.521C459.004 318.521 438.922 324.08 420.202 328.541C413.302 326.345 406.702 323.301 400.551 319.48C400.551 319.48 400.635 317.535 400.69 314.352C417.506 305.749 442.049 293.103 441.854 292.505C441.535 291.574 441.854 259.151 441.854 259.151C441.854 259.151 464.09 253.995 466.453 227.952C467.495 231.509 468.468 235.415 469.552 239.723C470.733 244.434 471.845 250.132 472.901 256.441Z" fill="black"/>
<path d="M481.337 332.308C481.337 332.308 450.471 338.353 420.188 328.541C413.293 326.344 406.697 323.301 400.551 319.48C400.551 319.48 400.635 317.535 400.69 314.352C400.94 301.928 400.871 270.673 394.325 262.932C390.156 258.054 386.89 227.896 394.937 212.651L419.549 192.861C453.626 199.518 460.824 208.537 466.453 227.994C467.495 231.551 468.468 235.456 469.552 239.765C470.733 244.462 471.845 250.202 472.901 256.442C478.016 287.516 481.337 332.308 481.337 332.308Z" stroke="#263238" stroke-width="0.424143" stroke-linecap="round" stroke-linejoin="round"/>
<path d="M420.633 166.886C420.633 166.886 409.765 182.452 424.218 194.598C424.218 194.598 406.68 214.277 400.912 211.567C398.48 210.427 400.912 203.326 400.912 203.326L390.74 184.508L420.633 166.886Z" fill="white" stroke="#263238" stroke-width="0.424143" stroke-linecap="round" stroke-linejoin="round"/>
<path d="M417.089 174.947C420.48 160.118 418.854 138.035 398.077 139.995C383.513 141.385 373.132 149.445 377.231 168.985C378.941 177.226 380.344 188.9 387.905 199.434C390.003 202.353 411.961 192.027 410.627 183.674" fill="white"/>
<path d="M417.089 174.947C420.48 160.118 418.854 138.035 398.077 139.995C383.513 141.385 373.132 149.445 377.231 168.985C378.941 177.226 380.344 188.9 387.905 199.434C390.003 202.353 411.961 192.027 410.627 183.674" stroke="#263238" stroke-width="0.424143" stroke-linecap="round" stroke-linejoin="round"/>
<path d="M387.363 165.677C388.828 165.11 390.405 164.894 391.969 165.046C393.533 165.198 395.04 165.714 396.368 166.553" stroke="#263238" stroke-width="0.424143" stroke-linecap="round" stroke-linejoin="round"/>
<path d="M376.912 167.498C377.179 166.929 377.642 166.475 378.216 166.22C378.79 165.965 379.437 165.925 380.039 166.108" stroke="#263238" stroke-width="0.424143" stroke-linecap="round" stroke-linejoin="round"/>
<path d="M382.109 170.583C382.109 170.583 377.829 178.38 377.815 179.492C377.801 180.603 383.082 180.979 383.082 180.979" fill="white"/>
<path d="M382.109 170.583C382.109 170.583 377.829 178.38 377.815 179.492C377.801 180.603 383.082 180.979 383.082 180.979" stroke="#263238" stroke-width="0.424143" stroke-linecap="round" stroke-linejoin="round"/>
<path d="M391.31 172.168C391.31 173.015 390.934 173.71 390.406 173.738C389.878 173.766 389.433 173.071 389.406 172.223C389.378 171.375 389.781 170.681 390.309 170.667C390.837 170.653 391.282 171.348 391.31 172.168Z" fill="#263238"/>
<path d="M385.264 186.649C385.264 186.649 393.477 185.106 394.992 182.216" stroke="#263238" stroke-width="0.424143" stroke-linecap="round" stroke-linejoin="round"/>
<path d="M376.856 155.491L383.249 153.628C383.249 153.628 392.213 149.459 394.117 150.043C396.021 150.627 399.884 156.561 399.759 159.952C399.759 159.952 405.79 165.261 406.555 172.96L408.389 172.126C408.389 172.126 408.292 165.177 412.239 165.358C416.186 165.538 417.965 170.264 417.701 171.751C417.436 173.238 413.114 179.408 413.114 179.408C413.114 179.408 423.009 177.935 423.329 158.562C423.649 139.189 402.413 136.034 392.088 136.826C386.859 137.327 381.607 137.522 376.356 137.41L376.939 142.969L372.77 144.067L375.911 147.917L372.464 149.487L376.856 155.491Z" fill="#263238"/>
<path d="M412.656 366.731C412.656 366.731 437.81 373.388 444.62 392.122" stroke="white" stroke-width="0.424143" stroke-linecap="round" stroke-linejoin="round"/>
<path d="M424.177 376.807C424.177 376.807 410.585 399.446 389.781 411.203" stroke="white" stroke-width="0.424143" stroke-linecap="round" stroke-linejoin="round"/>
<path d="M405.068 504.122C405.068 504.122 412.795 502.384 414.907 499.383" stroke="white" stroke-width="0.424143" stroke-linecap="round" stroke-linejoin="round"/>
<path d="M448.094 506.998C448.094 506.998 455.654 503.079 463.187 506.998" stroke="white" stroke-width="0.424143" stroke-linecap="round" stroke-linejoin="round"/>
<path d="M472.568 401.6C472.568 401.6 459.879 434.468 453.459 437.511" stroke="white" stroke-width="0.424143" stroke-linecap="round" stroke-linejoin="round"/>
<path d="M417.006 350.124C417.353 353.696 432.293 370.248 444.62 376.807" stroke="white" stroke-width="0.424143" stroke-linecap="round" stroke-linejoin="round"/>
<path d="M429.75 336.157C431.548 340.589 431.922 345.47 430.82 350.124C429.621 354.141 429.621 358.42 430.82 362.437" stroke="white" stroke-width="0.424143" stroke-linecap="round" stroke-linejoin="round"/>
<path d="M402.566 267.81C402.566 267.81 425.956 298.078 451.096 308.015" stroke="#263238" stroke-width="0.424143" stroke-linecap="round" stroke-linejoin="round"/>
<path d="M426.776 218.877C426.776 218.877 426.692 239.459 441.535 248.742" stroke="#263238" stroke-width="0.424143" stroke-linecap="round" stroke-linejoin="round"/>
<path d="M435.128 248.909C431.987 251.994 435.406 290.712 435.406 290.712C435.406 290.712 417.159 297.856 411.447 302.456C405.735 307.056 378.677 317.618 378.677 317.618C378.677 317.618 374.507 331.821 379.705 332.307C384.903 332.794 438.727 314.449 451.041 308.015C451.041 308.015 459.059 260.763 459.004 248.742" fill="white"/>
<path d="M435.128 248.909C431.987 251.994 435.406 290.712 435.406 290.712C435.406 290.712 417.159 297.856 411.447 302.456C405.735 307.056 378.677 317.618 378.677 317.618C378.677 317.618 374.507 331.821 379.705 332.307C384.903 332.794 438.727 314.449 451.041 308.015C451.041 308.015 459.059 260.763 459.004 248.742" stroke="#263238" stroke-width="0.424143" stroke-linecap="round" stroke-linejoin="round"/>
<path d="M380.817 316.77C378.315 316.298 373.868 314.658 371.533 315.2C369.198 315.742 364.932 318.313 360.54 319.369C356.149 320.425 357.969 322.149 360.54 322.663C362.422 322.976 364.343 322.976 366.224 322.663L362.653 326.151C360.608 327.258 358.496 328.237 356.329 329.083C355.037 329.083 350.465 330.32 350.77 332.266C351.076 334.212 353.703 333.989 356.635 334.1C356.635 334.1 351.966 335.031 352.466 337.686C352.772 339.506 358.025 337.867 360.707 337.867C360.707 337.867 358.511 340.257 360.151 340.993C361.791 341.73 365.432 339.896 365.432 339.896C365.432 339.896 365.293 341.869 366.933 342.064C368.573 342.258 372.701 340.674 375.508 338.978C378.272 337.197 380.918 335.238 383.429 333.114C384.492 332.142 385.708 331.353 387.029 330.779" fill="white"/>
<path d="M380.817 316.77C378.315 316.298 373.868 314.658 371.533 315.2C369.198 315.742 364.932 318.313 360.54 319.369C356.149 320.425 357.969 322.149 360.54 322.663C362.422 322.976 364.343 322.976 366.224 322.663L362.653 326.151C360.608 327.258 358.496 328.237 356.329 329.083C355.037 329.083 350.465 330.32 350.77 332.266C351.076 334.212 353.703 333.989 356.635 334.1C356.635 334.1 351.966 335.031 352.466 337.686C352.772 339.506 358.025 337.867 360.707 337.867C360.707 337.867 358.511 340.257 360.151 340.993C361.791 341.73 365.432 339.896 365.432 339.896C365.432 339.896 365.293 341.869 366.933 342.064C368.573 342.258 372.701 340.674 375.508 338.978C378.272 337.197 380.918 335.238 383.429 333.114C384.492 332.142 385.708 331.353 387.029 330.779" stroke="#263238" stroke-width="0.424143" stroke-linecap="round" stroke-linejoin="round"/>
<path d="M356.705 334.156C357.996 334.086 359.281 333.938 360.554 333.711C361.652 333.433 362.75 333.072 362.75 333.072" stroke="#263238" stroke-width="0.424143" stroke-linecap="round" stroke-linejoin="round"/>
<path d="M360.721 337.922C362.401 337.686 364.019 337.129 365.488 336.282" stroke="#263238" stroke-width="0.424143" stroke-linecap="round" stroke-linejoin="round"/>
<path d="M365.446 339.951C366.689 339.795 367.878 339.352 368.921 338.659" stroke="#263238" stroke-width="0.424143" stroke-linecap="round" stroke-linejoin="round"/>
<path d="M363.098 327.207C363.098 327.207 362.097 329.5 363.098 330.779C364.098 332.057 365.307 332.169 365.488 333.558C365.669 334.948 368.059 334.948 368.921 335.851C369.782 336.755 370.435 338.492 373.187 338.631" stroke="#263238" stroke-width="0.424143" stroke-linecap="round" stroke-linejoin="round"/>
<path d="M433.96 208.76C424.496 230.175 433.96 259.888 433.96 259.888C433.96 259.888 456.863 267.671 458.976 264.321C461.088 260.972 464.952 244.545 465.605 236.957" fill="#999999"/>
<path d="M433.96 208.76C424.496 230.175 433.96 259.888 433.96 259.888C433.96 259.888 456.863 267.671 458.976 264.321C461.088 260.972 464.952 244.545 465.605 236.957" stroke="#263238" stroke-width="0.424143" stroke-linecap="round" stroke-linejoin="round"/>
<path d="M459.004 239.334C459.004 239.334 449.276 252.717 441.535 252.898" stroke="#263238" stroke-width="0.424143" stroke-linecap="round" stroke-linejoin="round"/>
<path d="M111.29 575.791C111.29 575.791 108.914 566.716 111.693 563.353C116.668 557.321 111.082 552.235 116.085 550.164L118.183 552.596C118.586 550.136 117.419 542.618 126.702 541.645C137.931 540.463 138.14 548.593 138.751 551.373L138.557 547.607C143.351 547.607 140.864 552.387 148.118 560.198C150.02 562.307 151.468 564.784 152.372 567.476C153.275 570.168 153.616 573.017 153.372 575.846L111.29 575.791Z" fill="#263238"/>
<path d="M196.884 575.791C192.368 573.776 196.509 556.737 196.509 556.737C196.509 556.737 190.436 552.665 196.509 548.399C198.858 550.389 201.706 551.7 204.745 552.19C207.785 552.68 210.9 552.33 213.756 551.178C213.756 551.178 214.937 539.783 222.094 541.242C222.094 541.242 223.929 548.468 228.112 552.596C239.438 563.714 254.072 565.104 256.518 570.44C257.255 572.052 256.365 575.735 256.365 575.735L196.884 575.791Z" fill="#263238"/>
<path d="M177.581 304.068L183.14 315.853C183.14 315.853 206.126 363.355 220.204 417.749C220.538 419.042 227.82 444.807 221.983 508.972L225.318 520.229L221.677 538.824C221.677 538.824 227.153 546.731 226.958 549.316C226.958 549.316 213.45 551.832 208.892 554.25C205.389 556.14 194.869 566.521 194.869 566.521C191.881 565.91 191.617 553.847 191.617 553.847C191.617 553.847 185.377 446.739 183.584 442.125C181.792 437.511 170.84 417.61 153.747 372.068C153.747 372.068 153.357 435.677 148.799 451.77C144.727 466.084 149.55 506.151 149.55 506.151L146.77 550.748C146.77 550.748 156.387 560.74 148.591 563.422C148.591 563.422 143.379 553.402 128.537 551.123C120.99 549.955 111.596 563.353 111.596 563.353C108.288 562.296 112.985 545.467 112.985 545.467C102.465 466.084 110.206 480.454 108.121 441.653C106.732 416.749 99.7133 310.211 107.996 301.553L177.581 304.068Z" fill="#BFBFBF"/>
<path opacity="0.2" d="M104.133 340.757C141.294 343.676 173.467 331.516 187.434 325.164C184.78 319.216 183.154 315.853 183.154 315.853L177.595 304.082L108.107 301.553C105.161 304.68 104.119 320.564 104.133 340.757Z" fill="black"/>
<path opacity="0.2" d="M154.122 372.888C171.035 417.846 181.917 437.525 183.668 442.111C184.682 444.78 187.17 481.149 189.115 511.668C191.339 483.873 193.632 454.591 193.827 448.852C194.244 437.4 185.975 421.71 184.738 417.652C183.501 413.594 186.294 409.202 186.294 409.202L171.424 390.441C171.924 384.076 164.044 356.295 164.044 356.295C159.361 360.728 155.192 370.164 154.122 372.888Z" fill="black"/>
<path d="M177.581 304.068L183.14 315.853C183.14 315.853 206.126 363.355 220.204 417.749C220.538 419.042 227.82 444.807 221.983 508.972L225.318 520.229L221.677 538.824C221.677 538.824 227.153 546.731 226.958 549.316C226.958 549.316 213.45 551.832 208.892 554.25C205.389 556.14 194.869 566.521 194.869 566.521C191.881 565.91 191.617 553.847 191.617 553.847C191.617 553.847 185.377 446.739 183.584 442.125C181.792 437.511 170.84 417.61 153.747 372.068C153.747 372.068 153.357 435.677 148.799 451.77C144.727 466.084 149.55 506.151 149.55 506.151L146.77 550.748C146.77 550.748 156.387 560.74 148.591 563.422C148.591 563.422 143.379 553.402 128.537 551.123C120.99 549.955 111.596 563.353 111.596 563.353C108.288 562.296 112.985 545.467 112.985 545.467C102.465 466.084 110.206 480.454 108.121 441.653C106.732 416.749 99.7133 310.211 107.996 301.553L177.581 304.068Z" stroke="#263238" stroke-width="0.424143" stroke-linecap="round" stroke-linejoin="round"/>
<path d="M153.802 372.068C153.802 372.068 162.294 355.683 169.534 351.111" stroke="#263238" stroke-width="0.424143" stroke-linecap="round" stroke-linejoin="round"/>
<path d="M172.731 345.802C172.731 345.802 146.937 353.654 137.987 355.169" stroke="#263238" stroke-width="0.424143" stroke-linecap="round" stroke-linejoin="round"/>
<path d="M159.528 319.48C160.64 340.952 168.214 344.607 160.918 349.29C160.918 349.29 161.126 359.338 157.485 365.703" stroke="#263238" stroke-width="0.424143" stroke-linecap="round" stroke-linejoin="round"/>
<path d="M114.334 311.267C114.334 311.267 117.377 344.273 107.218 350.485" stroke="#263238" stroke-width="0.424143" stroke-linecap="round" stroke-linejoin="round"/>
<path d="M107.218 321.912C107.218 321.912 106.454 343.884 107.218 361.59C107.218 361.59 109.761 436.427 112.304 445.822C114.848 455.217 108.385 469.447 108.941 510.056" stroke="#263238" stroke-width="0.424143" stroke-linecap="round" stroke-linejoin="round"/>
<path d="M131.566 541.839C129.161 541.316 126.649 541.65 124.465 542.784" stroke="#263238" stroke-width="0.424143" stroke-linecap="round" stroke-linejoin="round"/>
<path d="M146.854 550.748C143.666 547.646 139.972 545.112 135.93 543.257" stroke="#263238" stroke-width="0.424143" stroke-linecap="round" stroke-linejoin="round"/>
<path d="M142.684 377.252C136.986 383.645 127.953 395.694 118.697 396.709" stroke="#263238" stroke-width="0.424143" stroke-linecap="round" stroke-linejoin="round"/>
<path d="M151.398 366.857C149.647 369.067 147.84 371.235 146.006 373.389" stroke="#263238" stroke-width="0.424143" stroke-linecap="round" stroke-linejoin="round"/>
<path d="M143.282 441.653C143.282 441.653 130.329 459.289 123.228 460.303" stroke="#263238" stroke-width="0.424143" stroke-linecap="round" stroke-linejoin="round"/>
<path d="M158.513 368.886C158.513 368.886 181.583 433.134 189.602 439.471C189.602 439.471 190.505 486.722 190.769 503.218C191.033 519.715 194.827 541.645 194.827 541.645" stroke="#263238" stroke-width="0.424143" stroke-linecap="round" stroke-linejoin="round"/>
<path d="M219.454 541.172C219.454 541.172 210.573 544.243 206.251 546.203C203.597 547.498 201.518 549.731 200.414 552.471" stroke="#263238" stroke-width="0.424143" stroke-linecap="round" stroke-linejoin="round"/>
<path d="M196.981 416.304C184.599 408.535 168.269 398.821 161.682 385.132" stroke="#263238" stroke-width="0.424143" stroke-linecap="round" stroke-linejoin="round"/>
<path d="M207.78 422.711C205.431 421.418 203.124 420.07 200.831 418.68" stroke="#263238" stroke-width="0.424143" stroke-linecap="round" stroke-linejoin="round"/>
<path d="M168.756 328.166C162.099 328.069 154.858 327.193 149.119 323.427" stroke="#263238" stroke-width="0.424143" stroke-linecap="round" stroke-linejoin="round"/>
<path d="M179.332 327.541C177.428 327.805 175.51 327.972 173.592 328.069" stroke="#263238" stroke-width="0.424143" stroke-linecap="round" stroke-linejoin="round"/>
<path d="M191.687 180.006C186.6 172.307 160.681 170.347 144.046 170.347C127.411 170.347 107.218 167.568 98.1013 186.329C91.1526 200.657 107.162 276.426 107.162 276.426L103.243 309.141C133.373 318.591 184.988 316.506 184.988 316.506L178.039 286.933C178.039 286.933 196.773 187.691 191.687 180.006Z" fill="#263238"/>
<path d="M134.165 151.322C134.165 151.322 136.403 169.152 129.621 173.002C129.621 173.002 133.012 186.079 144.908 186.899C156.804 187.719 162.057 174.947 162.057 174.947L134.165 151.322Z" fill="white" stroke="#263238" stroke-width="0.424143" stroke-linecap="round" stroke-linejoin="round"/>
<path d="M197.209 105.541L227.654 102.732C228.344 102.669 229.031 102.882 229.564 103.325C230.097 103.768 230.432 104.404 230.496 105.094L232.5 126.821L196.907 130.104L194.903 108.377C194.84 107.697 195.046 107.018 195.477 106.488C195.908 105.958 196.53 105.618 197.209 105.541Z" fill="#FB8500"/>
<path opacity="0.3" d="M197.209 105.54L227.654 102.732C228.344 102.668 229.031 102.881 229.564 103.324C230.097 103.767 230.432 104.404 230.496 105.094L232.5 126.82L196.907 130.104L194.903 108.377C194.84 107.696 195.046 107.018 195.477 106.488C195.908 105.958 196.53 105.618 197.209 105.54Z" fill="black" fill-opacity="0.7"/>
<path opacity="0.3" d="M228.541 104.93L219.781 105.738L221.398 123.258L230.157 122.45L228.541 104.93Z" fill="white" fill-opacity="0.7"/>
<path d="M197.209 105.541L227.654 102.732C228.344 102.669 229.031 102.882 229.564 103.325C230.097 103.768 230.432 104.404 230.496 105.094L232.5 126.821L196.907 130.104L194.903 108.377C194.84 107.697 195.046 107.018 195.477 106.488C195.908 105.958 196.53 105.618 197.209 105.541V105.541Z" stroke="#263238" stroke-width="0.424143" stroke-linecap="round" stroke-linejoin="round"/>
<path d="M249.849 100.656L280.294 97.848C280.984 97.7844 281.671 97.9975 282.204 98.4404C282.737 98.8833 283.072 99.5197 283.136 100.21L285.14 121.936L249.492 125.225L247.488 103.498C247.424 102.808 247.637 102.121 248.08 101.588C248.523 101.055 249.159 100.72 249.849 100.656Z" fill="#FB8500"/>
<path opacity="0.3" d="M249.849 100.656L280.294 97.848C280.984 97.7844 281.671 97.9975 282.204 98.4404C282.737 98.8833 283.072 99.5197 283.136 100.21L285.14 121.936L249.491 125.225L247.487 103.498C247.424 102.808 247.637 102.121 248.08 101.588C248.523 101.055 249.159 100.72 249.849 100.656Z" fill="black" fill-opacity="0.7"/>
<path opacity="0.3" d="M280.552 100.147L275.266 100.634L276.882 118.154L282.168 117.666L280.552 100.147Z" fill="white" fill-opacity="0.7"/>
<path d="M249.849 100.656L280.294 97.848C280.984 97.7844 281.671 97.9975 282.204 98.4404C282.737 98.8833 283.072 99.5197 283.136 100.21L285.14 121.936L249.492 125.225L247.488 103.498C247.424 102.808 247.637 102.121 248.08 101.588C248.523 101.055 249.159 100.72 249.849 100.656V100.656Z" stroke="#263238" stroke-width="0.424143" stroke-linecap="round" stroke-linejoin="round"/>
<path d="M238.788 101.668L269.233 98.8599C269.923 98.7962 270.61 99.0093 271.143 99.4522C271.676 99.8951 272.011 100.532 272.074 101.222L274.079 122.948L238.375 126.242L236.371 104.515C236.339 104.168 236.376 103.819 236.481 103.488C236.586 103.156 236.755 102.848 236.981 102.583C237.206 102.318 237.482 102.101 237.792 101.943C238.102 101.786 238.441 101.693 238.788 101.668Z" fill="#FB8500" stroke="#263238" stroke-width="0.424143" stroke-linecap="round" stroke-linejoin="round"/>
<path d="M291.375 96.8167L321.82 94.0084C322.51 93.9448 323.197 94.1579 323.73 94.6008C324.263 95.0437 324.598 95.6801 324.662 96.3701L326.666 118.097L291.017 121.385L289.013 99.6583C288.95 98.9683 289.163 98.2813 289.606 97.7484C290.049 97.2155 290.685 96.8803 291.375 96.8167Z" fill="#FB8500" stroke="#263238" stroke-width="0.424143" stroke-linecap="round" stroke-linejoin="round"/>
<path opacity="0.3" d="M270.068 101.104L261.309 101.912L262.925 119.432L271.684 118.624L270.068 101.104Z" fill="white" fill-opacity="0.7"/>
<path opacity="0.3" d="M322.078 96.2926L313.318 97.1006L314.934 114.62L323.694 113.812L322.078 96.2926Z" fill="white" fill-opacity="0.7"/>
<path d="M341.709 111.603L350.937 211.497L189.935 226.368L180.763 126.445C180.609 124.775 181.123 123.113 182.195 121.823C183.266 120.533 184.805 119.721 186.475 119.566L334.844 105.877C335.671 105.8 336.505 105.888 337.298 106.135C338.091 106.381 338.828 106.782 339.466 107.314C340.104 107.846 340.63 108.499 341.015 109.235C341.4 109.971 341.636 110.775 341.709 111.603Z" fill="#FB8500"/>
<path opacity="0.3" d="M341.709 111.603L350.937 211.497L189.935 226.368L180.763 126.445C180.609 124.775 181.123 123.113 182.195 121.823C183.266 120.533 184.805 119.721 186.475 119.566L334.844 105.877C335.671 105.8 336.505 105.888 337.298 106.135C338.091 106.381 338.828 106.782 339.466 107.314C340.104 107.846 340.63 108.499 341.015 109.235C341.4 109.971 341.636 110.775 341.709 111.603Z" fill="black" fill-opacity="0.7"/>
<path d="M341.709 111.603L350.937 211.497L189.935 226.368L180.763 126.445C180.609 124.775 181.123 123.113 182.195 121.823C183.266 120.533 184.805 119.721 186.475 119.566L334.844 105.877C335.671 105.8 336.505 105.888 337.298 106.135C338.091 106.381 338.828 106.782 339.466 107.314C340.104 107.846 340.63 108.499 341.015 109.235C341.4 109.971 341.636 110.775 341.709 111.603V111.603Z" stroke="#263238" stroke-width="0.424143" stroke-linecap="round" stroke-linejoin="round"/>
<path d="M341.709 111.603L350.937 211.497L231.419 222.518L222.205 122.623C222.051 120.954 222.566 119.291 223.637 118.001C224.708 116.711 226.248 115.899 227.917 115.744L334.775 105.877C335.607 105.791 336.448 105.871 337.25 106.113C338.051 106.355 338.796 106.754 339.441 107.287C340.087 107.82 340.619 108.476 341.009 109.217C341.398 109.958 341.636 110.769 341.709 111.603Z" fill="#FB8500" stroke="#263238" stroke-width="0.424143" stroke-linecap="round" stroke-linejoin="round"/>
<path opacity="0.3" d="M333.968 115.897L231.864 125.319C231.184 125.366 230.513 125.145 229.994 124.703C229.474 124.262 229.148 123.635 229.085 122.957C229.034 122.278 229.252 121.607 229.691 121.087C230.13 120.568 230.756 120.241 231.433 120.177L333.538 110.755C334.217 110.708 334.889 110.929 335.408 111.371C335.927 111.812 336.253 112.439 336.317 113.117C336.36 113.794 336.14 114.462 335.702 114.98C335.264 115.498 334.643 115.827 333.968 115.897Z" fill="white" fill-opacity="0.7"/>
<path d="M154.553 115.966C154.553 115.966 130.997 111.241 128.356 126.403C125.716 141.565 134.346 148.014 134.346 148.014L154.553 115.966Z" fill="#263238"/>
<path d="M134.346 156.339C131.654 148.801 131.234 140.64 133.137 132.866C135.444 123.138 147.034 109.754 164.614 121.915C173.662 128.182 174.218 141.788 171.396 154.24C170.729 157.214 171.23 160.119 170.243 162.856C166.769 172.446 160.417 179.825 156.943 179.992C151.148 180.284 139.557 173.266 140.03 167.151" fill="white"/>
<path d="M134.346 156.339C131.654 148.801 131.234 140.64 133.137 132.866C135.444 123.138 147.034 109.754 164.614 121.915C173.662 128.182 174.218 141.788 171.396 154.24C170.729 157.214 171.23 160.119 170.243 162.856C166.769 172.446 160.417 179.825 156.943 179.992C151.148 180.284 139.557 173.266 140.03 167.151" stroke="#263238" stroke-width="0.424143" stroke-linecap="round" stroke-linejoin="round"/>
<path d="M157.819 151.933C157.819 151.933 153.135 148.542 148.632 151.322" stroke="#263238" stroke-width="0.424143" stroke-linecap="round" stroke-linejoin="round"/>
<path d="M166.657 151.322C166.657 151.322 170.201 148.07 172.508 148.542" stroke="#263238" stroke-width="0.424143" stroke-linecap="round" stroke-linejoin="round"/>
<path d="M151.203 157.131C151.203 157.992 151.634 158.701 152.176 158.701C152.718 158.701 153.163 157.992 153.163 157.131C153.163 156.269 152.718 155.574 152.176 155.574C151.634 155.574 151.203 156.269 151.203 157.131Z" fill="#263238"/>
<path d="M166.657 157.825C167.202 157.825 167.644 157.129 167.644 156.269C167.644 155.409 167.202 154.712 166.657 154.712C166.112 154.712 165.671 155.409 165.671 156.269C165.671 157.129 166.112 157.825 166.657 157.825Z" fill="#263238"/>
<path d="M164.67 154.601C162.947 156.852 165.365 165.427 164.67 166.039C163.975 166.65 159.556 164.913 159.556 164.913C159.556 164.913 158.527 163.607 160.681 162.912" stroke="#263238" stroke-width="0.424143" stroke-linecap="round" stroke-linejoin="round"/>
<path d="M160.751 170.347C160.751 170.347 154.817 170.347 153.232 168.179" stroke="#263238" stroke-width="0.424143" stroke-linecap="round" stroke-linejoin="round"/>
<path d="M146.548 138.23L146.089 145.401C146.089 145.401 141.003 148.028 139.724 150.696C138.963 152.444 138.685 154.363 138.918 156.255C138.918 156.255 135.833 150.863 134.165 151.307C133.568 151.46 133.568 153.726 133.568 153.726C133.568 153.726 126.619 138.216 132.901 130.017C139.182 121.817 146.548 138.23 146.548 138.23Z" fill="#757575" stroke="#263238" stroke-width="0.424143" stroke-linecap="round" stroke-linejoin="round"/>
<path d="M136.75 154.713C136.75 154.713 135.36 149.501 130.677 148.125C125.993 146.749 129.204 159.243 133.192 160.869C137.181 162.495 138.181 163.649 138.418 162.162" fill="white"/>
<path d="M136.75 154.713C136.75 154.713 135.36 149.501 130.677 148.125C125.993 146.749 129.204 159.243 133.192 160.869C137.181 162.495 138.181 163.649 138.418 162.162" stroke="#263238" stroke-width="0.424143" stroke-linecap="round" stroke-linejoin="round"/>
<path d="M130.371 137.327C129.982 136.799 128.259 123.429 137.084 117.425C145.909 111.422 160.82 112.061 170.312 120.372C179.804 128.682 177.108 143.094 170.312 148.014V141.996C170.312 141.996 167.185 148.028 157.805 148.528L160.668 144.109C160.668 144.109 156.054 146.888 147.924 146.652C147.924 146.652 151.745 143.608 151.19 140.898C151.203 140.898 138.293 148.167 130.371 137.327Z" fill="#263238"/>
<path d="M132.025 185.523C125.521 186.301 116.265 194.793 122.297 209.871C126.146 219.433 157.777 213.749 157.777 213.749C169.506 208.912 186.642 191.513 199.219 183.438C199.219 183.438 196.565 166.761 193.507 169.124C179.29 180.006 167.602 180.756 147.771 190.29C147.812 190.234 136.111 185.037 132.025 185.523Z" fill="white" stroke="#263238" stroke-width="0.424143" stroke-linecap="round" stroke-linejoin="round"/>
<path d="M146.548 204.034C146.353 210.26 148.91 211.358 153.218 212.832L146.548 204.034Z" fill="white"/>
<path d="M146.548 204.034C146.353 210.26 148.91 211.358 153.218 212.832" stroke="#263238" stroke-width="0.424143" stroke-linecap="round" stroke-linejoin="round"/>
<path d="M192.562 170.347C192.854 169.444 198.121 160.188 199.608 157.839C201.095 155.491 207.738 153.364 210.309 151.947C212.88 150.529 213.089 148.375 214.478 149.918C215.868 151.46 214.478 154.977 206.779 158.715C209.515 158.866 212.257 158.866 214.993 158.715C217.049 158.409 218.884 156.547 219.801 157.839C220.718 159.132 220.899 161.453 216.313 162.87C214.132 163.661 211.847 164.129 209.531 164.26C211.775 164.739 213.981 165.38 216.132 166.178C216.869 166.72 217.967 167.985 219.065 168.179C220.162 168.374 221.358 169.569 219.342 170.959C218.628 171.354 217.827 171.568 217.011 171.582C216.195 171.597 215.387 171.411 214.659 171.042C214.659 171.042 219.982 173.613 218.328 175.211C216.674 176.809 211.379 176.49 211.379 176.49C211.379 176.49 203.527 186.065 196.884 184.064" fill="white"/>
<path d="M192.562 170.347C192.854 169.444 198.121 160.188 199.608 157.839C201.095 155.491 207.738 153.364 210.309 151.947C212.88 150.529 213.089 148.375 214.478 149.918C215.868 151.46 214.478 154.977 206.779 158.715C209.515 158.866 212.257 158.866 214.993 158.715C217.049 158.409 218.884 156.547 219.801 157.839C220.718 159.132 220.899 161.453 216.313 162.87C214.132 163.661 211.847 164.129 209.531 164.26C211.775 164.739 213.981 165.38 216.132 166.178C216.869 166.72 217.967 167.985 219.065 168.179C220.162 168.374 221.358 169.569 219.342 170.959C218.628 171.354 217.827 171.568 217.011 171.582C216.195 171.597 215.387 171.411 214.659 171.042C214.659 171.042 219.982 173.613 218.328 175.211C216.674 176.809 211.379 176.49 211.379 176.49C211.379 176.49 203.527 186.065 196.884 184.064" stroke="#263238" stroke-width="0.424143" stroke-linecap="round" stroke-linejoin="round"/>
<path d="M201.971 157.825C202.42 157.93 202.832 158.156 203.16 158.48C203.489 158.804 203.722 159.212 203.833 159.66C204.292 161.3 205.64 161.397 206.46 163.232C207.28 165.066 207.043 167.901 207.849 168.874C208.655 169.847 207.849 173.946 207.849 173.946" stroke="#263238" stroke-width="0.424143" stroke-linecap="round" stroke-linejoin="round"/>
<path d="M133.387 184.342C129.982 180.006 122.339 181.965 122.339 181.965" stroke="white" stroke-width="0.424143" stroke-linecap="round" stroke-linejoin="round"/>
<path d="M118.169 173.974C118.169 173.974 126.035 175.128 128.356 181.674" stroke="white" stroke-width="0.424143" stroke-linecap="round" stroke-linejoin="round"/>
<path d="M132.025 215.416C132.025 215.416 124.354 221.351 112.68 212.832" stroke="white" stroke-width="0.424143" stroke-linecap="round" stroke-linejoin="round"/>
<path d="M122.338 217.209C122.338 217.209 118.447 222.588 108.969 222.518" stroke="white" stroke-width="0.424143" stroke-linecap="round" stroke-linejoin="round"/>
<path d="M171.091 284.876C171.091 284.876 151.023 300.872 130.635 298.773" stroke="white" stroke-width="0.424143" stroke-linecap="round" stroke-linejoin="round"/>
<path d="M116.849 249.729C116.849 249.729 147.993 272.577 171.049 274.036" stroke="white" stroke-width="0.424143" stroke-linecap="round" stroke-linejoin="round"/>
<path d="M117.669 418.861C123.026 415.889 129.325 415.102 135.249 416.665C145.408 419.222 171.799 456.968 175.468 460.65C179.137 464.333 186.003 466.209 192.326 472.866C202.332 483.303 216.883 492.531 218.356 492.531C219.829 492.531 221.01 491.614 222.845 491.253C224.679 490.891 238.882 489.599 238.882 489.599C238.882 489.599 243.649 490.655 238.882 492.698C234.116 494.741 234.477 496.561 234.477 496.561C234.477 496.561 233.518 498.104 235.436 499.577C237.354 501.05 238.479 500.244 241.217 504.122C243.955 507.999 237.354 505.803 237.354 505.803C237.354 505.803 238.813 509.972 235.88 509.555C232.948 509.139 235.519 513.627 230.752 513.016C225.986 512.404 215.785 505.97 213.228 499.23C213.228 499.23 171.619 479.342 165.393 474.214C159.167 469.086 132.956 441.583 131.163 441.222" fill="#263238"/>
<path d="M226.528 456.106H257.102C257.795 456.106 258.459 456.381 258.949 456.871C259.439 457.361 259.715 458.026 259.715 458.719V480.538H223.915V458.719C223.915 458.026 224.19 457.361 224.68 456.871C225.17 456.381 225.835 456.106 226.528 456.106Z" fill="#FB8500"/>
<path opacity="0.3" d="M226.528 456.106H257.102C257.795 456.106 258.459 456.381 258.949 456.871C259.439 457.361 259.715 458.026 259.715 458.719V480.538H223.915V458.719C223.915 458.026 224.19 457.361 224.68 456.871C225.17 456.381 225.835 456.106 226.528 456.106Z" fill="black" fill-opacity="0.7"/>
<path opacity="0.3" d="M257.727 458.413H248.93V476.007H257.727V458.413Z" fill="white" fill-opacity="0.7"/>
<path d="M226.528 456.106H257.102C257.795 456.106 258.459 456.381 258.949 456.871C259.439 457.361 259.715 458.026 259.715 458.719V480.538H223.915V458.719C223.915 458.026 224.19 457.361 224.68 456.871C225.17 456.381 225.835 456.106 226.528 456.106V456.106Z" stroke="#263238" stroke-width="0.424143" stroke-linecap="round" stroke-linejoin="round"/>
<path d="M279.338 456.106H309.912C310.605 456.106 311.27 456.381 311.76 456.871C312.25 457.361 312.525 458.026 312.525 458.719V480.538H276.725V458.719C276.725 458.376 276.793 458.036 276.924 457.719C277.055 457.402 277.248 457.114 277.49 456.871C277.733 456.629 278.021 456.436 278.338 456.305C278.655 456.174 278.995 456.106 279.338 456.106Z" fill="#FB8500"/>
<path opacity="0.3" d="M279.338 456.106H309.912C310.605 456.106 311.27 456.381 311.76 456.871C312.25 457.361 312.525 458.026 312.525 458.719V480.538H276.725V458.719C276.725 458.376 276.793 458.036 276.924 457.719C277.055 457.402 277.248 457.114 277.49 456.871C277.733 456.629 278.021 456.436 278.338 456.305C278.655 456.174 278.995 456.106 279.338 456.106Z" fill="black" fill-opacity="0.7"/>
<path opacity="0.3" d="M309.954 458.413H304.645V476.007H309.954V458.413Z" fill="white" fill-opacity="0.7"/>
<path d="M279.338 456.106H309.912C310.605 456.106 311.27 456.381 311.76 456.871C312.25 457.361 312.525 458.026 312.525 458.719V480.538H276.725V458.719C276.725 458.376 276.793 458.036 276.924 457.719C277.055 457.402 277.248 457.114 277.49 456.871C277.733 456.629 278.021 456.436 278.338 456.305C278.655 456.174 278.995 456.106 279.338 456.106V456.106Z" stroke="#263238" stroke-width="0.424143" stroke-linecap="round" stroke-linejoin="round"/>
<path d="M268.22 456.106H298.794C299.487 456.106 300.151 456.381 300.641 456.871C301.131 457.361 301.407 458.026 301.407 458.719V480.538H265.607V458.719C265.607 458.376 265.675 458.036 265.806 457.719C265.937 457.402 266.13 457.114 266.372 456.871C266.615 456.629 266.903 456.436 267.22 456.305C267.537 456.174 267.877 456.106 268.22 456.106Z" fill="#FB8500" stroke="#263238" stroke-width="0.424143" stroke-linecap="round" stroke-linejoin="round"/>
<path d="M321.03 456.106H351.604C352.297 456.106 352.962 456.381 353.452 456.871C353.942 457.361 354.217 458.026 354.217 458.719V480.538H318.417V458.719C318.417 458.026 318.692 457.361 319.182 456.871C319.672 456.381 320.337 456.106 321.03 456.106Z" fill="#FB8500" stroke="#263238" stroke-width="0.424143" stroke-linecap="round" stroke-linejoin="round"/>
<path opacity="0.3" d="M299.42 458.413H290.623V476.007H299.42V458.413Z" fill="white" fill-opacity="0.7"/>
<path opacity="0.3" d="M351.646 458.413H342.849V476.007H351.646V458.413Z" fill="white" fill-opacity="0.7"/>
<path d="M369.796 475.451V575.777H208.155V475.451C208.155 473.774 208.821 472.166 210.007 470.98C211.193 469.794 212.801 469.128 214.478 469.128H363.473C365.15 469.128 366.758 469.794 367.944 470.98C369.13 472.166 369.796 473.774 369.796 475.451Z" fill="#FB8500"/>
<path opacity="0.3" d="M369.796 475.451V575.777H208.155V475.451C208.155 473.774 208.821 472.166 210.007 470.98C211.193 469.794 212.801 469.128 214.478 469.128H363.473C365.15 469.128 366.758 469.794 367.944 470.98C369.13 472.166 369.796 473.774 369.796 475.451Z" fill="black" fill-opacity="0.7"/>
<path d="M369.796 475.451V575.777H208.155V475.451C208.155 473.774 208.821 472.166 210.007 470.98C211.193 469.794 212.801 469.128 214.478 469.128H363.473C365.15 469.128 366.758 469.794 367.944 470.98C369.13 472.166 369.796 473.774 369.796 475.451V475.451Z" stroke="#263238" stroke-width="0.424143" stroke-linecap="round" stroke-linejoin="round"/>
<path d="M369.796 475.451V575.777H249.847V475.451C249.847 473.774 250.514 472.166 251.699 470.98C252.885 469.794 254.494 469.128 256.171 469.128H363.473C365.15 469.128 366.758 469.794 367.944 470.98C369.13 472.166 369.796 473.774 369.796 475.451Z" fill="#FB8500" stroke="#263238" stroke-width="0.424143" stroke-linecap="round" stroke-linejoin="round"/>
<path opacity="0.3" d="M361.68 479.023H259.145C258.452 479.023 257.787 478.748 257.297 478.258C256.807 477.768 256.532 477.103 256.532 476.41C256.525 476.062 256.587 475.717 256.715 475.393C256.843 475.07 257.034 474.775 257.277 474.527C257.521 474.278 257.811 474.081 258.132 473.946C258.453 473.811 258.797 473.742 259.145 473.742H361.68C362.373 473.742 363.038 474.017 363.528 474.507C364.018 474.997 364.293 475.662 364.293 476.355C364.3 476.702 364.238 477.048 364.11 477.371C363.982 477.695 363.791 477.99 363.547 478.238C363.304 478.487 363.014 478.684 362.693 478.819C362.372 478.954 362.028 479.023 361.68 479.023Z" fill="white" fill-opacity="0.7"/>
<path d="M171.869 575.777C163.53 575.777 151.815 570.412 138.321 564.742C124.326 558.85 108.385 552.624 92.2089 551.693C86.1774 551.345 89.8324 575.777 89.8324 575.777H76.6298C76.6298 575.777 63.594 558.377 62.0792 542.798C62.0792 542.798 72.7247 536.225 75.2818 535.849C76.1635 535.757 77.0497 535.716 77.9362 535.724C80.7991 535.724 84.6209 535.849 84.6209 535.849C84.0094 535.488 74.2673 529.623 68.889 523.661C64.4557 518.742 62.4267 510.973 62.2738 506.331C62.4456 503.258 62.7843 500.196 63.2883 497.159L132.664 498.313C132.664 498.313 133.415 498.841 134.749 499.827C142.795 505.692 172.202 527.539 186.906 544.007C191.659 549.33 194.869 554.083 195.342 557.557C197.551 573.581 184.446 575.777 171.869 575.777Z" fill="#757575" stroke="#263238" stroke-width="0.424143" stroke-linecap="round" stroke-linejoin="round"/>
<path d="M186.92 543.979L153.177 551.693C147.392 555.002 142.33 559.44 138.293 564.742C124.298 558.85 108.358 552.624 92.1811 551.693C86.1496 551.345 89.8046 575.777 89.8046 575.777H76.602C76.602 575.777 63.594 558.377 62.0792 542.798C62.0792 542.798 74.3646 560.309 77.3664 569.203C77.3664 569.203 82.1332 552.749 89.8741 546.147C86.3779 542.21 82.4051 538.722 78.0474 535.766C80.9102 535.766 84.732 535.891 84.732 535.891C84.1206 535.53 74.3785 529.665 69.0001 523.703C64.5669 518.783 62.7741 511.001 62.385 506.373C62.1904 504.094 62.4683 497.201 62.4683 497.201C62.4683 497.201 114.208 504.58 134.86 499.869C142.809 505.706 172.216 527.511 186.92 543.979Z" fill="#263238"/>
<path d="M132.678 542.798C132.678 542.798 160.167 556.57 167.505 561.963C174.843 567.355 177.025 565.896 177.025 565.896" stroke="#263238" stroke-width="0.424143" stroke-linecap="round" stroke-linejoin="round"/>
<path d="M68.9028 541.339C68.9028 541.339 75.5041 551.415 75.8515 554.43" stroke="#263238" stroke-width="0.424143" stroke-linecap="round" stroke-linejoin="round"/>
<path d="M179.471 347.942C179.471 347.942 194.105 341.577 192.715 368.65C191.325 395.722 196.287 397.111 196.287 397.111C196.287 397.111 159.458 412.232 150.105 399.307C140.752 386.383 149.633 351.014 179.471 347.942Z" fill="#263238"/>
<path d="M177.428 397.111C177.428 397.111 162.28 404.255 160.904 410.856C159.528 417.457 140.558 407.52 140.558 407.52L154.303 387.758L177.428 397.111Z" fill="white" stroke="#263238" stroke-width="0.424143" stroke-linecap="round" stroke-linejoin="round"/>
<path d="M78.103 469.573C43.3594 513.822 71.5573 535.168 110.943 531.638L103.049 544.146L122.867 547.579C122.867 547.579 138.056 537.656 158.764 527.052C194.008 508.986 208.252 510.07 204.625 491.989C200.998 473.909 157.805 462.179 114.5 481.232C114.459 481.219 90.9442 453.285 78.103 469.573Z" fill="#757575" stroke="#263238" stroke-width="0.424143" stroke-linecap="round" stroke-linejoin="round"/>
<path d="M90.2216 565.896C90.2216 565.896 99.2688 540.88 103.049 539.491C106.829 538.101 121.116 543.521 122.867 547.551C122.867 547.551 127.689 540.158 129.662 543.298C131.636 546.439 128.787 551.637 129.662 555.612C130.538 559.586 140.308 565.145 144.213 565.882C148.118 566.618 150.342 568.814 150.342 571.01V575.777H90.2216C89.5545 574.215 89.2106 572.534 89.2106 570.836C89.2106 569.138 89.5545 567.457 90.2216 565.896Z" fill="white" stroke="#263238" stroke-width="0.424143" stroke-linecap="round" stroke-linejoin="round"/>
<path d="M129.662 551.693C129.662 551.693 121.699 555.625 118.795 554.472C115.89 553.319 120.282 561.073 121.38 561.81C122.477 562.546 129.718 559.239 129.718 559.239" stroke="#263238" stroke-width="0.424143" stroke-linecap="round" stroke-linejoin="round"/>
<path d="M97.74 547.565C97.74 547.565 108.552 547.774 111.846 551.734" stroke="#263238" stroke-width="0.424143" stroke-linecap="round" stroke-linejoin="round"/>
<path d="M90.2214 565.896C90.2214 565.896 107.454 569.926 108.913 569.926C111.283 569.456 113.608 568.781 115.862 567.911C115.862 567.911 120.587 570.287 123.728 571.76C126.869 573.233 147.354 571.76 147.354 571.76" stroke="#263238" stroke-width="0.424143" stroke-linecap="round" stroke-linejoin="round"/>
<path d="M110.943 531.666C127.397 529.887 159.361 509.611 170.479 502.565C181.597 495.519 184.377 497.367 184.377 497.367" stroke="#263238" stroke-width="0.424143" stroke-linecap="round" stroke-linejoin="round"/>
<path d="M62.3711 497.131L64.9977 477.188L71.3349 472.408C81.6051 447.49 128.134 400.947 140.822 401.1C159.875 401.322 163.239 421.321 165.587 443.209C167.936 465.098 138.251 461.804 138.251 461.804V467.293L121.366 476.035L131.594 475.715C131.594 475.715 102.173 504.316 62.3711 497.131Z" fill="#FB8500" stroke="#263238" stroke-width="0.424143" stroke-linecap="round" stroke-linejoin="round"/>
<path d="M144.838 362.562C148.827 350.055 167.074 346.719 173.634 348.762C179.018 350.865 183.431 354.891 186.017 360.061C187.684 363.66 184.196 370.025 186.684 373.736C190.241 379.059 189.936 390.288 188.657 397.361C187.962 401.114 172.355 403.337 159.597 394.582C145.895 385.104 140.975 374.597 144.838 362.562Z" fill="white" stroke="#263238" stroke-width="0.424143" stroke-linecap="round" stroke-linejoin="round"/>
<path d="M163.28 345.024C163.28 345.024 179.346 342.411 179.457 346.539C180.166 373.958 163.725 379.712 163.725 379.712C163.725 379.712 157.013 374.361 155.512 378.03C154.011 381.699 157.874 391.844 162.627 392.053C161.532 393.754 160.933 395.728 160.899 397.751C160.865 399.774 161.396 401.767 162.433 403.504C162.433 403.504 135.221 408.049 132.97 395.444C134.022 391.062 134.774 386.614 135.221 382.13C136.986 364.466 132.859 352.584 163.28 345.024Z" fill="#263238"/>
<path d="M184.738 372.971C188.087 375.987 190.491 375.987 190.45 377.071C190.325 380.448 186.281 382.13 186.281 382.13" fill="white"/>
<path d="M184.738 372.971C188.087 375.987 190.491 375.987 190.45 377.071C190.325 380.448 186.281 382.13 186.281 382.13" stroke="#263238" stroke-width="0.424143" stroke-linecap="round" stroke-linejoin="round"/>
<path d="M186.197 387.758C183.831 388.559 181.277 388.622 178.873 387.939" stroke="#263238" stroke-width="0.424143" stroke-linecap="round" stroke-linejoin="round"/>
<path d="M177.289 356.142C177.289 356.142 187.976 353.043 186.016 370.387C186.016 370.387 190.464 364.341 190.45 357.545C190.45 345.774 174.704 348.137 174.704 348.137L176.761 356.475" fill="#263238"/>
<path d="M187.003 364.633C186.599 364.364 186.144 364.18 185.666 364.092C185.188 364.003 184.698 364.013 184.224 364.119" stroke="#263238" stroke-width="0.424143" stroke-linecap="round" stroke-linejoin="round"/>
<path d="M179.804 364.438C179.804 364.438 174.065 364.772 171.577 368.608" stroke="#263238" stroke-width="0.424143" stroke-linecap="round" stroke-linejoin="round"/>
<path d="M178.428 373.569C178.512 374.486 178.123 375.278 177.553 375.334C176.983 375.39 176.455 374.681 176.358 373.764C176.26 372.846 176.664 372.054 177.233 371.999C177.803 371.943 178.345 372.652 178.428 373.569Z" fill="#263238"/>
<path d="M111.846 535.836C111.846 535.836 124.632 537.225 127.411 542.784" stroke="#263238" stroke-width="0.424143" stroke-linecap="round" stroke-linejoin="round"/>
<path d="M144.213 410.481C149.571 407.509 155.869 406.722 161.793 408.285C171.966 410.856 198.344 448.587 202.012 452.27C205.681 455.953 212.547 457.829 218.87 464.486C228.876 474.923 243.427 484.151 244.9 484.151C246.373 484.151 247.554 483.234 249.389 482.872C251.223 482.511 265.426 481.219 265.426 481.219C265.426 481.219 270.193 482.289 265.426 484.318C260.66 486.347 261.021 488.195 261.021 488.195C261.021 488.195 260.076 489.724 261.98 491.197C263.884 492.67 265.023 491.864 267.761 495.741C270.499 499.619 263.898 497.423 263.898 497.423C263.898 497.423 265.357 501.592 262.425 501.175C259.492 500.758 262.063 505.247 257.296 504.636C252.53 504.024 242.329 497.59 239.772 490.85C239.772 490.85 198.163 470.962 191.937 465.834C185.711 460.706 159.528 433.203 157.68 432.842" fill="white"/>
<path d="M144.213 410.481C149.571 407.509 155.869 406.722 161.793 408.285C171.966 410.856 198.344 448.587 202.012 452.27C205.681 455.953 212.547 457.829 218.87 464.486C228.876 474.923 243.427 484.151 244.9 484.151C246.373 484.151 247.554 483.234 249.389 482.872C251.223 482.511 265.426 481.219 265.426 481.219C265.426 481.219 270.193 482.289 265.426 484.318C260.66 486.347 261.021 488.195 261.021 488.195C261.021 488.195 260.076 489.724 261.98 491.197C263.884 492.67 265.023 491.864 267.761 495.741C270.499 499.619 263.898 497.423 263.898 497.423C263.898 497.423 265.357 501.592 262.425 501.175C259.492 500.758 262.063 505.247 257.296 504.636C252.53 504.024 242.329 497.59 239.772 490.85C239.772 490.85 198.163 470.962 191.937 465.834C185.711 460.706 159.528 433.203 157.68 432.842" stroke="#263238" stroke-width="0.424143" stroke-linecap="round" stroke-linejoin="round"/>
<path d="M138.237 406.45C138.237 406.45 158.75 400.961 165.907 404.991C173.064 409.021 186.628 427.713 186.628 427.713C186.628 427.713 170.09 442.514 164.976 441.166C159.861 439.818 144.213 437.608 144.213 437.608" fill="#FB8500"/>
<path d="M138.237 406.45C138.237 406.45 158.75 400.961 165.907 404.991C173.064 409.021 186.628 427.713 186.628 427.713C186.628 427.713 170.09 442.514 164.976 441.166C159.861 439.818 144.213 437.608 144.213 437.608" stroke="#263238" stroke-width="0.424143" stroke-linecap="round" stroke-linejoin="round"/>
<path d="M156.026 439.415C156.026 439.415 148.591 443.501 145.853 443.501" stroke="#263238" stroke-width="0.424143" stroke-linecap="round" stroke-linejoin="round"/>
<path d="M144.213 418.916C144.838 420.014 144.63 432.035 157.68 435.774" stroke="#263238" stroke-width="0.424143" stroke-linecap="round" stroke-linejoin="round"/>
<path d="M74.4618 472.797C74.4618 472.797 102.257 477.564 111.846 469.128" stroke="#263238" stroke-width="0.424143" stroke-linecap="round" stroke-linejoin="round"/>
<path d="M121.352 476.035C121.352 476.035 114.403 474.812 111.846 478.383C109.289 481.955 95.3635 485.332 95.3635 485.332" stroke="#263238" stroke-width="0.424143" stroke-linecap="round" stroke-linejoin="round"/>
<path d="M65.4841 502.565C65.4841 502.565 61.4677 519.881 78.6032 527.581" stroke="#263238" stroke-width="0.424143" stroke-linecap="round" stroke-linejoin="round"/>
<path d="M74.4618 503.76C74.4618 503.76 74.5591 512.293 77.2413 516.963L85.7604 519.742L95.294 514.434C95.294 514.434 93.265 503.524 93.0843 501.314" stroke="#263238" stroke-width="0.424143" stroke-linecap="round" stroke-linejoin="round"/>
</svg>
