<svg width="803" height="853" viewBox="0 0 803 853" fill="none" xmlns="http://www.w3.org/2000/svg">
<path d="M383.834 600.91C512.502 600.91 616.808 495.9 616.808 366.364C616.808 236.828 512.502 131.818 383.834 131.818C255.166 131.818 150.86 236.828 150.86 366.364C150.86 495.9 255.166 600.91 383.834 600.91Z" fill="#FB8500"/>
<g opacity="0.3">
<path d="M297.552 470.91C298.778 460.714 306.8 450.357 302.176 441.132C297.044 430.844 282.109 432.508 271.612 427.908C256.955 421.457 252.4 403.239 242.829 390.385C234.228 378.825 214.184 366.225 198.902 369.693C187.851 372.213 184.059 378.802 182.903 386.917L181.516 386.686C177.424 386.247 172.615 386.038 170.373 382.64C167.76 378.686 170.373 372.837 167.645 368.953C165.963 367.185 163.993 365.715 161.818 364.607C159.83 363.22 158.142 360.561 159.345 358.411C160.547 356.261 162.928 356.238 164.223 354.596C164.733 353.933 165.009 353.12 165.009 352.284C165.009 351.448 164.733 350.635 164.223 349.972C160.015 345.002 155.345 355.151 153.01 357.532C152.416 358.157 151.791 358.751 151.137 359.312C151.114 359.744 151.114 360.176 151.137 360.607C151.137 361.994 151.137 363.405 151.137 364.815C151.137 366.225 151.137 367.612 151.137 369.023C151.137 370.433 151.137 371.335 151.137 372.421C151.137 373.508 151.137 374.733 151.137 375.843C153.649 376.773 156.058 377.958 158.327 379.38C162.951 381.993 167.899 385.46 168.199 390.685C168.12 391.54 168.289 392.398 168.685 393.159C169.255 393.775 170.025 394.169 170.858 394.269C174.744 395.186 178.707 395.735 182.695 395.91C182.695 400.534 183.088 405.505 183.019 410.152C182.903 416.903 180.707 423.561 181.424 430.243C182.51 439.675 189.076 447.42 194.787 455.004C216.519 484.042 228.24 517.426 241.025 551.504C243.337 553.377 246.759 555.873 249.187 557.607C251.105 558.995 252.863 560.197 254.828 561.515C256.793 562.832 258.55 563.965 260.561 565.214C261.948 566.115 262.249 566.347 263.706 567.202C263.521 566.786 263.867 567.479 263.706 567.202C258.573 555.966 258.573 540.383 269.578 534.835C271.803 534.039 273.904 532.934 275.82 531.552C280.721 526.928 276.699 517.333 281.6 512.686C284.374 510.097 288.674 510.374 292.096 508.733C298.269 505.889 300.257 498.006 299.772 491.232C299.286 484.458 296.789 477.661 297.552 470.91Z" fill="black"/>
</g>
<g opacity="0.3">
<path d="M165.333 299.225C169.679 295.503 177.193 295.064 180.545 299.711C182.857 303.017 182.395 307.571 181.77 311.617C180.915 317.073 180.083 322.53 179.181 327.986C178.782 329.607 178.862 331.31 179.412 332.887C181.031 336.355 186.718 335.685 188.891 332.587C191.064 329.489 190.833 325.258 190.255 321.489C189.677 317.721 188.891 313.721 190.255 310.184C193.954 301.399 207.04 302.739 214.623 297.029C219.247 293.492 221.443 287.55 224.241 282.348C227.038 277.146 231.731 271.944 237.627 272.222C239.615 272.222 241.58 273.031 243.569 272.962C249.395 272.777 252.816 264.246 248.655 260.13C247.689 259.35 246.82 258.458 246.065 257.472C245.658 256.443 245.62 255.305 245.957 254.251C246.294 253.197 246.986 252.293 247.915 251.692C249.789 250.538 251.915 249.856 254.111 249.704C259.082 248.871 264.052 248.108 269.023 247.392C274.525 246.536 281.554 243.693 280.791 238.144C280.12 233.381 273.67 231.208 272.722 226.584C272.641 225.409 272.432 224.246 272.098 223.116C270.572 220.111 266.041 221.313 263.127 222.931C262.755 221.884 262.146 220.938 261.348 220.165C260.549 219.392 259.583 218.814 258.525 218.476C257.466 218.138 256.344 218.05 255.246 218.217C254.147 218.384 253.102 218.803 252.192 219.44C249.233 221.752 248.863 226.145 247.846 229.798C245.395 238.653 238.367 245.357 231.662 251.576C229.628 253.912 226.853 255.479 223.801 256.015C220.75 256.154 217.536 252.871 218.946 250.189C219.894 248.34 222.553 247.276 222.299 245.195C221.929 242.629 217.42 242.883 216.542 240.34C218.322 233.034 226.691 230.029 233.095 226.122C240.953 221.329 246.927 213.984 250.019 205.314C250.354 204.657 250.545 203.935 250.581 203.198C250.617 202.461 250.496 201.724 250.227 201.037C249.279 199.211 246.805 198.91 244.701 198.91C239.754 198.91 233.604 199.511 231.801 204.112C230.853 206.586 231.546 209.383 230.945 211.95C229.234 219.625 218.715 220.481 212.311 225.035C210.051 227.096 207.632 228.975 205.075 230.653C201.932 231.775 198.609 232.308 195.272 232.225C194.694 232.225 193.191 232.225 192.59 232.225C190.556 235.046 188.961 237.612 187.088 240.525C185.215 243.438 183.319 246.721 181.562 249.773C173.366 264.087 166.732 279.24 161.772 294.971C159.969 300.497 158.397 306.531 157.01 312.103C155.622 317.675 154.698 323.2 153.703 329.026C155.664 324.318 157.076 319.4 157.911 314.368C159.206 308.774 161.009 302.878 165.333 299.225Z" fill="black"/>
</g>
<g opacity="0.3">
<path d="M361.107 193.847C363.304 190.957 362.656 186.911 364.09 183.466C366.402 177.918 373.823 175.93 376.389 170.473C377.36 168.37 377.615 165.85 379.325 164.231C381.036 162.613 382.886 162.682 384.412 161.503C387.857 158.867 386.423 152.88 382.77 150.568C373.638 144.718 356.83 151.469 348.947 157.18C338.797 164.532 328.856 173.363 315.354 172.508C311.632 172.254 307.771 171.236 304.28 172.508C300.789 173.779 298.639 179.074 301.644 181.27C303.309 182.495 305.69 182.172 307.563 183.027C311.054 184.646 311.401 189.686 309.69 193.13C307.979 196.575 304.927 199.141 302.916 202.378C300.971 205.583 300.097 209.324 300.419 213.059C300.449 214.37 300.745 215.66 301.29 216.853C301.834 218.045 302.616 219.114 303.586 219.995C307.771 223.347 314.175 220.481 317.735 216.458C321.296 212.435 323.747 207.21 328.347 204.459C330.726 203.199 333.283 202.31 335.93 201.823L353.524 197.639C356.408 197.269 359.081 195.932 361.107 193.847V193.847Z" fill="black"/>
</g>
<g opacity="0.3">
<path d="M616.785 364.584C616.785 361.231 616.646 357.902 616.484 354.596C616.322 351.29 616.161 347.938 615.837 344.655C615.583 341.996 615.351 339.337 614.982 336.725C614.612 334.112 614.242 330.783 613.802 328.055C612.532 320.151 610.819 312.324 608.67 304.612C607.791 301.583 606.358 298.347 605.341 295.364C604.324 292.382 603.329 289.423 602.22 286.463C601.041 284.151 599.792 282.094 598.428 279.944C585.481 259.46 566.685 243.392 552.444 223.787C547.82 217.406 544.19 212.227 535.983 210.886C523.822 208.99 517.649 215.926 509.025 204.39C506.713 201.292 502.668 198.425 499.223 200.251L501.997 207.626C502.225 208.142 502.321 208.706 502.274 209.268C502.09 211.002 499.523 211.464 498.044 210.516C496.723 209.335 495.627 207.925 494.807 206.355C493.795 205.05 492.522 203.97 491.07 203.184C489.618 202.397 488.018 201.921 486.372 201.787C484.726 201.652 483.07 201.861 481.509 202.4C479.948 202.94 478.517 203.799 477.306 204.921C477.198 203.75 476.782 202.628 476.1 201.669C475.417 200.711 474.493 199.95 473.422 199.465C473.244 200.577 472.834 201.639 472.219 202.582C471.603 203.524 470.795 204.326 469.848 204.935C468.9 205.544 467.835 205.946 466.722 206.115C465.609 206.284 464.473 206.216 463.388 205.915C462.694 203.603 466.717 203.257 468.127 201.292C469.537 199.326 467.85 196.968 466.208 195.465C461.745 191.591 456.072 189.392 450.163 189.246C446.441 189.246 442.418 189.871 439.182 187.952C437.309 186.842 435.968 184.992 434.049 183.929C429.957 181.617 424.801 183.744 420.709 186.033C415.068 189.154 409.15 193.107 407.254 199.257C405.358 205.407 409.705 213.684 416.109 212.897C417.691 212.396 419.356 212.208 421.01 212.343C422.091 212.824 423.002 213.619 423.624 214.626C424.247 215.632 424.552 216.802 424.501 217.984C424.357 220.347 424.728 222.713 425.588 224.92C426.697 227 430.05 228.018 431.321 226.076C434.35 223.186 433.98 218.354 433.217 214.262C432.454 210.169 431.622 205.569 434.049 202.216C436.477 198.864 443.528 199.904 443.043 204.066C442.765 206.378 439.991 208.274 440.107 210.724C440.222 213.175 443.274 214.562 445.771 214.446C448.268 214.331 450.834 213.452 453.261 214.1C455.689 214.747 457.677 217.891 455.92 219.695C452.845 223.162 444.892 217.221 443.32 221.544C442.858 222.631 443.32 223.856 443.32 225.081C443.02 228.688 438.488 230.006 434.882 230.445C431.304 231.186 427.591 230.922 424.154 229.682C420.871 228.133 418.629 223.81 420.501 220.735C420 220.478 419.45 220.327 418.888 220.292C418.325 220.257 417.761 220.338 417.231 220.532C416.702 220.725 416.218 221.025 415.81 221.414C415.401 221.804 415.078 222.273 414.86 222.793C414.083 224.942 413.939 227.268 414.444 229.497C410.629 228.642 407.184 231.809 405.011 235.092C402.838 238.375 400.711 242.028 396.989 243.253C393.267 244.479 388.065 242.837 386.1 246.236C383.556 250.651 390.932 256.246 388.412 260.639C386.932 263.113 383.395 262.951 380.597 263.806C373.176 265.91 370.61 276.753 375.65 282.533C380.69 288.313 390.793 287.989 396.133 282.533C399.879 278.741 401.382 273.401 404.063 268.823C406.745 264.246 411.855 260.154 416.941 261.633C418.902 262.37 420.695 263.495 422.212 264.939L429.61 271.181C431.206 272.499 432.939 274.164 432.778 276.221C432.639 277.886 431.344 279.181 430.789 280.73C429.24 285.192 435.691 289.423 439.76 286.995C443.829 284.568 444.245 278.325 441.471 274.488C437.656 269.193 428.986 266.534 429.217 259.969C433.633 256.362 440.592 260.154 443.089 265.286C445.586 270.419 445.748 276.406 447.921 281.678C450.094 286.949 456.174 291.665 461.261 289.099C459.92 284.475 458.648 279.99 457.307 275.459C460.567 273.031 464.243 280.082 468.15 278.926C470.462 278.187 470.809 274.788 469.769 272.499C468.728 270.21 466.925 268.315 466.486 265.841C465.746 261.333 470.763 257.31 475.294 258.05C477.513 258.606 479.516 259.808 481.051 261.504C482.586 263.199 483.584 265.312 483.918 267.575C484.099 269.373 484.495 271.142 485.097 272.846C486.808 276.383 491.177 277.47 494.807 278.926C498.437 280.383 502.205 284.036 500.702 287.666C499.986 289.238 498.39 290.74 498.922 292.289C499.454 293.838 501.627 294.347 501.627 295.896C501.627 296.913 500.517 297.63 499.546 298.023C497.119 299.017 494.46 299.364 492.102 300.497C490.884 300.967 489.828 301.781 489.065 302.84C488.301 303.899 487.862 305.157 487.802 306.462C488.079 310.161 492.426 311.918 494.529 314.993C496.633 318.068 496.24 321.767 497.489 325.096C498.974 328.024 500.848 330.738 503.061 333.165C509.164 341.487 510.621 352.215 513.603 362.087C514.921 366.549 517.348 371.52 521.926 372.375C524.469 372.576 527.019 372.081 529.301 370.942C535.89 368.329 542.757 365.509 547.357 360.168C551.958 354.827 553.553 346.065 548.791 340.794C548.24 340.029 547.409 339.513 546.479 339.36C545.234 339.433 544.034 339.849 543.011 340.563C541.253 341.189 539.353 341.305 537.532 340.895C535.711 340.486 534.044 339.569 532.723 338.251C530.107 335.594 528.034 332.453 526.619 329.003L521.163 317.998C522.371 317.224 523.804 316.876 525.232 317.01C526.661 317.144 528.004 317.752 529.047 318.738C531.065 320.759 532.87 322.982 534.434 325.373C539.913 332.309 548.953 335.245 557.692 336.286C559.93 336.402 562.136 336.862 564.234 337.65C570.777 340.632 572.65 350.25 579.54 352.307C581.522 352.626 583.483 353.066 585.412 353.625C586.696 354.431 587.796 355.497 588.64 356.756C589.485 358.015 590.055 359.437 590.313 360.931C591.816 366.364 592.325 372.074 594.613 377.23C596.902 382.386 601.549 387.056 607.075 387.148C608.806 387.124 610.515 386.756 612.102 386.065C613.69 385.375 615.125 384.375 616.322 383.125C616.6 378.039 616.947 372.768 616.947 367.612C616.854 366.711 616.854 365.647 616.785 364.584Z" fill="black"/>
</g>
<g opacity="0.3">
<path d="M522.504 461.269C519.036 461.94 518.342 463.997 516.447 466.563C513.996 469.893 510.482 473.245 508.239 476.551C504.471 482.146 507.869 490.885 502.899 495.601C501.782 496.423 500.709 497.303 499.685 498.237C498.785 499.483 498.408 501.03 498.632 502.55C498.857 504.07 499.666 505.443 500.887 506.375C502.168 507.232 503.669 507.703 505.21 507.731C506.751 507.76 508.268 507.345 509.58 506.537C512.177 504.834 514.066 502.246 514.898 499.254C515.231 497.065 516.158 495.01 517.579 493.313C520.446 490.816 524.862 492.665 528.63 492.133C544.537 489.891 537.693 458.264 522.504 461.269Z" fill="black"/>
</g>
<g opacity="0.3">
<path d="M527.914 417.273C537.162 409.32 540.814 391.356 529.393 387.218C525.07 385.645 520.146 386.917 515.799 385.252C510.204 383.079 507.592 376.814 505.58 371.15C500.263 356.338 494.953 341.511 489.651 326.668C486.461 317.744 481.606 307.386 472.219 306.069C466.879 305.329 461.723 307.872 456.429 308.82C438.234 312.149 407.624 268.083 393.775 297.746C391.833 289.677 378.748 292.706 374.563 299.873C370.378 307.04 369.477 316.495 362.841 321.466C357.778 325.258 350.357 325.489 346.242 330.275C343.329 333.65 342.82 338.389 342.45 342.828C341.756 351.313 341.063 359.775 340.346 368.26C339.791 375.08 339.329 382.386 342.658 388.35C345.987 394.315 354.888 397.598 359.951 392.974C362.263 390.847 363.258 387.634 365.153 385.114C366.729 383.111 368.853 381.608 371.265 380.788C373.678 379.967 376.277 379.864 378.748 380.49C382.818 381.892 386.409 384.416 389.105 387.772C412.802 413.204 421.287 449.617 422.328 484.411C422.536 490.792 422.536 497.335 424.871 503.254C427.622 510.19 433.402 515.831 435.113 523.09C436.43 528.685 435.113 534.812 437.586 540.037C442.002 549.631 456.729 550.024 464.752 543.158C472.774 536.291 475.548 525.194 477.19 514.744C478.831 504.294 479.849 493.312 485.698 484.527C489.328 479.048 494.645 474.678 497.258 468.644C500.795 460.205 498.182 450.149 501.465 441.641C505.812 430.266 518.712 425.226 527.914 417.273Z" fill="black"/>
</g>
<path d="M233.373 815.805C220.692 816.837 208.001 813.952 197.012 807.54C186.024 801.129 177.268 791.499 171.927 779.952C166.587 768.405 164.919 755.497 167.149 742.971C169.379 730.446 175.4 718.907 184.397 709.913C193.395 700.919 204.937 694.903 217.463 692.678C229.989 690.453 242.897 692.126 254.442 697.471C265.987 702.816 275.613 711.576 282.02 722.567C288.427 733.558 291.307 746.251 290.27 758.931C289.055 773.613 282.669 787.387 272.25 797.801C261.831 808.216 248.055 814.596 233.373 815.805V815.805Z" fill="#FAFAFA"/>
<path d="M233.373 815.805L234.367 815.62L237.303 815.204C238.861 814.975 240.405 814.658 241.927 814.256C244.051 813.778 246.144 813.168 248.192 812.429C261.401 807.779 272.663 798.822 280.166 786.998C282.644 783.141 284.691 779.025 286.27 774.722C287.062 772.447 287.733 770.131 288.281 767.786C288.536 766.56 288.836 765.358 289.044 764.11C289.252 762.861 289.368 761.59 289.53 760.295C289.693 759.007 289.762 757.709 289.738 756.411C289.738 755.116 289.738 753.799 289.738 752.458C289.599 749.822 289.368 747.117 288.998 744.412C288.721 743.048 288.466 741.707 288.189 740.343C288.027 739.673 287.935 738.979 287.75 738.309L287.102 736.297C286.686 734.956 286.247 733.592 285.808 732.228L284.074 728.298L283.195 726.31C282.871 725.662 282.478 725.038 282.108 724.391L279.797 720.576L277.161 716.969L275.843 715.143L274.317 713.455C270.267 708.792 265.527 704.776 260.261 701.549L256.145 699.237C254.735 698.52 253.255 697.942 251.799 697.272C251.059 696.971 250.342 696.601 249.487 696.324L247.175 695.607C245.659 695.065 244.115 694.602 242.551 694.22C236.121 692.735 229.508 692.198 222.923 692.625C210.34 693.728 198.393 698.641 188.674 706.708C178.954 714.775 171.925 725.613 168.523 737.777C167.073 743.229 166.358 748.851 166.396 754.492C166.341 755.851 166.403 757.213 166.581 758.561L166.928 762.584C167.413 765.173 167.852 767.786 168.523 770.26C171.088 779.498 175.739 788.024 182.117 795.182C187.403 801.063 193.738 805.908 200.798 809.47L205.421 811.528C206.901 812.175 208.427 812.545 209.837 813.054C212.429 813.895 215.08 814.544 217.767 814.996C221.491 815.65 225.269 815.952 229.05 815.897H233.003H232.009L229.05 816.036C225.252 816.182 221.449 815.95 217.698 815.342C214.98 814.926 212.297 814.3 209.675 813.47C208.242 813.007 206.693 812.637 205.19 811.99L200.566 809.955C192.599 806.05 185.545 800.508 179.865 793.692C174.184 786.876 170.004 778.939 167.598 770.398C166.905 767.878 166.465 765.243 165.934 762.607L165.587 758.538C165.414 757.166 165.344 755.782 165.379 754.4C165.241 745.328 167.102 736.338 170.83 728.067C174.558 719.796 180.061 712.447 186.949 706.543C197.097 697.722 209.799 692.376 223.2 691.284C229.911 690.838 236.65 691.391 243.199 692.925C244.801 693.314 246.383 693.785 247.938 694.336L250.25 695.075C251.036 695.353 251.753 695.723 252.562 696.046C254.042 696.717 255.544 697.318 257.001 698.058L261.162 700.37C266.533 703.678 271.366 707.786 275.496 712.554L277.022 714.264L278.386 716.114L281.045 719.79C281.785 721.108 282.548 722.402 283.357 723.697C283.704 724.344 284.12 724.969 284.444 725.639L285.345 727.674C285.923 729.015 286.501 730.356 287.102 731.696C287.703 733.037 287.958 734.448 288.397 735.812L289.044 737.869C289.229 738.54 289.345 739.256 289.484 739.95L290.316 744.088C290.663 746.84 290.894 749.591 291.033 752.273C291.033 753.637 291.033 754.978 290.917 756.295C290.922 757.617 290.845 758.937 290.686 760.249C290.501 761.544 290.339 762.838 290.177 764.11C290.015 765.381 289.645 766.607 289.391 767.832C288.819 770.239 288.124 772.616 287.31 774.953C285.672 779.311 283.572 783.481 281.045 787.391C276.687 794.122 271.094 799.966 264.561 804.615C259.631 808.084 254.227 810.825 248.516 812.753C246.435 813.463 244.312 814.042 242.158 814.487C240.635 814.859 239.091 815.137 237.534 815.319L234.598 815.62C234.198 815.726 233.787 815.788 233.373 815.805Z" fill="#263238"/>
<path d="M635.141 394.015C635.047 389.447 635.217 384.877 635.65 380.328C635.682 375.758 636.006 371.194 636.621 366.665C637.207 371.219 637.284 375.825 636.852 380.397C636.812 384.988 636.238 389.557 635.141 394.015Z" fill="#263238"/>
<path d="M623.443 447.42C624.32 442.941 625.462 438.517 626.865 434.173C627.901 429.724 629.198 425.339 630.749 421.041C630.371 425.616 629.464 430.131 628.044 434.497C626.996 438.962 625.453 443.297 623.443 447.42V447.42Z" fill="#263238"/>
<path d="M600.462 497.081C602.279 492.894 604.356 488.824 606.682 484.897C608.645 480.777 610.853 476.778 613.294 472.921C610.189 481.544 605.868 489.68 600.462 497.081V497.081Z" fill="#263238"/>
<path d="M567.355 540.499C570.033 536.802 572.936 533.273 576.048 529.934C578.841 526.317 581.86 522.88 585.088 519.645C582.811 523.631 580.08 527.339 576.95 530.696C574.136 534.319 570.917 537.608 567.355 540.499V540.499Z" fill="#263238"/>
<path d="M525.717 575.918C529.107 572.862 532.69 570.027 536.445 567.433C539.963 564.51 543.653 561.8 547.496 559.318C544.417 562.724 540.958 565.765 537.185 568.381C533.649 571.305 529.804 573.832 525.717 575.918V575.918Z" fill="#263238"/>
<path d="M477.421 601.557C481.401 599.315 485.516 597.323 489.744 595.593C493.803 593.489 497.988 591.636 502.274 590.044C498.526 592.695 494.493 594.92 490.252 596.679C486.174 598.786 481.869 600.423 477.421 601.557V601.557Z" fill="#263238"/>
<path d="M424.755 616.146C429.126 614.828 433.573 613.778 438.072 613.002C442.486 611.812 446.973 610.908 451.504 610.297C442.914 613.518 433.906 615.488 424.755 616.146V616.146Z" fill="#263238"/>
<path d="M370.217 619.082C374.763 618.609 379.343 618.532 383.903 618.851C388.464 618.532 393.043 618.609 397.59 619.082C388.511 620.377 379.295 620.377 370.217 619.082Z" fill="#263238"/>
<path d="M316.187 610.366C320.716 610.989 325.202 611.893 329.619 613.071C334.116 613.857 338.562 614.907 342.936 616.215C338.352 616.08 333.798 615.421 329.365 614.25C324.84 613.452 320.42 612.15 316.187 610.366V610.366Z" fill="#263238"/>
<path d="M265.416 590.044C269.694 591.638 273.871 593.491 277.924 595.593C282.154 597.317 286.27 599.31 290.247 601.557C281.468 598.888 273.11 594.997 265.416 589.998V590.044Z" fill="#263238"/>
<path d="M220.218 559.341C224.049 561.821 227.731 564.523 231.246 567.433C235.001 570.028 238.584 572.862 241.973 575.918C237.852 573.852 233.975 571.332 230.414 568.404C226.683 565.778 223.263 562.738 220.218 559.341V559.341Z" fill="#263238"/>
<path d="M182.603 519.645C185.817 522.893 188.835 526.329 191.642 529.934C194.748 533.279 197.651 536.807 200.335 540.499C196.771 537.62 193.551 534.338 190.741 530.72C187.614 527.351 184.883 523.636 182.603 519.645V519.645Z" fill="#263238"/>
<path d="M154.374 472.829C156.834 476.686 159.051 480.693 161.009 484.828C163.326 488.783 165.403 492.875 167.228 497.081C164.373 493.515 161.93 489.637 159.946 485.521C157.62 481.512 155.751 477.255 154.374 472.829V472.829Z" fill="#263238"/>
<path d="M136.942 421.041C138.491 425.337 139.78 429.722 140.803 434.173C142.219 438.515 143.369 442.939 144.248 447.42C142.218 443.303 140.666 438.967 139.624 434.497C138.21 430.131 137.31 425.615 136.942 421.041Z" fill="#263238"/>
<path d="M131.07 366.688C131.672 371.218 131.997 375.781 132.041 380.351C132.487 384.899 132.649 389.47 132.526 394.038C131.463 389.575 130.897 385.008 130.838 380.421C130.393 375.849 130.47 371.242 131.07 366.688V366.688Z" fill="#263238"/>
<path d="M136.919 312.334C136.547 316.886 135.891 321.411 134.954 325.882C134.43 330.422 133.62 334.923 132.526 339.36C132.422 334.773 132.841 330.189 133.774 325.697C134.318 321.139 135.373 316.656 136.919 312.334Z" fill="#263238"/>
<path d="M154.374 260.523C153.026 264.89 151.404 269.168 149.519 273.332C148.02 277.642 146.26 281.858 144.248 285.955C145.12 281.446 146.517 277.054 148.409 272.869C149.925 268.542 151.926 264.4 154.374 260.523V260.523Z" fill="#263238"/>
<path d="M182.603 213.707C180.32 217.663 177.811 221.484 175.089 225.151C172.698 229.036 170.073 232.773 167.228 236.341C169.081 232.136 171.408 228.157 174.164 224.48C176.564 220.584 179.394 216.97 182.603 213.707V213.707Z" fill="#263238"/>
<path d="M220.195 174.034C217.128 177.423 213.862 180.627 210.415 183.628C207.25 186.925 203.876 190.014 200.312 192.876C203.009 189.174 206.111 185.786 209.56 182.773C212.757 179.461 216.326 176.528 220.195 174.034V174.034Z" fill="#263238"/>
<path d="M265.416 143.354C261.709 146.006 257.849 148.438 253.857 150.637C250.05 153.179 246.098 155.495 242.02 157.573C245.438 154.511 249.201 151.857 253.232 149.666C257.04 147.105 261.128 144.988 265.416 143.354V143.354Z" fill="#263238"/>
<path d="M316.163 123.079C311.965 124.87 307.665 126.413 303.286 127.702C299.029 129.337 294.674 130.704 290.246 131.795C294.249 129.566 298.492 127.798 302.893 126.523C307.169 124.868 311.622 123.713 316.163 123.079Z" fill="#263238"/>
<path d="M370.216 114.27C365.724 115.115 361.184 115.686 356.622 115.981C352.112 116.666 347.565 117.075 343.005 117.206C351.892 114.953 361.053 113.965 370.216 114.27V114.27Z" fill="#263238"/>
<path d="M424.732 117.206C420.164 117.061 415.61 116.644 411.092 115.958C406.53 115.675 401.99 115.111 397.497 114.27C402.079 113.911 406.687 114.082 411.23 114.779C415.81 115.06 420.341 115.874 424.732 117.206V117.206Z" fill="#263238"/>
<path d="M477.421 131.795C472.993 130.678 468.638 129.288 464.382 127.633C459.991 126.359 455.682 124.814 451.481 123.009C456.02 123.657 460.471 124.812 464.752 126.454C469.166 127.741 473.417 129.533 477.421 131.795Z" fill="#263238"/>
<path d="M525.694 157.434C521.61 155.368 517.656 153.052 513.857 150.498C509.861 148.315 506 145.89 502.297 143.239C506.598 144.838 510.702 146.925 514.528 149.458C518.547 151.674 522.294 154.351 525.694 157.434V157.434Z" fill="#263238"/>
<path d="M567.332 192.83C563.78 189.956 560.406 186.867 557.229 183.582C553.783 180.596 550.525 177.399 547.473 174.011C551.319 176.499 554.871 179.416 558.061 182.704C561.524 185.719 564.634 189.116 567.332 192.83V192.83Z" fill="#263238"/>
<path d="M600.462 236.317C597.597 232.761 594.963 229.023 592.579 225.128C589.833 221.437 587.323 217.576 585.065 213.568C588.303 216.823 591.158 220.437 593.573 224.342C596.314 228.061 598.625 232.078 600.462 236.317V236.317Z" fill="#263238"/>
<path d="M623.443 285.932C621.425 281.827 619.657 277.603 618.149 273.285C616.286 269.121 614.665 264.852 613.294 260.5C615.754 264.373 617.763 268.516 619.282 272.846C621.152 277.039 622.548 281.428 623.443 285.932Z" fill="#263238"/>
<path d="M635.141 339.314C634.1 334.872 633.328 330.371 632.83 325.836C631.891 321.365 631.235 316.84 630.864 312.288C632.412 316.611 633.474 321.093 634.032 325.651C634.927 330.147 635.3 334.732 635.141 339.314V339.314Z" fill="#263238"/>
<path d="M251.128 695.908C250.828 695.769 260.053 674.823 271.751 649.114C283.449 623.405 293.16 602.667 293.46 602.875C293.761 603.083 284.536 623.96 272.838 649.669C261.139 675.378 251.429 696.046 251.128 695.908Z" fill="#263238"/>
<path d="M234.089 754.908C237.022 753.62 239.511 751.497 241.246 748.804C242.981 746.112 243.885 742.968 243.846 739.765C243.969 737.679 243.667 735.59 242.955 733.625C242.244 731.66 241.14 729.86 239.71 728.336C238.281 726.812 236.555 725.596 234.639 724.761C232.723 723.926 230.658 723.491 228.568 723.482C226.478 723.472 224.408 723.889 222.485 724.706C220.562 725.523 218.825 726.724 217.382 728.235C215.938 729.746 214.818 731.536 214.089 733.494C213.36 735.453 213.039 737.539 213.143 739.626C213.085 742.854 213.982 746.027 215.722 748.746C217.462 751.465 219.967 753.609 222.923 754.908C199.295 758.469 200.358 784.154 200.358 784.154L256.261 784.409C256.261 784.409 257.533 758.446 234.089 754.908Z" fill="#FB8500"/>
<path d="M695.784 659.957C684.222 665.282 671.305 666.929 658.777 664.677C646.25 662.425 634.715 656.381 625.732 647.363C616.749 638.345 610.751 626.787 608.548 614.251C606.345 601.715 608.042 588.804 613.412 577.263C618.782 565.723 627.565 556.109 638.574 549.72C649.583 543.331 662.288 540.476 674.972 541.539C687.656 542.603 699.708 547.534 709.499 555.667C719.291 563.8 726.35 574.742 729.723 587.015C733.613 601.224 732.338 616.351 726.123 629.707C719.909 643.063 709.158 653.782 695.784 659.957V659.957Z" fill="#FAFAFA"/>
<path d="M695.784 659.957C696.046 659.745 696.333 659.567 696.639 659.425L699.252 658.038C700.658 657.278 702.024 656.444 703.344 655.541C705.18 654.358 706.941 653.061 708.615 651.657C713.213 647.851 717.26 643.424 720.637 638.502C727.645 628.076 731.41 615.808 731.457 603.245C731.424 600.802 731.254 598.363 730.948 595.939C730.763 594.714 730.648 593.466 730.416 592.217C730.185 590.969 729.839 589.743 729.538 588.495C729.257 587.23 728.886 585.986 728.428 584.773L727.157 581.027C726.116 578.577 724.96 576.126 723.689 573.699L721.539 570.161C721.169 569.583 720.822 568.982 720.429 568.404L719.134 566.74C718.279 565.607 717.4 564.428 716.522 563.364L713.539 560.266L712.037 558.694C711.505 558.185 710.927 557.746 710.372 557.261L706.997 554.44L703.297 551.943L701.402 550.695L699.413 549.631C693.998 546.655 688.158 544.527 682.097 543.32L677.473 542.51C675.901 542.326 674.283 542.279 672.711 542.141L670.399 542.002H668.087C666.468 542.117 664.85 542.002 663.232 542.302C656.689 543.098 650.3 544.859 644.274 547.527C632.764 552.828 623.153 561.524 616.731 572.447C610.308 583.37 607.382 595.997 608.346 608.632C608.854 614.252 610.106 619.779 612.068 625.07C612.496 626.364 613.022 627.624 613.641 628.838L615.328 632.468C616.715 634.78 617.987 637.092 619.467 639.15C625.047 646.948 632.349 653.356 640.806 657.876C647.782 661.61 655.397 664.002 663.255 664.928L668.272 665.274C669.89 665.274 671.462 665.274 672.896 665.274C675.625 665.172 678.345 664.878 681.034 664.396C684.794 663.694 688.48 662.633 692.038 661.229L694.813 660.211C695.123 660.071 695.449 659.97 695.784 659.911C695.784 659.911 695.483 660.073 694.859 660.327L692.131 661.46C688.613 662.913 684.957 664.005 681.218 664.72C678.536 665.291 675.817 665.669 673.08 665.852C671.555 665.852 669.982 666.084 668.457 665.991L663.347 665.667C654.528 664.732 646.006 661.946 638.337 657.492C630.668 653.038 624.025 647.016 618.842 639.82C617.317 637.693 616.022 635.358 614.611 633.046L612.878 629.347C612.244 628.117 611.703 626.842 611.259 625.532C609.244 620.155 607.954 614.534 607.421 608.817C606.4 595.982 609.325 583.141 615.804 572.014C622.283 560.887 632.006 552.004 643.673 546.556C649.832 543.857 656.35 542.066 663.023 541.239C664.642 540.985 666.306 541.054 667.948 540.938H670.399C671.231 540.938 672.04 540.938 672.849 541.077C674.468 541.193 676.109 541.239 677.704 541.447L682.467 542.279C688.636 543.545 694.577 545.743 700.084 548.799L702.118 549.886L704.014 551.157L707.783 553.723L711.227 556.613C711.782 557.099 712.383 557.561 712.915 558.07L714.441 559.665L717.47 562.832L720.128 566.277L721.423 567.965C721.839 568.543 722.186 569.167 722.556 569.768L724.752 573.375C726.024 575.849 727.18 578.346 728.22 580.819C728.659 582.114 729.076 583.386 729.515 584.634C729.97 585.871 730.34 587.138 730.625 588.426C730.925 589.72 731.203 590.969 731.48 592.24C731.757 593.512 731.85 594.76 732.012 596.009C732.32 598.463 732.482 600.933 732.497 603.407C732.46 608.076 731.917 612.727 730.879 617.279C727.696 631.004 719.943 643.24 708.892 651.981C707.193 653.372 705.401 654.647 703.529 655.795C702.191 656.652 700.801 657.424 699.367 658.107L696.708 659.402L695.784 659.957Z" fill="#263238"/>
<path d="M675.577 601.974C678.504 600.678 680.988 598.553 682.722 595.862C684.456 593.171 685.364 590.031 685.334 586.83C685.459 584.745 685.157 582.655 684.447 580.69C683.738 578.724 682.635 576.924 681.206 575.399C679.778 573.874 678.053 572.656 676.138 571.82C674.223 570.984 672.157 570.547 670.068 570.536C667.978 570.525 665.908 570.94 663.984 571.756C662.061 572.572 660.323 573.772 658.879 575.281C657.434 576.791 656.312 578.58 655.582 580.537C654.852 582.495 654.528 584.581 654.631 586.669C654.562 589.901 655.454 593.082 657.195 595.807C658.937 598.532 661.448 600.678 664.411 601.974C640.713 605.534 641.846 631.173 641.846 631.173L697.726 631.428C697.726 631.428 698.997 605.511 675.577 601.974Z" fill="#FB8500"/>
<path d="M620.646 565.537C620.438 565.792 610.357 558.162 598.127 548.475C585.897 538.788 576.164 530.72 576.372 530.465C576.58 530.211 586.66 537.84 598.867 547.527C611.074 557.214 620.854 565.283 620.646 565.537Z" fill="#263238"/>
<path d="M98.61 166.266C85.9305 167.298 73.2396 164.414 62.2514 158.004C51.2632 151.593 42.5071 141.965 37.1656 130.419C31.824 118.874 30.1544 105.967 32.3824 93.4422C34.6103 80.9174 40.6283 69.3781 49.6237 60.3827C58.6191 51.3873 70.1585 45.3692 82.6833 43.1413C95.2081 40.9134 108.115 42.5829 119.661 47.9245C131.206 53.266 140.834 62.0222 147.245 73.0104C153.655 83.9986 156.539 96.6894 155.507 109.369C154.293 124.053 147.908 137.83 137.49 148.248C127.071 158.667 113.294 165.051 98.61 166.266V166.266Z" fill="#FAFAFA"/>
<path d="M98.6099 166.266C98.9346 166.172 99.2675 166.11 99.6041 166.081L102.54 165.641C104.1 165.425 105.645 165.109 107.164 164.694C109.291 164.226 111.384 163.616 113.429 162.867C122.156 159.777 130.093 154.799 136.675 148.289C143.256 141.779 148.321 133.897 151.507 125.206C152.312 122.935 152.984 120.619 153.518 118.27C153.773 117.068 154.096 115.958 154.281 114.594L154.767 110.802C154.925 109.514 155.002 108.216 154.998 106.918V102.965C154.859 100.306 154.628 97.601 154.281 94.8961L153.449 90.8271C153.31 90.1566 153.195 89.463 153.01 88.7926L152.363 86.7812C151.946 85.4402 151.507 84.0993 151.068 82.7353L149.473 78.62L148.594 76.6318C148.27 75.9844 147.877 75.3602 147.531 74.736L145.219 70.8982C144.34 69.7191 143.485 68.5862 142.606 67.2915L141.265 65.4651L139.739 63.8005C135.69 59.1298 130.95 55.1066 125.683 51.8709L121.567 49.559C120.157 48.8423 118.678 48.2412 117.221 47.5938C116.481 47.2701 115.765 46.9233 114.909 46.6459L112.597 45.9061C111.048 45.4668 109.545 44.8426 107.973 44.5189C101.55 43.0419 94.9448 42.5123 88.368 42.9468C75.4002 44.0992 63.1229 49.2997 53.2728 57.8126C44.0931 65.8125 37.4415 76.3122 34.13 88.0296C32.6805 93.4898 31.9652 99.1188 32.003 104.768C31.9607 106.127 32.0225 107.487 32.1879 108.837L32.5347 112.837C33.0434 115.449 33.4595 118.039 34.13 120.512C36.6938 129.756 41.3535 138.284 47.7473 145.435C53.0284 151.321 59.3643 156.167 66.4278 159.723L71.0516 161.804C72.5313 162.451 74.0571 162.821 75.4674 163.306C78.0606 164.149 80.7106 164.806 83.3974 165.271C87.1229 165.915 90.8993 166.216 94.6796 166.173H97.6389C97.9693 166.137 98.3026 166.137 98.633 166.173C98.3024 166.204 97.9696 166.204 97.6389 166.173L94.6796 166.312C88.124 166.573 81.5718 165.713 75.3056 163.769C73.8722 163.283 72.3232 162.913 70.8204 162.289L66.1965 160.231C58.2268 156.335 51.1701 150.8 45.4887 143.987C39.8072 137.174 35.6292 129.237 33.2283 120.697C32.5347 118.177 32.0955 115.542 31.5868 112.883L31.2169 108.814C31.0433 107.442 30.9737 106.058 31.0088 104.676C30.9601 98.9344 31.6754 93.2122 33.1358 87.6597C36.5774 75.2371 43.7389 64.1655 53.658 55.9326C63.577 47.6998 75.7783 42.7003 88.6223 41.6059C95.3241 41.1639 102.054 41.7091 108.597 43.2242C110.239 43.5479 111.765 44.1721 113.221 44.6345L115.533 45.3743C116.296 45.6749 117.036 46.0217 117.845 46.3454C119.325 47.0158 120.851 47.64 122.284 48.3568L126.399 50.8768C131.763 54.1759 136.589 58.277 140.71 63.0376L142.259 64.7484L143.6 66.5979L146.259 70.2971C147.022 71.5917 147.762 72.9095 148.571 74.1811C148.941 74.8516 149.334 75.4758 149.658 76.1231L150.559 78.1576L152.316 82.1804C152.756 83.5676 153.195 84.9547 153.611 86.3188L154.258 88.3533C154.443 89.0469 154.559 89.7405 154.698 90.434L155.53 94.5724C155.877 97.3236 156.108 100.075 156.247 102.78C156.247 104.121 156.247 105.462 156.247 106.803C156.263 108.116 156.185 109.43 156.015 110.733C155.854 112.028 155.669 113.322 155.507 114.594C155.345 115.865 154.975 117.091 154.721 118.339C154.153 120.748 153.458 123.125 152.64 125.46C151.011 129.822 148.91 133.993 146.375 137.898C142.004 144.669 136.367 150.533 129.775 155.168C124.799 158.65 119.349 161.398 113.591 163.329C111.514 164.046 109.39 164.618 107.233 165.04C105.678 165.441 104.093 165.719 102.494 165.873L99.5578 166.196C99.2444 166.246 98.9273 166.269 98.6099 166.266Z" fill="#263238"/>
<path d="M99.3497 105.184C102.275 103.886 104.757 101.761 106.491 99.0706C108.224 96.3801 109.133 93.2415 109.106 90.0411C109.257 87.9376 108.974 85.8256 108.274 83.8361C107.575 81.8465 106.475 80.0218 105.041 78.475C103.608 76.9283 101.872 75.6925 99.9414 74.8442C98.0106 73.996 95.9263 73.5534 93.8175 73.5439C91.7086 73.5343 89.6203 73.9581 87.682 74.7889C85.7437 75.6197 83.9967 76.8398 82.5494 78.3735C81.102 79.9073 79.9852 81.722 79.2681 83.7051C78.5509 85.6883 78.2488 87.7976 78.3805 89.9023C78.3219 93.1301 79.2191 96.3031 80.9592 99.0222C82.6993 101.741 85.2045 103.885 88.1599 105.184C64.5319 108.745 65.6185 134.43 65.6185 134.43L121.498 134.685C121.498 134.685 122.839 108.675 99.3497 105.184Z" fill="#FB8500"/>
<path d="M194.833 198.841C194.602 199.095 180.961 188.275 164.546 174.681C148.132 161.087 134.815 149.851 135.023 149.597C135.231 149.342 148.779 160.162 165.309 173.756C181.84 187.351 195.041 198.61 194.833 198.841Z" fill="#263238"/>
<path d="M502.159 90.1797C493.011 90.9301 483.852 88.8541 475.922 84.2323C467.992 79.6105 461.671 72.6657 457.815 64.3363C453.958 56.0068 452.751 46.6943 454.357 37.657C455.963 28.6197 460.305 20.2932 466.796 13.8027C473.286 7.31224 481.613 2.97058 490.65 1.36441C499.687 -0.241757 509 0.964991 517.329 4.82159C525.659 8.67819 532.603 14.9987 537.225 22.9292C541.847 30.8596 543.923 40.0177 543.173 49.1659C542.295 59.75 537.692 69.6799 530.183 77.1896C522.673 84.6994 512.743 89.3022 502.159 90.1797V90.1797Z" fill="#FAFAFA"/>
<path d="M502.159 90.1797C502.391 90.1032 502.632 90.0565 502.875 90.041L504.979 89.6942C506.118 89.5361 507.246 89.3044 508.355 89.0007C509.88 88.7179 511.386 88.3396 512.863 87.8678C519.131 85.6176 524.83 82.0214 529.559 77.3321C534.289 72.6429 537.933 66.9745 540.236 60.7257C541.412 57.3444 542.188 53.8373 542.548 50.2757C543.358 42.3999 542.024 34.4518 538.687 27.2719C537.807 25.3633 536.811 23.5103 535.705 21.7233L533.809 19.1339L532.861 17.8161L531.775 16.6139C528.854 13.2641 525.439 10.3795 521.648 8.0597C517.727 5.65695 513.462 3.86401 509.002 2.74224C504.383 1.66833 499.63 1.28654 494.899 1.60939C486.678 2.27708 478.806 5.22825 472.172 10.1302C465.538 15.0321 460.406 21.6899 457.353 29.3528C454.3 37.0157 453.449 45.379 454.895 53.4998C456.341 61.6206 460.027 69.176 465.538 75.314C469.314 79.5221 473.837 82.9946 478.878 85.5559L482.184 87.0586C483.27 87.521 484.357 87.7753 485.374 88.1452C487.24 88.7573 489.148 89.2287 491.085 89.5555C493.763 90.0332 496.479 90.2654 499.199 90.2491H501.326H502.066H501.35H499.199C494.47 90.4445 489.742 89.8427 485.212 88.4689C484.172 88.1221 483.062 87.8678 481.952 87.4054L478.577 85.9258C473.342 83.3876 468.635 79.881 464.705 75.5914C459.97 70.3756 456.512 64.1311 454.602 57.3502C452.845 50.9219 452.525 44.1857 453.662 37.6195C454.8 31.0532 457.368 24.8177 461.185 19.355C465.002 13.8922 469.974 9.3361 475.748 6.00966C481.523 2.68321 487.958 0.667903 494.599 0.10663C499.455 -0.212249 504.331 0.185031 509.071 1.28571C513.742 2.46948 518.197 4.38096 522.273 6.94997C526.152 9.34418 529.644 12.3143 532.63 15.7584L533.74 17.0069L534.734 18.3478L536.653 21.0297C537.782 22.863 538.801 24.7622 539.705 26.717C544.63 37.5009 545.128 49.7866 541.092 60.9337C538.765 67.298 535.033 73.0558 530.173 77.779C525.314 82.5021 519.453 86.0691 513.025 88.2146C511.511 88.7278 509.967 89.1448 508.401 89.463C507.273 89.725 506.131 89.918 504.979 90.041L502.852 90.2491C502.619 90.2612 502.385 90.2378 502.159 90.1797V90.1797Z" fill="#263238"/>
<path d="M502.667 46.2529C504.763 45.3097 506.536 43.7738 507.768 41.8346C509.001 39.8955 509.639 37.6379 509.603 35.3405C509.709 33.8268 509.503 32.3074 508.998 30.8765C508.493 29.4455 507.7 28.1333 506.668 27.021C505.635 25.9086 504.386 25.0198 502.997 24.4093C501.608 23.7989 500.108 23.4799 498.591 23.472C497.073 23.464 495.57 23.7674 494.175 24.3633C492.779 24.9592 491.521 25.835 490.477 26.9365C489.433 28.038 488.627 29.3418 488.107 30.7675C487.587 32.1931 487.365 33.7101 487.455 35.2249C487.416 37.5678 488.077 39.8689 489.354 41.8336C490.631 43.7983 492.465 45.3371 494.622 46.2529C477.583 48.8191 478.438 67.3377 478.438 67.3377L518.735 67.5458C518.735 67.5458 519.568 48.8885 502.667 46.2529Z" fill="#FB8500"/>
<path d="M486.738 88.8158C484.499 95.5273 481.874 102.104 478.878 108.514C476.241 115.084 473.23 121.499 469.861 127.726C472.13 121.018 474.769 114.442 477.768 108.028C480.406 101.466 483.401 95.052 486.738 88.8158V88.8158Z" fill="#263238"/>
<path d="M719.134 348.308C707.388 349.267 695.63 346.598 685.449 340.662C675.267 334.725 667.154 325.806 662.204 315.11C657.254 304.415 655.706 292.457 657.769 280.854C659.832 269.25 665.407 258.559 673.741 250.225C682.075 241.892 692.766 236.317 704.369 234.253C715.973 232.19 727.93 233.738 738.626 238.688C749.322 243.638 758.24 251.752 764.177 261.933C770.114 272.114 772.783 283.872 771.823 295.619C770.699 309.217 764.786 321.974 755.138 331.623C745.49 341.271 732.732 347.183 719.134 348.308V348.308Z" fill="#FAFAFA"/>
<path d="M719.134 348.308C719.43 348.223 719.731 348.161 720.036 348.123L722.741 347.73C724.215 347.533 725.675 347.24 727.11 346.851C729.078 346.409 731.016 345.845 732.913 345.163C738.124 343.307 743.05 340.731 747.548 337.511C754.162 332.815 759.692 326.755 763.764 319.739C767.836 312.724 770.355 304.916 771.153 296.844C772.205 286.706 770.495 276.473 766.205 267.228L765.373 265.378C765.072 264.777 764.726 264.199 764.379 263.621L762.344 260.084L759.917 256.639L758.691 254.952L757.281 253.403C753.532 249.073 749.133 245.353 744.242 242.375C739.24 239.237 733.78 236.897 728.058 235.439C722.113 234.061 715.999 233.563 709.909 233.959C698.261 234.977 687.2 239.524 678.202 246.993C669.205 254.461 662.7 264.497 659.555 275.759C658.208 280.803 657.539 286.005 657.567 291.226C657.524 292.485 657.586 293.746 657.752 294.994C657.752 296.243 657.96 297.468 658.053 298.694C658.538 301.005 658.908 303.525 659.532 305.814C661.898 314.387 666.21 322.299 672.132 328.934C677.021 334.382 682.887 338.868 689.426 342.158L693.68 344.077C695.067 344.678 696.477 345.025 697.772 345.487C700.177 346.26 702.634 346.863 705.124 347.29C708.573 347.9 712.071 348.186 715.574 348.146H718.302H719.25H718.302L715.574 348.261C712.055 348.414 708.53 348.205 705.054 347.637C702.535 347.245 700.048 346.673 697.61 345.926C696.292 345.464 694.859 345.14 693.472 344.539L689.125 342.667C682.471 339.38 676.495 334.87 671.508 329.373C665.446 322.686 661.014 314.686 658.561 305.999C657.937 303.687 657.521 301.237 657.035 298.763C656.92 297.538 656.804 296.266 656.689 294.994C656.546 293.72 656.484 292.438 656.504 291.157C656.47 285.838 657.131 280.537 658.469 275.389C661.656 263.887 668.282 253.633 677.459 246.001C686.636 238.37 697.926 233.724 709.817 232.688C716.023 232.283 722.254 232.789 728.313 234.19C734.175 235.641 739.78 237.98 744.935 241.126C749.911 244.185 754.386 247.99 758.206 252.408L759.639 254.004L760.888 255.715L763.361 259.136C764.055 260.338 764.749 261.564 765.442 262.743C765.766 263.344 766.136 263.945 766.436 264.546L767.269 266.442C771.626 275.872 773.336 286.309 772.216 296.636C771.021 307.619 766.704 318.029 759.775 326.633C752.846 335.238 743.596 341.676 733.121 345.187C731.205 345.859 729.242 346.393 727.249 346.782C725.804 347.138 724.337 347.393 722.856 347.545L720.128 347.845L719.134 348.308Z" fill="#263238"/>
<path d="M719.782 291.896C722.499 290.703 724.806 288.736 726.413 286.24C728.021 283.745 728.858 280.831 728.821 277.863C728.941 275.928 728.664 273.99 728.008 272.166C727.352 270.342 726.331 268.671 725.006 267.256C723.682 265.84 722.083 264.71 720.307 263.934C718.53 263.158 716.614 262.753 714.676 262.744C712.738 262.734 710.818 263.121 709.034 263.879C707.251 264.638 705.64 265.752 704.302 267.155C702.964 268.557 701.927 270.218 701.253 272.035C700.579 273.853 700.284 275.788 700.384 277.724C700.325 280.718 701.154 283.662 702.767 286.184C704.38 288.707 706.705 290.695 709.447 291.896C687.553 295.202 688.64 318.992 688.64 318.992L740.404 319.223C740.404 319.223 741.491 295.179 719.782 291.896Z" fill="#FB8500"/>
<path d="M658.608 305.051C654.11 306.836 649.47 308.236 644.736 309.236C640.134 310.63 635.425 311.643 630.656 312.265C635.154 310.48 639.794 309.08 644.528 308.08C649.13 306.685 653.839 305.672 658.608 305.051V305.051Z" fill="#263238"/>
<rect width="803" height="853" fill="url(#paint0_linear_55_1478)"/>
<defs>
<linearGradient id="paint0_linear_55_1478" x1="401.5" y1="0" x2="401.5" y2="853" gradientUnits="userSpaceOnUse">
<stop stop-opacity="0"/>
<stop offset="0.539424"/>
</linearGradient>
</defs>
</svg>
