<svg width="863" height="832" viewBox="0 0 863 832" fill="none" xmlns="http://www.w3.org/2000/svg">
<path d="M589.339 220.084H579.248" stroke="#263238" stroke-width="0.791871" stroke-linejoin="round"/>
<path d="M559.095 220.084H-75.7485" stroke="#263238" stroke-width="0.791871" stroke-linejoin="round" stroke-dasharray="5.54 5.54"/>
<path d="M596.316 1011.02V247.33" stroke="#263238" stroke-width="0.791871" stroke-linejoin="round" stroke-dasharray="5.59 5.59"/>
<path d="M596.316 237.153V227.062" stroke="#263238" stroke-width="0.791871" stroke-linejoin="round"/>
<path d="M603.294 213.107H589.339V227.09H603.294V213.107Z" stroke="#263238" stroke-width="0.791871" stroke-linejoin="round"/>
<path d="M713.085 261.861L611.597 219.219L654.239 320.735L666.003 286.397L688.664 309.059L701.408 296.315L678.746 273.653L713.085 261.861Z" stroke="#263238" stroke-width="0.791871" stroke-linecap="round" stroke-linejoin="round"/>
<path d="M384.173 376.035L411.333 342.503C414.391 338.723 416.564 334.306 417.692 329.576C418.819 324.847 418.873 319.924 417.849 315.171L392.102 195.722C391.14 191.269 388.68 187.28 385.133 184.421C381.587 181.562 377.167 180.004 372.612 180.008H322.704C319.154 180.006 315.627 180.59 312.267 181.738L-170.605 379.379L-48.2435 1014.8C-30.9445 1040.75 451.697 873.784 451.697 873.784C459.391 871.21 465.844 865.851 469.787 858.76C473.729 851.67 474.877 843.361 473.004 835.467L374.313 419.599C372.52 412.067 372.476 404.224 374.185 396.672C375.895 389.12 379.312 382.061 384.173 376.035Z" fill="#FB8500" stroke="#263238" stroke-width="0.791871" stroke-linecap="round" stroke-linejoin="round"/>
<path opacity="0.3" d="M313.564 194.049L466.372 849.046C466.372 849.046 -50.3773 1041.53 -26.0434 981.96C-26.0434 981.96 -149.01 396.822 -138.631 394.66C-128.252 392.497 313.564 194.049 313.564 194.049Z" fill="black" fill-opacity="0.7"/>
<path d="M441.145 837.369L-4.50601 978.846L-113.605 410.344L-119.804 377.995L277.208 185.89C279.175 185.05 281.301 184.646 283.439 184.705C285.577 184.764 287.677 185.286 289.595 186.234C291.512 187.181 293.202 188.533 294.547 190.196C295.893 191.858 296.863 193.793 297.39 195.866L305.607 227.984L454.753 812.084C456.203 817.241 455.594 822.759 453.055 827.475C450.517 832.192 446.247 835.739 441.145 837.369Z" fill="white"/>
<path d="M305.722 227.984L-110.405 418.446L-119.804 378.081L277.208 185.976C279.175 185.136 281.301 184.732 283.439 184.791C285.577 184.851 287.677 185.372 289.595 186.32C291.512 187.268 293.202 188.619 294.547 190.282C295.893 191.945 296.863 193.879 297.39 195.952L305.722 227.984Z" fill="#263238"/>
<path d="M284.935 213.885C285.035 215.151 284.87 216.424 284.453 217.623C284.035 218.822 283.373 219.921 282.508 220.85C281.644 221.78 280.595 222.52 279.43 223.023C278.264 223.527 277.007 223.783 275.737 223.775C273.09 223.378 270.682 222.016 268.979 219.951C267.275 217.886 266.396 215.263 266.511 212.588C266.407 211.319 266.569 210.042 266.986 208.839C267.404 207.636 268.069 206.534 268.937 205.603C269.806 204.672 270.86 203.933 272.031 203.432C273.202 202.932 274.464 202.682 275.737 202.699C278.38 203.101 280.781 204.466 282.478 206.531C284.176 208.596 285.051 211.215 284.935 213.885Z" fill="#FB8500" stroke="#263238" stroke-width="0.791871" stroke-linecap="round" stroke-linejoin="round"/>
<path d="M261.091 225.649C261.162 226.828 260.991 228.008 260.588 229.119C260.185 230.229 259.559 231.244 258.749 232.103C257.938 232.962 256.961 233.646 255.876 234.113C254.791 234.58 253.622 234.82 252.441 234.817C249.966 234.475 247.708 233.221 246.108 231.302C244.508 229.382 243.682 226.934 243.792 224.438C243.721 223.259 243.892 222.078 244.295 220.968C244.698 219.858 245.324 218.843 246.134 217.984C246.945 217.125 247.922 216.441 249.007 215.974C250.092 215.507 251.261 215.267 252.441 215.27C254.914 215.618 257.169 216.873 258.767 218.792C260.366 220.71 261.194 223.154 261.091 225.649Z" fill="#FB8500" stroke="#263238" stroke-width="0.791871" stroke-linecap="round" stroke-linejoin="round"/>
<path d="M238.631 235.826C238.732 236.934 238.599 238.05 238.241 239.103C237.882 240.156 237.307 241.121 236.551 241.937C235.795 242.753 234.876 243.4 233.853 243.838C232.831 244.275 231.728 244.493 230.616 244.476C228.322 244.136 226.235 242.957 224.76 241.167C223.285 239.378 222.526 237.105 222.629 234.788C222.533 233.684 222.668 232.572 223.027 231.523C223.385 230.475 223.958 229.512 224.71 228.698C225.462 227.884 226.376 227.235 227.393 226.795C228.41 226.354 229.507 226.131 230.616 226.139C232.912 226.479 235.002 227.656 236.482 229.445C237.961 231.234 238.727 233.507 238.631 235.826Z" fill="#FB8500" stroke="#263238" stroke-width="0.791871" stroke-linecap="round" stroke-linejoin="round"/>
<path opacity="0.3" d="M441.145 837.369L-4.50601 978.846L-113.605 410.344L-119.804 377.995L277.208 185.89C279.175 185.05 281.301 184.646 283.439 184.705C285.577 184.764 287.677 185.286 289.595 186.234C291.512 187.181 293.202 188.533 294.547 190.196C295.893 191.858 296.863 193.793 297.39 195.866L305.607 227.984L454.753 812.084C456.203 817.241 455.594 822.759 453.055 827.475C450.517 832.192 446.247 835.739 441.145 837.369Z" fill="black" fill-opacity="0.7"/>
<path d="M441.145 837.369L-4.50601 978.846L-113.605 410.344L-119.804 377.995L277.208 185.89C279.175 185.05 281.301 184.646 283.439 184.705C285.577 184.764 287.677 185.286 289.595 186.234C291.512 187.181 293.202 188.533 294.547 190.196C295.893 191.858 296.863 193.793 297.39 195.866L305.607 227.984L454.753 812.084C456.203 817.241 455.594 822.759 453.055 827.475C450.517 832.192 446.247 835.739 441.145 837.369V837.369Z" stroke="#263238" stroke-width="0.791871" stroke-linecap="round" stroke-linejoin="round"/>
<path d="M414.677 809.345L-24.8612 981.96L-132.49 421.07L-138.602 389.182L253.047 169.341C254.888 168.306 256.943 167.711 259.053 167.601C261.162 167.491 263.268 167.869 265.207 168.706C267.146 169.543 268.865 170.816 270.232 172.426C271.598 174.037 272.575 175.941 273.085 177.99L281.158 209.532L428.199 783.281C429.486 788.527 428.824 794.061 426.337 798.855C423.85 803.649 419.706 807.377 414.677 809.345Z" fill="white" stroke="#263238" stroke-width="0.791871" stroke-linecap="round" stroke-linejoin="round"/>
<path d="M281.158 209.417L-129.347 428.969L-138.602 389.182L253.047 169.341C254.888 168.306 256.943 167.711 259.053 167.601C261.162 167.491 263.268 167.869 265.207 168.706C267.146 169.543 268.865 170.816 270.232 172.426C271.598 174.037 272.575 175.941 273.085 177.99L281.158 209.417Z" fill="#263238"/>
<path d="M260.601 196.788C260.347 198.533 259.596 200.168 258.439 201.498C257.282 202.829 255.767 203.798 254.074 204.292C252.381 204.785 250.582 204.782 248.891 204.282C247.201 203.781 245.689 202.806 244.537 201.471C243.385 200.136 242.641 198.498 242.394 196.752C242.146 195.007 242.406 193.227 243.142 191.624C243.877 190.022 245.058 188.665 246.544 187.714C248.029 186.764 249.756 186.261 251.519 186.265C254.113 186.471 256.521 187.692 258.221 189.662C259.921 191.631 260.776 194.192 260.601 196.788Z" fill="#FB8500" stroke="#263238" stroke-width="0.791871" stroke-linecap="round" stroke-linejoin="round"/>
<path d="M237.132 210.137C236.92 211.794 236.233 213.355 235.153 214.63C234.073 215.905 232.647 216.84 231.048 217.322C229.448 217.804 227.743 217.812 226.139 217.346C224.534 216.88 223.099 215.959 222.007 214.695C220.915 213.43 220.212 211.877 219.984 210.222C219.756 208.567 220.012 206.881 220.721 205.368C221.43 203.855 222.562 202.581 223.981 201.697C225.399 200.814 227.043 200.361 228.713 200.392C231.116 200.584 233.346 201.714 234.922 203.538C236.497 205.362 237.291 207.732 237.132 210.137Z" fill="#FB8500" stroke="#263238" stroke-width="0.791871" stroke-linecap="round" stroke-linejoin="round"/>
<path d="M214.989 221.958C214.768 223.473 214.117 224.892 213.112 226.046C212.108 227.201 210.793 228.043 209.324 228.472C207.855 228.9 206.293 228.898 204.825 228.465C203.358 228.031 202.045 227.185 201.044 226.028C200.044 224.87 199.397 223.449 199.18 221.934C198.964 220.419 199.188 218.873 199.824 217.482C200.461 216.09 201.485 214.911 202.773 214.084C204.06 213.257 205.559 212.818 207.089 212.819C209.338 213.01 211.423 214.073 212.899 215.781C214.375 217.488 215.125 219.705 214.989 221.958Z" fill="#FB8500" stroke="#263238" stroke-width="0.791871" stroke-linecap="round" stroke-linejoin="round"/>
<path opacity="0.3" d="M276.516 223.602L406.028 730.491C406.281 731.497 406.171 732.561 405.717 733.494C405.264 734.427 404.496 735.171 403.548 735.594L391.727 740.813C391.153 741.067 390.529 741.193 389.901 741.182C389.273 741.17 388.654 741.022 388.089 740.748C387.524 740.474 387.025 740.079 386.628 739.593C386.23 739.106 385.944 738.538 385.788 737.929L259.794 233.952C259.477 232.684 259.588 231.346 260.11 230.147C260.631 228.948 261.533 227.955 262.677 227.321L272.422 221.843C272.8 221.647 273.217 221.538 273.643 221.523C274.069 221.507 274.493 221.587 274.885 221.755C275.276 221.923 275.625 222.176 275.908 222.495C276.19 222.815 276.397 223.193 276.516 223.602Z" fill="black" fill-opacity="0.7"/>
<path d="M265.416 238.248L272.566 234.298C273.25 233.922 274.011 233.708 274.791 233.672C275.571 233.636 276.349 233.779 277.065 234.091C277.781 234.403 278.415 234.875 278.92 235.471C279.425 236.067 279.786 236.77 279.976 237.527L293.209 290.635C293.537 291.916 293.431 293.269 292.91 294.484C292.388 295.699 291.48 296.708 290.326 297.353L281.677 301.966C281.173 302.244 280.611 302.401 280.036 302.423C279.461 302.446 278.889 302.334 278.365 302.095C277.842 301.857 277.381 301.5 277.019 301.052C276.658 300.604 276.407 300.078 276.285 299.515L262.619 244.735C262.329 243.497 262.445 242.199 262.948 241.031C263.452 239.863 264.317 238.888 265.416 238.248Z" fill="#BFBFBF" stroke="#263238" stroke-width="0.791871" stroke-linecap="round" stroke-linejoin="round"/>
<path opacity="0.4" d="M330.056 805.77L46.8716 922.394" stroke="black" stroke-width="1.58374" stroke-linecap="round" stroke-linejoin="round"/>
<path opacity="0.4" d="M368.345 770.221L8.6123 922.394" stroke="black" stroke-width="1.58374" stroke-linecap="round" stroke-linejoin="round"/>
<path opacity="0.3" d="M332.997 617.211L303.964 493.754L225.311 531.35L254.056 654.375L332.997 617.211Z" fill="black" fill-opacity="0.7"/>
<path opacity="0.3" d="M193.221 394.198L220.554 511.082L299.12 473.053L270.951 353.286L193.221 394.198Z" fill="black" fill-opacity="0.7"/>
<path opacity="0.3" d="M268.472 342.705L245.464 244.822L167.821 285.503L190.828 383.906L268.472 342.705Z" fill="black" fill-opacity="0.7"/>
<path opacity="0.3" d="M256.91 666.571L283.378 779.764L363.011 744.878L336.255 631.079L256.91 666.571Z" fill="black" fill-opacity="0.7"/>
<path d="M-170.605 379.379L-48.2435 1014.8C-9.06133 970.082 270.692 765.175 270.692 765.175C281.331 757.457 289.474 746.788 294.112 734.489C298.749 722.19 299.679 708.801 296.785 695.979L167.244 140.509C166.14 135.692 163.804 131.245 160.463 127.603C157.123 123.962 152.894 121.251 148.19 119.736C143.486 118.221 138.469 117.955 133.632 118.963C128.794 119.972 124.302 122.22 120.595 125.488C120.595 125.488 -139.64 288.934 -170.605 379.379Z" fill="#FB8500" stroke="#263238" stroke-width="0.791871" stroke-linecap="round" stroke-linejoin="round"/>
<g opacity="0.7">
<path d="M274.613 715.758C272.773 715.756 270.988 715.135 269.544 713.995C268.1 712.855 267.083 711.262 266.655 709.472C264.426 700.4 262.254 691.309 260.139 682.198C259.821 681.125 259.726 679.998 259.858 678.887C259.991 677.776 260.349 676.704 260.911 675.736C261.473 674.768 262.227 673.925 263.126 673.259C264.025 672.593 265.051 672.118 266.14 671.862C267.23 671.606 268.36 671.576 269.461 671.772C270.563 671.969 271.613 672.389 272.547 673.006C273.48 673.622 274.278 674.423 274.891 675.36C275.504 676.296 275.92 677.347 276.112 678.45C278.246 687.532 280.379 696.585 282.57 705.609C282.828 706.656 282.877 707.744 282.714 708.809C282.55 709.875 282.178 710.898 281.618 711.82C281.058 712.741 280.322 713.543 279.451 714.179C278.58 714.816 277.593 715.274 276.545 715.527C275.911 715.675 275.263 715.752 274.613 715.758Z" fill="white"/>
</g>
<g opacity="0.7">
<path d="M257.862 642.756C256.005 642.756 254.204 642.126 252.753 640.968C251.302 639.811 250.287 638.194 249.875 636.384L137.634 143.651C137.607 143.488 137.536 143.335 137.43 143.208C137.323 143.081 137.185 142.985 137.028 142.931C136.887 142.852 136.728 142.811 136.567 142.811C136.406 142.811 136.247 142.852 136.106 142.931C107.274 162.133 9.79424 227.523 -35.4138 263.678C-64.2454 287.637 -90.5687 315.2 -120.842 352.854C-122.203 354.548 -124.181 355.631 -126.341 355.866C-128.501 356.102 -130.666 355.469 -132.36 354.108C-134.054 352.747 -135.138 350.769 -135.373 348.609C-135.608 346.449 -134.975 344.283 -133.614 342.59C-102.649 304.013 -75.5474 275.758 -45.7643 250.963C-1.19061 215.298 89.9173 154.002 127.024 129.293C129.365 127.706 132.059 126.717 134.871 126.413C137.684 126.108 140.527 126.498 143.154 127.548C145.78 128.598 148.109 130.276 149.936 132.435C151.764 134.594 153.034 137.168 153.635 139.932L265.877 632.636C266.116 633.689 266.145 634.778 265.962 635.842C265.78 636.905 265.39 637.923 264.814 638.836C264.238 639.749 263.489 640.54 262.607 641.163C261.726 641.786 260.731 642.229 259.678 642.468C259.086 642.635 258.476 642.732 257.862 642.756Z" fill="white"/>
</g>
<path d="M388.469 497.502C388.469 497.502 365.865 538.789 366.096 548.131C366.327 557.472 409.343 622.286 410.497 629.638C411.65 636.99 442.759 651.175 454.119 658.7C465.479 666.225 479.837 611.675 477.963 572.407C476.089 533.138 388.469 497.502 388.469 497.502Z" fill="white"/>
<path opacity="0.5" d="M388.469 497.502C388.469 497.502 365.865 538.789 366.096 548.131C366.327 557.472 409.343 622.286 410.497 629.638C411.65 636.99 442.759 651.175 454.119 658.7C465.479 666.225 479.837 611.675 477.963 572.407C476.089 533.138 388.469 497.502 388.469 497.502Z" fill="#FB8500"/>
<path d="M388.469 497.502C388.469 497.502 365.865 538.789 366.096 548.131C366.327 557.472 409.343 622.286 410.497 629.638C411.65 636.99 442.759 651.175 454.119 658.7C465.479 666.225 479.837 611.675 477.963 572.407C476.089 533.138 388.469 497.502 388.469 497.502Z" stroke="#263238" stroke-width="0.791871" stroke-linecap="round" stroke-linejoin="round"/>
<path d="M403.923 574.223C403.923 574.223 426.123 564.132 450.284 591.032" stroke="#263238" stroke-width="0.791871" stroke-linecap="round" stroke-linejoin="round"/>
<path d="M862 958.174L726.491 1111.21C726.491 1111.21 704.205 1083.45 676.324 1049.51C636.681 1001.34 585.764 940.702 571.348 929.66C553.761 916.138 439.444 837.975 407.844 799.254C403.318 793.69 399.368 788.788 395.879 784.291C375.034 757.419 370.882 745.887 360.532 708.406C348.451 664.582 335.131 640.392 331.7 624.189C331.7 623.698 331.498 623.208 331.412 622.66C327.923 604.698 321.811 550.581 313.853 536.829C305.665 522.643 338.187 515.782 350.585 523.681C362.982 531.581 393.832 569.812 391.958 602.911C391.958 602.911 416.263 662.794 428.661 661.18C428.661 661.18 427.046 601.181 418.8 586.534C414.977 579.837 412.803 572.326 412.457 564.622C412.335 562.766 412.393 560.903 412.63 559.058C412.63 559.058 374.428 517.829 363.184 490.064C351.94 462.299 329.912 419.57 325.703 377.995C325.703 377.995 320.744 348.097 338.879 334.546C345.77 329.385 352.142 327.915 358.571 336.852C362.005 342.083 364.712 347.758 366.615 353.719C393.746 430.296 427.161 459.646 427.161 459.646C440.261 463.058 453.073 467.493 465.479 472.909C468.201 474.265 470.822 475.817 473.321 477.551C480.442 482.337 489.092 489.256 498.03 496.061C510.889 505.835 524.295 515.291 534.358 517.511C569.446 525.123 586.254 542.941 586.254 542.941C586.254 542.941 609.55 537.982 621.861 559.663C633.827 580.653 640.4 584.833 640.4 584.833C640.4 584.833 649.194 584.833 656.258 600.345C668.713 627.562 706.136 772.527 707.982 778.38C723.032 826.327 767.778 877.792 818.983 922.884C833.14 935.224 847.556 947.016 862 958.174Z" fill="white"/>
<path opacity="0.4" d="M511.177 536.339C511.177 536.339 470.64 529.044 462.653 510.65C454.667 492.255 420.732 452.986 412.601 450.449C410.334 449.685 407.897 449.571 405.568 450.122C403.239 450.672 401.111 451.864 399.425 453.563C399.425 453.563 385.356 431.363 374.774 412.19C364.741 393.968 315.093 339.332 358.542 336.853C361.977 342.084 364.683 347.758 366.586 353.719C393.717 430.296 427.133 459.646 427.133 459.646C440.232 463.058 453.044 467.493 465.45 472.909C468.172 474.266 470.793 475.817 473.292 477.551C472.254 477.291 455.993 473.255 459.251 481.559C462.509 489.862 488.948 514.081 502.844 524.575C516.741 535.07 511.177 536.339 511.177 536.339Z" fill="#FB8500"/>
<path opacity="0.4" d="M819.185 922.913C796.264 910.371 761.521 889.641 749.989 873.352C732.171 848.268 718.937 835.697 707.059 821.166C695.18 806.635 672.691 794.757 677.967 796.717C683.244 798.678 707.116 806.952 707.116 806.952C693.719 788.913 683.034 769.01 675.401 747.876C661.533 710.885 636.277 580.653 617.508 566.237C598.738 551.821 617.508 693.903 617.508 693.903C605.539 666.113 596.598 637.114 590.838 607.408C582.189 560.701 574.404 537.78 564.255 531.466C554.107 525.152 534.674 538.443 529.369 531.466C524.064 524.489 530.061 521.923 498.173 496.147C511.032 505.921 524.439 515.378 534.501 517.598C569.589 525.21 586.398 543.027 586.398 543.027C586.398 543.027 609.694 538.068 622.005 559.75C633.97 580.739 640.544 584.92 640.544 584.92C640.544 584.92 649.338 584.92 656.401 600.431C668.857 627.648 706.28 772.614 708.125 778.467C723.175 826.356 767.98 877.82 819.185 922.913Z" fill="#FB8500"/>
<path opacity="0.4" d="M442.009 688.743C440.51 697.392 429.612 671.847 428.631 675.797C427.651 679.747 424.682 692.779 424.509 688.743C424.336 684.706 401.213 671.847 397.234 652.674C393.255 633.501 390.631 625.342 388.584 620.527C386.537 615.712 383.078 623.727 382.818 612.108C382.616 601.7 349.114 590.744 331.267 622.661C327.778 604.698 321.666 550.581 313.709 536.829C305.52 522.644 338.043 515.782 350.44 523.682C362.838 531.581 393.688 569.812 391.814 602.911C391.814 602.911 416.119 662.794 428.516 661.18C428.516 661.18 426.902 601.181 418.656 586.535C414.832 579.837 412.658 572.326 412.313 564.622L424.393 566.266C427.651 573.416 421.279 583.565 424.393 588.755C427.507 593.944 447.055 631.483 440.568 650.944C434.081 670.406 443.509 680.093 442.009 688.743Z" fill="#FB8500"/>
<path opacity="0.4" d="M676.238 1049.51C636.594 1001.34 585.678 940.702 571.262 929.66C553.674 916.138 439.357 837.975 407.758 799.254C403.231 793.69 399.281 788.789 395.792 784.291C412.63 804.848 433.274 815.66 442.154 820.503C458.011 829.153 503.94 836.476 536.001 871.247C551.57 888.142 560.45 900.453 579.594 921.587C598.738 942.721 626.503 944.047 643.024 973.138C651.298 987.727 665.051 1020.57 676.238 1049.51Z" fill="#FB8500"/>
<path d="M726.405 1111.21C726.405 1111.21 595.797 948.487 571.262 929.573C553.674 916.08 439.357 837.889 407.757 799.168C376.158 760.447 372.525 752.172 360.445 708.377C348.364 664.582 335.073 640.392 331.613 624.16C328.153 607.927 321.954 550.985 313.766 536.829C305.578 522.672 338.1 515.782 350.498 523.653C362.895 531.524 393.745 569.783 391.871 602.911C391.871 602.911 416.176 662.794 428.574 661.179C428.574 661.179 426.959 601.181 418.713 586.534C413.832 578.258 411.683 568.654 412.572 559.087C412.572 559.087 374.313 517.829 363.155 490.064C351.997 462.299 329.883 419.57 325.674 377.995C325.674 377.995 320.743 348.126 338.879 334.546C348.624 327.251 357.273 327.338 366.615 353.719C393.774 430.296 427.161 459.646 427.161 459.646C440.261 463.058 453.072 467.492 465.478 472.909C481.624 480.492 514.492 513.273 534.444 517.511C569.503 525.152 586.341 542.97 586.341 542.97C586.341 542.97 609.637 538.011 621.948 559.692C633.884 580.682 640.486 584.891 640.486 584.891C640.486 584.891 649.136 584.891 656.344 600.374C668.799 627.591 706.222 772.556 708.068 778.409C727.241 839.445 794.563 906.162 861.884 958.174" stroke="#263238" stroke-width="0.791871" stroke-linecap="round" stroke-linejoin="round"/>
<path d="M427.248 459.646C427.248 459.646 460.433 505.604 483.671 514.427" stroke="#263238" stroke-width="0.791871" stroke-linecap="round" stroke-linejoin="round"/>
<path d="M481.855 524.575C504.228 531.754 518.673 536.108 522.796 552.888C526.919 569.668 538.884 607.899 544.65 622.891C550.417 637.883 564.256 675.797 564.256 675.797" stroke="#263238" stroke-width="0.791871" stroke-linecap="round" stroke-linejoin="round"/>
<path d="M428.632 661.18C428.632 661.18 443.855 680.987 440.164 700.391" stroke="#263238" stroke-width="0.791871" stroke-linecap="round" stroke-linejoin="round"/>
<path d="M422.173 657.979C422.173 657.979 421.51 679.516 426.902 693.932" stroke="#263238" stroke-width="0.791871" stroke-linecap="round" stroke-linejoin="round"/>
<path d="M412.63 559C412.63 559 424.854 565.574 427.766 573.416" stroke="#263238" stroke-width="0.791871" stroke-linecap="round" stroke-linejoin="round"/>
<path d="M421.51 593.771C424.532 600.326 428.347 606.484 432.87 612.108C438.78 618.595 441.519 639.671 441.519 639.671" stroke="#263238" stroke-width="0.791871" stroke-linecap="round" stroke-linejoin="round"/>
<path d="M331.671 624.16C331.671 624.16 344.847 609.34 358.456 607.322" stroke="#263238" stroke-width="0.791871" stroke-linecap="round" stroke-linejoin="round"/>
<path d="M394.034 456.734C394.034 456.734 409.372 445.202 420.991 453.188" stroke="#263238" stroke-width="0.791871" stroke-linecap="round" stroke-linejoin="round"/>
<path d="M649.194 622.228C652.25 630.618 667.934 706.387 671.856 717.142" stroke="#263238" stroke-width="0.791871" stroke-linecap="round" stroke-linejoin="round"/>
<path d="M541.94 535.387C541.94 535.387 556.356 525.065 574.404 537.722C592.453 550.379 592.482 556.492 603.611 553.522C606.957 552.763 610.447 552.937 613.7 554.025C616.954 555.113 619.847 557.073 622.063 559.692" stroke="#263238" stroke-width="0.791871" stroke-linecap="round" stroke-linejoin="round"/>
<path d="M600.064 588.755C602.948 605.736 615.172 688.858 621.083 709.847" stroke="#263238" stroke-width="0.791871" stroke-linecap="round" stroke-linejoin="round"/>
</svg>
